M48
;DRILL file {Pcbnew (2013-07-07 BZR 4022)-stable} date 11/3/2017 9:35:12 AM
;FORMAT={-:-/ absolute / inch / decimal}
FMAT,2
INCH,TZ
T1C0.020
T2C0.031
T3C0.032
T4C0.040
T5C0.125
T6C0.625
%
G90
G05
M72
T1
X6.7Y-5.77
X6.7Y-5.82
X6.7Y-5.87
X6.7Y-6.37
X6.7Y-6.42
X6.7Y-6.47
X6.7Y-6.65
X6.7Y-6.7
X6.7Y-6.75
X6.7Y-7.25
X6.7Y-7.3
X6.7Y-7.35
X6.75Y-5.77
X6.75Y-5.82
X6.75Y-5.87
X6.75Y-6.37
X6.75Y-6.42
X6.75Y-6.47
X6.75Y-6.65
X6.75Y-6.7
X6.75Y-6.75
X6.75Y-7.25
X6.75Y-7.3
X6.75Y-7.35
X6.8Y-5.77
X6.8Y-5.82
X6.8Y-5.87
X6.8Y-6.37
X6.8Y-6.42
X6.8Y-6.47
X6.8Y-6.65
X6.8Y-6.7
X6.8Y-6.75
X6.8Y-7.25
X6.8Y-7.3
X6.8Y-7.35
X7.3Y-5.77
X7.3Y-5.82
X7.3Y-5.87
X7.3Y-6.37
X7.3Y-6.42
X7.3Y-6.47
X7.3Y-6.65
X7.3Y-6.7
X7.3Y-6.75
X7.3Y-7.25
X7.3Y-7.3
X7.3Y-7.35
X7.35Y-5.77
X7.35Y-5.82
X7.35Y-5.87
X7.35Y-6.37
X7.35Y-6.42
X7.35Y-6.47
X7.35Y-6.65
X7.35Y-6.7
X7.35Y-6.75
X7.35Y-7.25
X7.35Y-7.3
X7.35Y-7.35
X7.4Y-5.77
X7.4Y-5.82
X7.4Y-5.87
X7.4Y-6.37
X7.4Y-6.42
X7.4Y-6.47
X7.4Y-6.65
X7.4Y-6.7
X7.4Y-6.75
X7.4Y-7.25
X7.4Y-7.3
X7.4Y-7.35
X7.47Y-6.9099
X7.5642Y-6.4446
X7.5654Y-6.1611
X7.6343Y-5.7621
X7.6578Y-6.7093
X7.7186Y-7.1206
X7.7193Y-6.6614
X7.7196Y-5.7785
X7.7366Y-6.5882
X7.7565Y-6.9145
X7.7908Y-6.5325
X7.8079Y-6.9477
X7.8245Y-6.6195
X7.8359Y-6.0288
X7.8437Y-6.4688
X7.8611Y-6.8468
X7.8692Y-6.7256
X7.9103Y-6.8347
X7.9337Y-5.9457
X8.0158Y-6.537
X8.1989Y-7.4176
X8.2Y-5.77
X8.2Y-5.82
X8.2Y-5.87
X8.2Y-6.37
X8.2Y-6.42
X8.2Y-6.47
X8.2Y-6.65
X8.2Y-6.7
X8.2Y-6.75
X8.2Y-7.25
X8.2Y-7.3
X8.2Y-7.35
X8.25Y-5.77
X8.25Y-5.82
X8.25Y-5.87
X8.25Y-6.37
X8.25Y-6.42
X8.25Y-6.47
X8.25Y-6.65
X8.25Y-6.7
X8.25Y-6.75
X8.25Y-7.25
X8.25Y-7.3
X8.25Y-7.35
X8.3Y-5.77
X8.3Y-5.82
X8.3Y-5.87
X8.3Y-6.37
X8.3Y-6.42
X8.3Y-6.47
X8.3Y-6.65
X8.3Y-6.7
X8.3Y-6.75
X8.3Y-7.25
X8.3Y-7.3
X8.3Y-7.35
X8.8Y-5.77
X8.8Y-5.82
X8.8Y-5.87
X8.8Y-6.37
X8.8Y-6.42
X8.8Y-6.47
X8.8Y-6.65
X8.8Y-6.7
X8.8Y-6.75
X8.8Y-7.25
X8.8Y-7.3
X8.8Y-7.35
X8.85Y-5.77
X8.85Y-5.82
X8.85Y-5.87
X8.85Y-6.37
X8.85Y-6.42
X8.85Y-6.47
X8.85Y-6.65
X8.85Y-6.7
X8.85Y-6.75
X8.85Y-7.25
X8.85Y-7.3
X8.85Y-7.35
X8.8759Y-6.5759
X8.9Y-5.77
X8.9Y-5.82
X8.9Y-5.87
X8.9Y-6.37
X8.9Y-6.42
X8.9Y-6.47
X8.9Y-6.65
X8.9Y-6.7
X8.9Y-6.75
X8.9Y-7.25
X8.9Y-7.3
X8.9Y-7.35
T2
X6.7Y-6.0805
X6.7Y-6.1595
X6.7Y-6.9605
X6.7Y-7.0395
X7.0105Y-6.47
X7.0105Y-7.35
X7.0895Y-6.47
X7.0895Y-7.35
X7.4Y-6.0805
X7.4Y-6.1595
X7.4Y-6.9605
X7.4Y-7.0395
X8.2Y-6.0805
X8.2Y-6.1595
X8.2Y-6.9605
X8.2Y-7.0395
X8.5105Y-6.47
X8.5105Y-7.35
X8.5895Y-6.47
X8.5895Y-7.35
X8.9Y-6.0805
X8.9Y-6.1595
X8.9Y-6.9605
X8.9Y-7.0395
T3
X7.19Y-5.6
X7.29Y-5.6
X7.39Y-5.6
X7.49Y-5.6
X7.59Y-5.6
X7.69Y-5.6
X7.75Y-7.5
X7.79Y-5.6
X7.85Y-7.5
X7.89Y-5.6
X7.95Y-7.5
X7.99Y-5.6
X8.05Y-7.5
X8.09Y-5.6
X8.15Y-7.5
X8.25Y-5.6
X8.25Y-7.5
X8.35Y-5.6
X8.45Y-5.6
X8.45Y-7.5
X8.55Y-5.6
X8.55Y-7.5
X8.65Y-5.6
X8.65Y-7.5
X8.75Y-5.6
X8.75Y-7.5
X8.85Y-5.6
X8.85Y-7.5
X8.95Y-5.6
X8.95Y-7.5
T4
X6.55Y-5.77
X6.55Y-5.87
X6.55Y-6.07
X6.55Y-6.17
X6.55Y-6.37
X6.55Y-6.47
X6.55Y-6.65
X6.55Y-6.75
X6.55Y-6.95
X6.55Y-7.05
X6.55Y-7.25
X6.55Y-7.35
X8.05Y-5.77
X8.05Y-5.87
X8.05Y-6.07
X8.05Y-6.17
X8.05Y-6.37
X8.05Y-6.47
X8.05Y-6.65
X8.05Y-6.75
X8.05Y-6.95
X8.05Y-7.05
X8.05Y-7.25
X8.05Y-7.35
T5
X7.Y-7.5
X7.05Y-5.6
X9.05Y-6.2
X9.05Y-7.3
T6
X7.05Y-6.12
X7.05Y-7.
X8.55Y-6.12
X8.55Y-7.
T0
M30
