G04 (created by PCBNEW (2013-07-07 BZR 4022)-stable) date 11/3/2017 9:35:14 AM*
%MOIN*%
G04 Gerber Fmt 3.4, Leading zero omitted, Abs format*
%FSLAX34Y34*%
G01*
G70*
G90*
G04 APERTURE LIST*
%ADD10C,0.00590551*%
%ADD11C,0.006*%
%ADD12C,0.005*%
%ADD13C,0.0149606*%
%ADD14C,0.015*%
%ADD15C,0.0045*%
%ADD16C,0.0047*%
%ADD17C,0.012*%
G04 APERTURE END LIST*
G54D10*
G54D11*
X80000Y-66000D02*
X81000Y-66000D01*
X81000Y-66000D02*
X81000Y-68000D01*
X81000Y-68000D02*
X80000Y-68000D01*
X80000Y-68000D02*
X80000Y-66000D01*
X80000Y-72000D02*
X81000Y-72000D01*
X81000Y-72000D02*
X81000Y-74000D01*
X81000Y-74000D02*
X80000Y-74000D01*
X80000Y-74000D02*
X80000Y-72000D01*
X80000Y-69000D02*
X81000Y-69000D01*
X81000Y-69000D02*
X81000Y-71000D01*
X81000Y-71000D02*
X80000Y-71000D01*
X80000Y-71000D02*
X80000Y-69000D01*
X65000Y-69000D02*
X66000Y-69000D01*
X66000Y-69000D02*
X66000Y-71000D01*
X66000Y-71000D02*
X65000Y-71000D01*
X65000Y-71000D02*
X65000Y-69000D01*
X65000Y-66000D02*
X66000Y-66000D01*
X66000Y-66000D02*
X66000Y-68000D01*
X66000Y-68000D02*
X65000Y-68000D01*
X65000Y-68000D02*
X65000Y-66000D01*
X65000Y-72000D02*
X66000Y-72000D01*
X66000Y-72000D02*
X66000Y-74000D01*
X66000Y-74000D02*
X65000Y-74000D01*
X65000Y-74000D02*
X65000Y-72000D01*
X80000Y-60200D02*
X81000Y-60200D01*
X81000Y-60200D02*
X81000Y-62200D01*
X81000Y-62200D02*
X80000Y-62200D01*
X80000Y-62200D02*
X80000Y-60200D01*
X80000Y-57200D02*
X81000Y-57200D01*
X81000Y-57200D02*
X81000Y-59200D01*
X81000Y-59200D02*
X80000Y-59200D01*
X80000Y-59200D02*
X80000Y-57200D01*
X80000Y-63200D02*
X81000Y-63200D01*
X81000Y-63200D02*
X81000Y-65200D01*
X81000Y-65200D02*
X80000Y-65200D01*
X80000Y-65200D02*
X80000Y-63200D01*
X65000Y-60200D02*
X66000Y-60200D01*
X66000Y-60200D02*
X66000Y-62200D01*
X66000Y-62200D02*
X65000Y-62200D01*
X65000Y-62200D02*
X65000Y-60200D01*
X65000Y-57200D02*
X66000Y-57200D01*
X66000Y-57200D02*
X66000Y-59200D01*
X66000Y-59200D02*
X65000Y-59200D01*
X65000Y-59200D02*
X65000Y-57200D01*
X65000Y-63200D02*
X66000Y-63200D01*
X66000Y-63200D02*
X66000Y-65200D01*
X66000Y-65200D02*
X65000Y-65200D01*
X65000Y-65200D02*
X65000Y-63200D01*
G54D12*
X77450Y-67950D02*
X78350Y-67950D01*
X78350Y-67950D02*
X78350Y-68450D01*
X78350Y-68450D02*
X77450Y-68450D01*
X77450Y-68450D02*
X77450Y-67950D01*
X77450Y-62650D02*
X78350Y-62650D01*
X78350Y-62650D02*
X78350Y-63150D01*
X78350Y-63150D02*
X77450Y-63150D01*
X77450Y-63150D02*
X77450Y-62650D01*
X77450Y-63350D02*
X78350Y-63350D01*
X78350Y-63350D02*
X78350Y-63850D01*
X78350Y-63850D02*
X77450Y-63850D01*
X77450Y-63850D02*
X77450Y-63350D01*
X74450Y-67250D02*
X75350Y-67250D01*
X75350Y-67250D02*
X75350Y-67750D01*
X75350Y-67750D02*
X74450Y-67750D01*
X74450Y-67750D02*
X74450Y-67250D01*
X75950Y-68050D02*
X76850Y-68050D01*
X76850Y-68050D02*
X76850Y-68550D01*
X76850Y-68550D02*
X75950Y-68550D01*
X75950Y-68550D02*
X75950Y-68050D01*
X75950Y-67350D02*
X76850Y-67350D01*
X76850Y-67350D02*
X76850Y-67850D01*
X76850Y-67850D02*
X75950Y-67850D01*
X75950Y-67850D02*
X75950Y-67350D01*
X75350Y-66750D02*
X74450Y-66750D01*
X74450Y-66750D02*
X74450Y-66250D01*
X74450Y-66250D02*
X75350Y-66250D01*
X75350Y-66250D02*
X75350Y-66750D01*
X77450Y-66550D02*
X78350Y-66550D01*
X78350Y-66550D02*
X78350Y-67050D01*
X78350Y-67050D02*
X77450Y-67050D01*
X77450Y-67050D02*
X77450Y-66550D01*
X77450Y-67250D02*
X78350Y-67250D01*
X78350Y-67250D02*
X78350Y-67750D01*
X78350Y-67750D02*
X77450Y-67750D01*
X77450Y-67750D02*
X77450Y-67250D01*
X77450Y-61950D02*
X78350Y-61950D01*
X78350Y-61950D02*
X78350Y-62450D01*
X78350Y-62450D02*
X77450Y-62450D01*
X77450Y-62450D02*
X77450Y-61950D01*
X79850Y-66750D02*
X78950Y-66750D01*
X78950Y-66750D02*
X78950Y-66250D01*
X78950Y-66250D02*
X79850Y-66250D01*
X79850Y-66250D02*
X79850Y-66750D01*
X75950Y-70650D02*
X76850Y-70650D01*
X76850Y-70650D02*
X76850Y-71150D01*
X76850Y-71150D02*
X75950Y-71150D01*
X75950Y-71150D02*
X75950Y-70650D01*
X75950Y-71350D02*
X76850Y-71350D01*
X76850Y-71350D02*
X76850Y-71850D01*
X76850Y-71850D02*
X75950Y-71850D01*
X75950Y-71850D02*
X75950Y-71350D01*
X78950Y-67250D02*
X79850Y-67250D01*
X79850Y-67250D02*
X79850Y-67750D01*
X79850Y-67750D02*
X78950Y-67750D01*
X78950Y-67750D02*
X78950Y-67250D01*
X77450Y-72150D02*
X78350Y-72150D01*
X78350Y-72150D02*
X78350Y-72650D01*
X78350Y-72650D02*
X77450Y-72650D01*
X77450Y-72650D02*
X77450Y-72150D01*
X77450Y-71450D02*
X78350Y-71450D01*
X78350Y-71450D02*
X78350Y-71950D01*
X78350Y-71950D02*
X77450Y-71950D01*
X77450Y-71950D02*
X77450Y-71450D01*
X77450Y-70750D02*
X78350Y-70750D01*
X78350Y-70750D02*
X78350Y-71250D01*
X78350Y-71250D02*
X77450Y-71250D01*
X77450Y-71250D02*
X77450Y-70750D01*
X75450Y-61050D02*
X74550Y-61050D01*
X74550Y-61050D02*
X74550Y-60550D01*
X74550Y-60550D02*
X75450Y-60550D01*
X75450Y-60550D02*
X75450Y-61050D01*
X78950Y-58450D02*
X79850Y-58450D01*
X79850Y-58450D02*
X79850Y-58950D01*
X79850Y-58950D02*
X78950Y-58950D01*
X78950Y-58950D02*
X78950Y-58450D01*
X75950Y-62550D02*
X76850Y-62550D01*
X76850Y-62550D02*
X76850Y-63050D01*
X76850Y-63050D02*
X75950Y-63050D01*
X75950Y-63050D02*
X75950Y-62550D01*
X75950Y-61850D02*
X76850Y-61850D01*
X76850Y-61850D02*
X76850Y-62350D01*
X76850Y-62350D02*
X75950Y-62350D01*
X75950Y-62350D02*
X75950Y-61850D01*
X79850Y-57950D02*
X78950Y-57950D01*
X78950Y-57950D02*
X78950Y-57450D01*
X78950Y-57450D02*
X79850Y-57450D01*
X79850Y-57450D02*
X79850Y-57950D01*
X77450Y-57750D02*
X78350Y-57750D01*
X78350Y-57750D02*
X78350Y-58250D01*
X78350Y-58250D02*
X77450Y-58250D01*
X77450Y-58250D02*
X77450Y-57750D01*
X77450Y-58450D02*
X78350Y-58450D01*
X78350Y-58450D02*
X78350Y-58950D01*
X78350Y-58950D02*
X77450Y-58950D01*
X77450Y-58950D02*
X77450Y-58450D01*
X77450Y-59150D02*
X78350Y-59150D01*
X78350Y-59150D02*
X78350Y-59650D01*
X78350Y-59650D02*
X77450Y-59650D01*
X77450Y-59650D02*
X77450Y-59150D01*
X75350Y-57950D02*
X74450Y-57950D01*
X74450Y-57950D02*
X74450Y-57450D01*
X74450Y-57450D02*
X75350Y-57450D01*
X75350Y-57450D02*
X75350Y-57950D01*
X75950Y-58550D02*
X76850Y-58550D01*
X76850Y-58550D02*
X76850Y-59050D01*
X76850Y-59050D02*
X75950Y-59050D01*
X75950Y-59050D02*
X75950Y-58550D01*
X75950Y-59250D02*
X76850Y-59250D01*
X76850Y-59250D02*
X76850Y-59750D01*
X76850Y-59750D02*
X75950Y-59750D01*
X75950Y-59750D02*
X75950Y-59250D01*
X74450Y-58450D02*
X75350Y-58450D01*
X75350Y-58450D02*
X75350Y-58950D01*
X75350Y-58950D02*
X74450Y-58950D01*
X74450Y-58950D02*
X74450Y-58450D01*
X79250Y-74250D02*
X79250Y-73350D01*
X79250Y-73350D02*
X79750Y-73350D01*
X79750Y-73350D02*
X79750Y-74250D01*
X79750Y-74250D02*
X79250Y-74250D01*
X77750Y-73350D02*
X77750Y-74250D01*
X77750Y-74250D02*
X77250Y-74250D01*
X77250Y-74250D02*
X77250Y-73350D01*
X77250Y-73350D02*
X77750Y-73350D01*
X78750Y-73350D02*
X78750Y-74250D01*
X78750Y-74250D02*
X78250Y-74250D01*
X78250Y-74250D02*
X78250Y-73350D01*
X78250Y-73350D02*
X78750Y-73350D01*
X75450Y-69850D02*
X74550Y-69850D01*
X74550Y-69850D02*
X74550Y-69350D01*
X74550Y-69350D02*
X75450Y-69350D01*
X75450Y-69350D02*
X75450Y-69850D01*
X90750Y-65650D02*
X90750Y-66550D01*
X90750Y-66550D02*
X90250Y-66550D01*
X90250Y-66550D02*
X90250Y-65650D01*
X90250Y-65650D02*
X90750Y-65650D01*
X90250Y-65350D02*
X90250Y-64450D01*
X90250Y-64450D02*
X90750Y-64450D01*
X90750Y-64450D02*
X90750Y-65350D01*
X90750Y-65350D02*
X90250Y-65350D01*
X77411Y-60050D02*
G75*
G03X77411Y-60050I-111J0D01*
G74*
G01*
X78800Y-61800D02*
X78800Y-59800D01*
X78800Y-59800D02*
X77000Y-59800D01*
X77000Y-59800D02*
X77000Y-61800D01*
X77000Y-61800D02*
X78800Y-61800D01*
X77411Y-68850D02*
G75*
G03X77411Y-68850I-111J0D01*
G74*
G01*
X78800Y-70600D02*
X78800Y-68600D01*
X78800Y-68600D02*
X77000Y-68600D01*
X77000Y-68600D02*
X77000Y-70600D01*
X77000Y-70600D02*
X78800Y-70600D01*
X77411Y-64450D02*
G75*
G03X77411Y-64450I-111J0D01*
G74*
G01*
X78800Y-66200D02*
X78800Y-64200D01*
X78800Y-64200D02*
X77000Y-64200D01*
X77000Y-64200D02*
X77000Y-66200D01*
X77000Y-66200D02*
X78800Y-66200D01*
X75450Y-65450D02*
X74550Y-65450D01*
X74550Y-65450D02*
X74550Y-64950D01*
X74550Y-64950D02*
X75450Y-64950D01*
X75450Y-64950D02*
X75450Y-65450D01*
G54D13*
X91500Y-74000D02*
X91500Y-76000D01*
X91500Y-76000D02*
X90500Y-76000D01*
X90000Y-55000D02*
X91500Y-55000D01*
X91500Y-55000D02*
X91500Y-61000D01*
G54D14*
X90000Y-55000D02*
X64500Y-55000D01*
X90500Y-76000D02*
X64500Y-76000D01*
X64500Y-76000D02*
X64500Y-55000D01*
X91500Y-61000D02*
X91500Y-74000D01*
G54D10*
X85200Y-66265D02*
X85200Y-66584D01*
X85218Y-66621D01*
X85237Y-66640D01*
X85275Y-66659D01*
X85350Y-66659D01*
X85387Y-66640D01*
X85406Y-66621D01*
X85425Y-66584D01*
X85425Y-66265D01*
X85781Y-66396D02*
X85781Y-66659D01*
X85687Y-66246D02*
X85593Y-66528D01*
X85837Y-66528D01*
X84628Y-66140D02*
X84684Y-66159D01*
X84778Y-66159D01*
X84815Y-66140D01*
X84834Y-66121D01*
X84853Y-66084D01*
X84853Y-66046D01*
X84834Y-66009D01*
X84815Y-65990D01*
X84778Y-65971D01*
X84703Y-65953D01*
X84665Y-65934D01*
X84646Y-65915D01*
X84628Y-65878D01*
X84628Y-65840D01*
X84646Y-65803D01*
X84665Y-65784D01*
X84703Y-65765D01*
X84796Y-65765D01*
X84853Y-65784D01*
X85021Y-66159D02*
X85021Y-65765D01*
X85171Y-65765D01*
X85209Y-65784D01*
X85228Y-65803D01*
X85246Y-65840D01*
X85246Y-65896D01*
X85228Y-65934D01*
X85209Y-65953D01*
X85171Y-65971D01*
X85021Y-65971D01*
X85415Y-65953D02*
X85546Y-65953D01*
X85603Y-66159D02*
X85415Y-66159D01*
X85415Y-65765D01*
X85603Y-65765D01*
X85996Y-66121D02*
X85978Y-66140D01*
X85921Y-66159D01*
X85884Y-66159D01*
X85828Y-66140D01*
X85790Y-66103D01*
X85771Y-66065D01*
X85753Y-65990D01*
X85753Y-65934D01*
X85771Y-65859D01*
X85790Y-65821D01*
X85828Y-65784D01*
X85884Y-65765D01*
X85921Y-65765D01*
X85978Y-65784D01*
X85996Y-65803D01*
X86146Y-66140D02*
X86203Y-66159D01*
X86296Y-66159D01*
X86334Y-66140D01*
X86353Y-66121D01*
X86371Y-66084D01*
X86371Y-66046D01*
X86353Y-66009D01*
X86334Y-65990D01*
X86296Y-65971D01*
X86221Y-65953D01*
X86184Y-65934D01*
X86165Y-65915D01*
X86146Y-65878D01*
X86146Y-65840D01*
X86165Y-65803D01*
X86184Y-65784D01*
X86221Y-65765D01*
X86315Y-65765D01*
X86371Y-65784D01*
X88143Y-73865D02*
X88237Y-74259D01*
X88312Y-73978D01*
X88387Y-74259D01*
X88481Y-73865D01*
X88612Y-73903D02*
X88631Y-73884D01*
X88668Y-73865D01*
X88762Y-73865D01*
X88799Y-73884D01*
X88818Y-73903D01*
X88837Y-73940D01*
X88837Y-73978D01*
X88818Y-74034D01*
X88593Y-74259D01*
X88837Y-74259D01*
X88143Y-65765D02*
X88237Y-66159D01*
X88312Y-65878D01*
X88387Y-66159D01*
X88481Y-65765D01*
X88837Y-66159D02*
X88612Y-66159D01*
X88724Y-66159D02*
X88724Y-65765D01*
X88687Y-65821D01*
X88649Y-65859D01*
X88612Y-65878D01*
X82621Y-74259D02*
X82490Y-74071D01*
X82396Y-74259D02*
X82396Y-73865D01*
X82546Y-73865D01*
X82584Y-73884D01*
X82603Y-73903D01*
X82621Y-73940D01*
X82621Y-73996D01*
X82603Y-74034D01*
X82584Y-74053D01*
X82546Y-74071D01*
X82396Y-74071D01*
X82621Y-66121D02*
X82603Y-66140D01*
X82546Y-66159D01*
X82509Y-66159D01*
X82453Y-66140D01*
X82415Y-66103D01*
X82396Y-66065D01*
X82378Y-65990D01*
X82378Y-65934D01*
X82396Y-65859D01*
X82415Y-65821D01*
X82453Y-65784D01*
X82509Y-65765D01*
X82546Y-65765D01*
X82603Y-65784D01*
X82621Y-65803D01*
X70200Y-57465D02*
X70200Y-57784D01*
X70218Y-57821D01*
X70237Y-57840D01*
X70275Y-57859D01*
X70350Y-57859D01*
X70387Y-57840D01*
X70406Y-57821D01*
X70425Y-57784D01*
X70425Y-57465D01*
X70818Y-57859D02*
X70593Y-57859D01*
X70706Y-57859D02*
X70706Y-57465D01*
X70668Y-57521D01*
X70631Y-57559D01*
X70593Y-57578D01*
X69628Y-57340D02*
X69684Y-57359D01*
X69778Y-57359D01*
X69815Y-57340D01*
X69834Y-57321D01*
X69853Y-57284D01*
X69853Y-57246D01*
X69834Y-57209D01*
X69815Y-57190D01*
X69778Y-57171D01*
X69703Y-57153D01*
X69665Y-57134D01*
X69646Y-57115D01*
X69628Y-57078D01*
X69628Y-57040D01*
X69646Y-57003D01*
X69665Y-56984D01*
X69703Y-56965D01*
X69796Y-56965D01*
X69853Y-56984D01*
X70021Y-57359D02*
X70021Y-56965D01*
X70171Y-56965D01*
X70209Y-56984D01*
X70228Y-57003D01*
X70246Y-57040D01*
X70246Y-57096D01*
X70228Y-57134D01*
X70209Y-57153D01*
X70171Y-57171D01*
X70021Y-57171D01*
X70415Y-57153D02*
X70546Y-57153D01*
X70603Y-57359D02*
X70415Y-57359D01*
X70415Y-56965D01*
X70603Y-56965D01*
X70996Y-57321D02*
X70978Y-57340D01*
X70921Y-57359D01*
X70884Y-57359D01*
X70828Y-57340D01*
X70790Y-57303D01*
X70771Y-57265D01*
X70753Y-57190D01*
X70753Y-57134D01*
X70771Y-57059D01*
X70790Y-57021D01*
X70828Y-56984D01*
X70884Y-56965D01*
X70921Y-56965D01*
X70978Y-56984D01*
X70996Y-57003D01*
X71146Y-57340D02*
X71203Y-57359D01*
X71296Y-57359D01*
X71334Y-57340D01*
X71353Y-57321D01*
X71371Y-57284D01*
X71371Y-57246D01*
X71353Y-57209D01*
X71334Y-57190D01*
X71296Y-57171D01*
X71221Y-57153D01*
X71184Y-57134D01*
X71165Y-57115D01*
X71146Y-57078D01*
X71146Y-57040D01*
X71165Y-57003D01*
X71184Y-56984D01*
X71221Y-56965D01*
X71315Y-56965D01*
X71371Y-56984D01*
X73043Y-65065D02*
X73137Y-65459D01*
X73212Y-65178D01*
X73287Y-65459D01*
X73381Y-65065D01*
X73512Y-65103D02*
X73531Y-65084D01*
X73568Y-65065D01*
X73662Y-65065D01*
X73699Y-65084D01*
X73718Y-65103D01*
X73737Y-65140D01*
X73737Y-65178D01*
X73718Y-65234D01*
X73493Y-65459D01*
X73737Y-65459D01*
X73143Y-56965D02*
X73237Y-57359D01*
X73312Y-57078D01*
X73387Y-57359D01*
X73481Y-56965D01*
X73837Y-57359D02*
X73612Y-57359D01*
X73724Y-57359D02*
X73724Y-56965D01*
X73687Y-57021D01*
X73649Y-57059D01*
X73612Y-57078D01*
X67621Y-65459D02*
X67490Y-65271D01*
X67396Y-65459D02*
X67396Y-65065D01*
X67546Y-65065D01*
X67584Y-65084D01*
X67603Y-65103D01*
X67621Y-65140D01*
X67621Y-65196D01*
X67603Y-65234D01*
X67584Y-65253D01*
X67546Y-65271D01*
X67396Y-65271D01*
X67621Y-57321D02*
X67603Y-57340D01*
X67546Y-57359D01*
X67509Y-57359D01*
X67453Y-57340D01*
X67415Y-57303D01*
X67396Y-57265D01*
X67378Y-57190D01*
X67378Y-57134D01*
X67396Y-57059D01*
X67415Y-57021D01*
X67453Y-56984D01*
X67509Y-56965D01*
X67546Y-56965D01*
X67603Y-56984D01*
X67621Y-57003D01*
X85200Y-57465D02*
X85200Y-57784D01*
X85218Y-57821D01*
X85237Y-57840D01*
X85275Y-57859D01*
X85350Y-57859D01*
X85387Y-57840D01*
X85406Y-57821D01*
X85425Y-57784D01*
X85425Y-57465D01*
X85593Y-57503D02*
X85612Y-57484D01*
X85649Y-57465D01*
X85743Y-57465D01*
X85781Y-57484D01*
X85799Y-57503D01*
X85818Y-57540D01*
X85818Y-57578D01*
X85799Y-57634D01*
X85574Y-57859D01*
X85818Y-57859D01*
X84628Y-57340D02*
X84684Y-57359D01*
X84778Y-57359D01*
X84815Y-57340D01*
X84834Y-57321D01*
X84853Y-57284D01*
X84853Y-57246D01*
X84834Y-57209D01*
X84815Y-57190D01*
X84778Y-57171D01*
X84703Y-57153D01*
X84665Y-57134D01*
X84646Y-57115D01*
X84628Y-57078D01*
X84628Y-57040D01*
X84646Y-57003D01*
X84665Y-56984D01*
X84703Y-56965D01*
X84796Y-56965D01*
X84853Y-56984D01*
X85021Y-57359D02*
X85021Y-56965D01*
X85171Y-56965D01*
X85209Y-56984D01*
X85228Y-57003D01*
X85246Y-57040D01*
X85246Y-57096D01*
X85228Y-57134D01*
X85209Y-57153D01*
X85171Y-57171D01*
X85021Y-57171D01*
X85415Y-57153D02*
X85546Y-57153D01*
X85603Y-57359D02*
X85415Y-57359D01*
X85415Y-56965D01*
X85603Y-56965D01*
X85996Y-57321D02*
X85978Y-57340D01*
X85921Y-57359D01*
X85884Y-57359D01*
X85828Y-57340D01*
X85790Y-57303D01*
X85771Y-57265D01*
X85753Y-57190D01*
X85753Y-57134D01*
X85771Y-57059D01*
X85790Y-57021D01*
X85828Y-56984D01*
X85884Y-56965D01*
X85921Y-56965D01*
X85978Y-56984D01*
X85996Y-57003D01*
X86146Y-57340D02*
X86203Y-57359D01*
X86296Y-57359D01*
X86334Y-57340D01*
X86353Y-57321D01*
X86371Y-57284D01*
X86371Y-57246D01*
X86353Y-57209D01*
X86334Y-57190D01*
X86296Y-57171D01*
X86221Y-57153D01*
X86184Y-57134D01*
X86165Y-57115D01*
X86146Y-57078D01*
X86146Y-57040D01*
X86165Y-57003D01*
X86184Y-56984D01*
X86221Y-56965D01*
X86315Y-56965D01*
X86371Y-56984D01*
X88143Y-65065D02*
X88237Y-65459D01*
X88312Y-65178D01*
X88387Y-65459D01*
X88481Y-65065D01*
X88612Y-65103D02*
X88631Y-65084D01*
X88668Y-65065D01*
X88762Y-65065D01*
X88799Y-65084D01*
X88818Y-65103D01*
X88837Y-65140D01*
X88837Y-65178D01*
X88818Y-65234D01*
X88593Y-65459D01*
X88837Y-65459D01*
X88143Y-56965D02*
X88237Y-57359D01*
X88312Y-57078D01*
X88387Y-57359D01*
X88481Y-56965D01*
X88837Y-57359D02*
X88612Y-57359D01*
X88724Y-57359D02*
X88724Y-56965D01*
X88687Y-57021D01*
X88649Y-57059D01*
X88612Y-57078D01*
X82621Y-65459D02*
X82490Y-65271D01*
X82396Y-65459D02*
X82396Y-65065D01*
X82546Y-65065D01*
X82584Y-65084D01*
X82603Y-65103D01*
X82621Y-65140D01*
X82621Y-65196D01*
X82603Y-65234D01*
X82584Y-65253D01*
X82546Y-65271D01*
X82396Y-65271D01*
X82621Y-57321D02*
X82603Y-57340D01*
X82546Y-57359D01*
X82509Y-57359D01*
X82453Y-57340D01*
X82415Y-57303D01*
X82396Y-57265D01*
X82378Y-57190D01*
X82378Y-57134D01*
X82396Y-57059D01*
X82415Y-57021D01*
X82453Y-56984D01*
X82509Y-56965D01*
X82546Y-56965D01*
X82603Y-56984D01*
X82621Y-57003D01*
X70200Y-66265D02*
X70200Y-66584D01*
X70218Y-66621D01*
X70237Y-66640D01*
X70275Y-66659D01*
X70350Y-66659D01*
X70387Y-66640D01*
X70406Y-66621D01*
X70425Y-66584D01*
X70425Y-66265D01*
X70574Y-66265D02*
X70818Y-66265D01*
X70687Y-66415D01*
X70743Y-66415D01*
X70781Y-66434D01*
X70799Y-66453D01*
X70818Y-66490D01*
X70818Y-66584D01*
X70799Y-66621D01*
X70781Y-66640D01*
X70743Y-66659D01*
X70631Y-66659D01*
X70593Y-66640D01*
X70574Y-66621D01*
X69628Y-66140D02*
X69684Y-66159D01*
X69778Y-66159D01*
X69815Y-66140D01*
X69834Y-66121D01*
X69853Y-66084D01*
X69853Y-66046D01*
X69834Y-66009D01*
X69815Y-65990D01*
X69778Y-65971D01*
X69703Y-65953D01*
X69665Y-65934D01*
X69646Y-65915D01*
X69628Y-65878D01*
X69628Y-65840D01*
X69646Y-65803D01*
X69665Y-65784D01*
X69703Y-65765D01*
X69796Y-65765D01*
X69853Y-65784D01*
X70021Y-66159D02*
X70021Y-65765D01*
X70171Y-65765D01*
X70209Y-65784D01*
X70228Y-65803D01*
X70246Y-65840D01*
X70246Y-65896D01*
X70228Y-65934D01*
X70209Y-65953D01*
X70171Y-65971D01*
X70021Y-65971D01*
X70415Y-65953D02*
X70546Y-65953D01*
X70603Y-66159D02*
X70415Y-66159D01*
X70415Y-65765D01*
X70603Y-65765D01*
X70996Y-66121D02*
X70978Y-66140D01*
X70921Y-66159D01*
X70884Y-66159D01*
X70828Y-66140D01*
X70790Y-66103D01*
X70771Y-66065D01*
X70753Y-65990D01*
X70753Y-65934D01*
X70771Y-65859D01*
X70790Y-65821D01*
X70828Y-65784D01*
X70884Y-65765D01*
X70921Y-65765D01*
X70978Y-65784D01*
X70996Y-65803D01*
X71146Y-66140D02*
X71203Y-66159D01*
X71296Y-66159D01*
X71334Y-66140D01*
X71353Y-66121D01*
X71371Y-66084D01*
X71371Y-66046D01*
X71353Y-66009D01*
X71334Y-65990D01*
X71296Y-65971D01*
X71221Y-65953D01*
X71184Y-65934D01*
X71165Y-65915D01*
X71146Y-65878D01*
X71146Y-65840D01*
X71165Y-65803D01*
X71184Y-65784D01*
X71221Y-65765D01*
X71315Y-65765D01*
X71371Y-65784D01*
X73243Y-73865D02*
X73337Y-74259D01*
X73412Y-73978D01*
X73487Y-74259D01*
X73581Y-73865D01*
X73712Y-73903D02*
X73731Y-73884D01*
X73768Y-73865D01*
X73862Y-73865D01*
X73899Y-73884D01*
X73918Y-73903D01*
X73937Y-73940D01*
X73937Y-73978D01*
X73918Y-74034D01*
X73693Y-74259D01*
X73937Y-74259D01*
X73143Y-65765D02*
X73237Y-66159D01*
X73312Y-65878D01*
X73387Y-66159D01*
X73481Y-65765D01*
X73837Y-66159D02*
X73612Y-66159D01*
X73724Y-66159D02*
X73724Y-65765D01*
X73687Y-65821D01*
X73649Y-65859D01*
X73612Y-65878D01*
X67621Y-74259D02*
X67490Y-74071D01*
X67396Y-74259D02*
X67396Y-73865D01*
X67546Y-73865D01*
X67584Y-73884D01*
X67603Y-73903D01*
X67621Y-73940D01*
X67621Y-73996D01*
X67603Y-74034D01*
X67584Y-74053D01*
X67546Y-74071D01*
X67396Y-74071D01*
X67621Y-66121D02*
X67603Y-66140D01*
X67546Y-66159D01*
X67509Y-66159D01*
X67453Y-66140D01*
X67415Y-66103D01*
X67396Y-66065D01*
X67378Y-65990D01*
X67378Y-65934D01*
X67396Y-65859D01*
X67415Y-65821D01*
X67453Y-65784D01*
X67509Y-65765D01*
X67546Y-65765D01*
X67603Y-65784D01*
X67621Y-65803D01*
G54D11*
X80621Y-65964D02*
X80321Y-65964D01*
X80321Y-65850D01*
X80335Y-65821D01*
X80350Y-65807D01*
X80378Y-65792D01*
X80421Y-65792D01*
X80450Y-65807D01*
X80464Y-65821D01*
X80478Y-65850D01*
X80478Y-65964D01*
X80621Y-65507D02*
X80621Y-65678D01*
X80621Y-65592D02*
X80321Y-65592D01*
X80364Y-65621D01*
X80392Y-65650D01*
X80407Y-65678D01*
X80321Y-65321D02*
X80321Y-65292D01*
X80335Y-65264D01*
X80350Y-65250D01*
X80378Y-65235D01*
X80435Y-65221D01*
X80507Y-65221D01*
X80564Y-65235D01*
X80592Y-65250D01*
X80607Y-65264D01*
X80621Y-65292D01*
X80621Y-65321D01*
X80607Y-65350D01*
X80592Y-65364D01*
X80564Y-65378D01*
X80507Y-65392D01*
X80435Y-65392D01*
X80378Y-65378D01*
X80350Y-65364D01*
X80335Y-65350D01*
X80321Y-65321D01*
X80621Y-71921D02*
X80321Y-71921D01*
X80321Y-71807D01*
X80335Y-71778D01*
X80350Y-71764D01*
X80378Y-71750D01*
X80421Y-71750D01*
X80450Y-71764D01*
X80464Y-71778D01*
X80478Y-71807D01*
X80478Y-71921D01*
X80450Y-71578D02*
X80435Y-71607D01*
X80421Y-71621D01*
X80392Y-71635D01*
X80378Y-71635D01*
X80350Y-71621D01*
X80335Y-71607D01*
X80321Y-71578D01*
X80321Y-71521D01*
X80335Y-71492D01*
X80350Y-71478D01*
X80378Y-71464D01*
X80392Y-71464D01*
X80421Y-71478D01*
X80435Y-71492D01*
X80450Y-71521D01*
X80450Y-71578D01*
X80464Y-71607D01*
X80478Y-71621D01*
X80507Y-71635D01*
X80564Y-71635D01*
X80592Y-71621D01*
X80607Y-71607D01*
X80621Y-71578D01*
X80621Y-71521D01*
X80607Y-71492D01*
X80592Y-71478D01*
X80564Y-71464D01*
X80507Y-71464D01*
X80478Y-71478D01*
X80464Y-71492D01*
X80450Y-71521D01*
X80621Y-68864D02*
X80321Y-68864D01*
X80321Y-68750D01*
X80335Y-68721D01*
X80350Y-68707D01*
X80378Y-68692D01*
X80421Y-68692D01*
X80450Y-68707D01*
X80464Y-68721D01*
X80478Y-68750D01*
X80478Y-68864D01*
X80621Y-68407D02*
X80621Y-68578D01*
X80621Y-68492D02*
X80321Y-68492D01*
X80364Y-68521D01*
X80392Y-68550D01*
X80407Y-68578D01*
X80350Y-68292D02*
X80335Y-68278D01*
X80321Y-68250D01*
X80321Y-68178D01*
X80335Y-68150D01*
X80350Y-68135D01*
X80378Y-68121D01*
X80407Y-68121D01*
X80450Y-68135D01*
X80621Y-68307D01*
X80621Y-68121D01*
X65621Y-68864D02*
X65321Y-68864D01*
X65321Y-68750D01*
X65335Y-68721D01*
X65350Y-68707D01*
X65378Y-68692D01*
X65421Y-68692D01*
X65450Y-68707D01*
X65464Y-68721D01*
X65478Y-68750D01*
X65478Y-68864D01*
X65621Y-68407D02*
X65621Y-68578D01*
X65621Y-68492D02*
X65321Y-68492D01*
X65364Y-68521D01*
X65392Y-68550D01*
X65407Y-68578D01*
X65621Y-68121D02*
X65621Y-68292D01*
X65621Y-68207D02*
X65321Y-68207D01*
X65364Y-68235D01*
X65392Y-68264D01*
X65407Y-68292D01*
X65621Y-65921D02*
X65321Y-65921D01*
X65321Y-65807D01*
X65335Y-65778D01*
X65350Y-65764D01*
X65378Y-65750D01*
X65421Y-65750D01*
X65450Y-65764D01*
X65464Y-65778D01*
X65478Y-65807D01*
X65478Y-65921D01*
X65621Y-65607D02*
X65621Y-65550D01*
X65607Y-65521D01*
X65592Y-65507D01*
X65550Y-65478D01*
X65492Y-65464D01*
X65378Y-65464D01*
X65350Y-65478D01*
X65335Y-65492D01*
X65321Y-65521D01*
X65321Y-65578D01*
X65335Y-65607D01*
X65350Y-65621D01*
X65378Y-65635D01*
X65450Y-65635D01*
X65478Y-65621D01*
X65492Y-65607D01*
X65507Y-65578D01*
X65507Y-65521D01*
X65492Y-65492D01*
X65478Y-65478D01*
X65450Y-65464D01*
X65621Y-71921D02*
X65321Y-71921D01*
X65321Y-71807D01*
X65335Y-71778D01*
X65350Y-71764D01*
X65378Y-71750D01*
X65421Y-71750D01*
X65450Y-71764D01*
X65464Y-71778D01*
X65478Y-71807D01*
X65478Y-71921D01*
X65321Y-71650D02*
X65321Y-71450D01*
X65621Y-71578D01*
X80621Y-60121D02*
X80321Y-60121D01*
X80321Y-60007D01*
X80335Y-59978D01*
X80350Y-59964D01*
X80378Y-59950D01*
X80421Y-59950D01*
X80450Y-59964D01*
X80464Y-59978D01*
X80478Y-60007D01*
X80478Y-60121D01*
X80321Y-59692D02*
X80321Y-59750D01*
X80335Y-59778D01*
X80350Y-59792D01*
X80392Y-59821D01*
X80450Y-59835D01*
X80564Y-59835D01*
X80592Y-59821D01*
X80607Y-59807D01*
X80621Y-59778D01*
X80621Y-59721D01*
X80607Y-59692D01*
X80592Y-59678D01*
X80564Y-59664D01*
X80492Y-59664D01*
X80464Y-59678D01*
X80450Y-59692D01*
X80435Y-59721D01*
X80435Y-59778D01*
X80450Y-59807D01*
X80464Y-59821D01*
X80492Y-59835D01*
X80621Y-57121D02*
X80321Y-57121D01*
X80321Y-57007D01*
X80335Y-56978D01*
X80350Y-56964D01*
X80378Y-56950D01*
X80421Y-56950D01*
X80450Y-56964D01*
X80464Y-56978D01*
X80478Y-57007D01*
X80478Y-57121D01*
X80421Y-56692D02*
X80621Y-56692D01*
X80307Y-56764D02*
X80521Y-56835D01*
X80521Y-56650D01*
X80621Y-63121D02*
X80321Y-63121D01*
X80321Y-63007D01*
X80335Y-62978D01*
X80350Y-62964D01*
X80378Y-62950D01*
X80421Y-62950D01*
X80450Y-62964D01*
X80464Y-62978D01*
X80478Y-63007D01*
X80478Y-63121D01*
X80350Y-62835D02*
X80335Y-62821D01*
X80321Y-62792D01*
X80321Y-62721D01*
X80335Y-62692D01*
X80350Y-62678D01*
X80378Y-62664D01*
X80407Y-62664D01*
X80450Y-62678D01*
X80621Y-62850D01*
X80621Y-62664D01*
X65621Y-60121D02*
X65321Y-60121D01*
X65321Y-60007D01*
X65335Y-59978D01*
X65350Y-59964D01*
X65378Y-59950D01*
X65421Y-59950D01*
X65450Y-59964D01*
X65464Y-59978D01*
X65478Y-60007D01*
X65478Y-60121D01*
X65321Y-59678D02*
X65321Y-59821D01*
X65464Y-59835D01*
X65450Y-59821D01*
X65435Y-59792D01*
X65435Y-59721D01*
X65450Y-59692D01*
X65464Y-59678D01*
X65492Y-59664D01*
X65564Y-59664D01*
X65592Y-59678D01*
X65607Y-59692D01*
X65621Y-59721D01*
X65621Y-59792D01*
X65607Y-59821D01*
X65592Y-59835D01*
X65621Y-57121D02*
X65321Y-57121D01*
X65321Y-57007D01*
X65335Y-56978D01*
X65350Y-56964D01*
X65378Y-56950D01*
X65421Y-56950D01*
X65450Y-56964D01*
X65464Y-56978D01*
X65478Y-57007D01*
X65478Y-57121D01*
X65321Y-56850D02*
X65321Y-56664D01*
X65435Y-56764D01*
X65435Y-56721D01*
X65450Y-56692D01*
X65464Y-56678D01*
X65492Y-56664D01*
X65564Y-56664D01*
X65592Y-56678D01*
X65607Y-56692D01*
X65621Y-56721D01*
X65621Y-56807D01*
X65607Y-56835D01*
X65592Y-56850D01*
X65621Y-63121D02*
X65321Y-63121D01*
X65321Y-63007D01*
X65335Y-62978D01*
X65350Y-62964D01*
X65378Y-62950D01*
X65421Y-62950D01*
X65450Y-62964D01*
X65464Y-62978D01*
X65478Y-63007D01*
X65478Y-63121D01*
X65621Y-62664D02*
X65621Y-62835D01*
X65621Y-62750D02*
X65321Y-62750D01*
X65364Y-62778D01*
X65392Y-62807D01*
X65407Y-62835D01*
G54D15*
X77784Y-68280D02*
X77724Y-68185D01*
X77681Y-68280D02*
X77681Y-68080D01*
X77750Y-68080D01*
X77767Y-68090D01*
X77775Y-68100D01*
X77784Y-68119D01*
X77784Y-68147D01*
X77775Y-68166D01*
X77767Y-68176D01*
X77750Y-68185D01*
X77681Y-68185D01*
X77955Y-68280D02*
X77852Y-68280D01*
X77904Y-68280D02*
X77904Y-68080D01*
X77887Y-68109D01*
X77870Y-68128D01*
X77852Y-68138D01*
X78041Y-68280D02*
X78075Y-68280D01*
X78092Y-68271D01*
X78101Y-68261D01*
X78118Y-68233D01*
X78127Y-68195D01*
X78127Y-68119D01*
X78118Y-68100D01*
X78110Y-68090D01*
X78092Y-68080D01*
X78058Y-68080D01*
X78041Y-68090D01*
X78032Y-68100D01*
X78024Y-68119D01*
X78024Y-68166D01*
X78032Y-68185D01*
X78041Y-68195D01*
X78058Y-68204D01*
X78092Y-68204D01*
X78110Y-68195D01*
X78118Y-68185D01*
X78127Y-68166D01*
X77870Y-62980D02*
X77810Y-62885D01*
X77767Y-62980D02*
X77767Y-62780D01*
X77835Y-62780D01*
X77852Y-62790D01*
X77861Y-62800D01*
X77870Y-62819D01*
X77870Y-62847D01*
X77861Y-62866D01*
X77852Y-62876D01*
X77835Y-62885D01*
X77767Y-62885D01*
X77955Y-62980D02*
X77990Y-62980D01*
X78007Y-62971D01*
X78015Y-62961D01*
X78032Y-62933D01*
X78041Y-62895D01*
X78041Y-62819D01*
X78032Y-62800D01*
X78024Y-62790D01*
X78007Y-62780D01*
X77972Y-62780D01*
X77955Y-62790D01*
X77947Y-62800D01*
X77938Y-62819D01*
X77938Y-62866D01*
X77947Y-62885D01*
X77955Y-62895D01*
X77972Y-62904D01*
X78007Y-62904D01*
X78024Y-62895D01*
X78032Y-62885D01*
X78041Y-62866D01*
X77784Y-63680D02*
X77724Y-63585D01*
X77681Y-63680D02*
X77681Y-63480D01*
X77750Y-63480D01*
X77767Y-63490D01*
X77775Y-63500D01*
X77784Y-63519D01*
X77784Y-63547D01*
X77775Y-63566D01*
X77767Y-63576D01*
X77750Y-63585D01*
X77681Y-63585D01*
X77955Y-63680D02*
X77852Y-63680D01*
X77904Y-63680D02*
X77904Y-63480D01*
X77887Y-63509D01*
X77870Y-63528D01*
X77852Y-63538D01*
X78067Y-63480D02*
X78084Y-63480D01*
X78101Y-63490D01*
X78110Y-63500D01*
X78118Y-63519D01*
X78127Y-63557D01*
X78127Y-63604D01*
X78118Y-63642D01*
X78110Y-63661D01*
X78101Y-63671D01*
X78084Y-63680D01*
X78067Y-63680D01*
X78050Y-63671D01*
X78041Y-63661D01*
X78032Y-63642D01*
X78024Y-63604D01*
X78024Y-63557D01*
X78032Y-63519D01*
X78041Y-63500D01*
X78050Y-63490D01*
X78067Y-63480D01*
X74784Y-67580D02*
X74724Y-67485D01*
X74681Y-67580D02*
X74681Y-67380D01*
X74750Y-67380D01*
X74767Y-67390D01*
X74775Y-67400D01*
X74784Y-67419D01*
X74784Y-67447D01*
X74775Y-67466D01*
X74767Y-67476D01*
X74750Y-67485D01*
X74681Y-67485D01*
X74955Y-67580D02*
X74852Y-67580D01*
X74904Y-67580D02*
X74904Y-67380D01*
X74887Y-67409D01*
X74870Y-67428D01*
X74852Y-67438D01*
X75118Y-67380D02*
X75032Y-67380D01*
X75024Y-67476D01*
X75032Y-67466D01*
X75050Y-67457D01*
X75092Y-67457D01*
X75110Y-67466D01*
X75118Y-67476D01*
X75127Y-67495D01*
X75127Y-67542D01*
X75118Y-67561D01*
X75110Y-67571D01*
X75092Y-67580D01*
X75050Y-67580D01*
X75032Y-67571D01*
X75024Y-67561D01*
X76284Y-68380D02*
X76224Y-68285D01*
X76181Y-68380D02*
X76181Y-68180D01*
X76250Y-68180D01*
X76267Y-68190D01*
X76275Y-68200D01*
X76284Y-68219D01*
X76284Y-68247D01*
X76275Y-68266D01*
X76267Y-68276D01*
X76250Y-68285D01*
X76181Y-68285D01*
X76455Y-68380D02*
X76352Y-68380D01*
X76404Y-68380D02*
X76404Y-68180D01*
X76387Y-68209D01*
X76370Y-68228D01*
X76352Y-68238D01*
X76515Y-68180D02*
X76635Y-68180D01*
X76558Y-68380D01*
X76370Y-67661D02*
X76361Y-67671D01*
X76335Y-67680D01*
X76318Y-67680D01*
X76292Y-67671D01*
X76275Y-67652D01*
X76267Y-67633D01*
X76258Y-67595D01*
X76258Y-67566D01*
X76267Y-67528D01*
X76275Y-67509D01*
X76292Y-67490D01*
X76318Y-67480D01*
X76335Y-67480D01*
X76361Y-67490D01*
X76370Y-67500D01*
X76524Y-67480D02*
X76490Y-67480D01*
X76472Y-67490D01*
X76464Y-67500D01*
X76447Y-67528D01*
X76438Y-67566D01*
X76438Y-67642D01*
X76447Y-67661D01*
X76455Y-67671D01*
X76472Y-67680D01*
X76507Y-67680D01*
X76524Y-67671D01*
X76532Y-67661D01*
X76541Y-67642D01*
X76541Y-67595D01*
X76532Y-67576D01*
X76524Y-67566D01*
X76507Y-67557D01*
X76472Y-67557D01*
X76455Y-67566D01*
X76447Y-67576D01*
X76438Y-67595D01*
X74784Y-66580D02*
X74724Y-66485D01*
X74681Y-66580D02*
X74681Y-66380D01*
X74750Y-66380D01*
X74767Y-66390D01*
X74775Y-66400D01*
X74784Y-66419D01*
X74784Y-66447D01*
X74775Y-66466D01*
X74767Y-66476D01*
X74750Y-66485D01*
X74681Y-66485D01*
X74852Y-66400D02*
X74861Y-66390D01*
X74878Y-66380D01*
X74921Y-66380D01*
X74938Y-66390D01*
X74947Y-66400D01*
X74955Y-66419D01*
X74955Y-66438D01*
X74947Y-66466D01*
X74844Y-66580D01*
X74955Y-66580D01*
X75118Y-66380D02*
X75032Y-66380D01*
X75024Y-66476D01*
X75032Y-66466D01*
X75050Y-66457D01*
X75092Y-66457D01*
X75110Y-66466D01*
X75118Y-66476D01*
X75127Y-66495D01*
X75127Y-66542D01*
X75118Y-66561D01*
X75110Y-66571D01*
X75092Y-66580D01*
X75050Y-66580D01*
X75032Y-66571D01*
X75024Y-66561D01*
X77784Y-66880D02*
X77724Y-66785D01*
X77681Y-66880D02*
X77681Y-66680D01*
X77750Y-66680D01*
X77767Y-66690D01*
X77775Y-66700D01*
X77784Y-66719D01*
X77784Y-66747D01*
X77775Y-66766D01*
X77767Y-66776D01*
X77750Y-66785D01*
X77681Y-66785D01*
X77852Y-66700D02*
X77861Y-66690D01*
X77878Y-66680D01*
X77921Y-66680D01*
X77938Y-66690D01*
X77947Y-66700D01*
X77955Y-66719D01*
X77955Y-66738D01*
X77947Y-66766D01*
X77844Y-66880D01*
X77955Y-66880D01*
X78127Y-66880D02*
X78024Y-66880D01*
X78075Y-66880D02*
X78075Y-66680D01*
X78058Y-66709D01*
X78041Y-66728D01*
X78024Y-66738D01*
X77784Y-67580D02*
X77724Y-67485D01*
X77681Y-67580D02*
X77681Y-67380D01*
X77750Y-67380D01*
X77767Y-67390D01*
X77775Y-67400D01*
X77784Y-67419D01*
X77784Y-67447D01*
X77775Y-67466D01*
X77767Y-67476D01*
X77750Y-67485D01*
X77681Y-67485D01*
X77852Y-67400D02*
X77861Y-67390D01*
X77878Y-67380D01*
X77921Y-67380D01*
X77938Y-67390D01*
X77947Y-67400D01*
X77955Y-67419D01*
X77955Y-67438D01*
X77947Y-67466D01*
X77844Y-67580D01*
X77955Y-67580D01*
X78067Y-67380D02*
X78084Y-67380D01*
X78101Y-67390D01*
X78110Y-67400D01*
X78118Y-67419D01*
X78127Y-67457D01*
X78127Y-67504D01*
X78118Y-67542D01*
X78110Y-67561D01*
X78101Y-67571D01*
X78084Y-67580D01*
X78067Y-67580D01*
X78050Y-67571D01*
X78041Y-67561D01*
X78032Y-67542D01*
X78024Y-67504D01*
X78024Y-67457D01*
X78032Y-67419D01*
X78041Y-67400D01*
X78050Y-67390D01*
X78067Y-67380D01*
X77870Y-62280D02*
X77810Y-62185D01*
X77767Y-62280D02*
X77767Y-62080D01*
X77835Y-62080D01*
X77852Y-62090D01*
X77861Y-62100D01*
X77870Y-62119D01*
X77870Y-62147D01*
X77861Y-62166D01*
X77852Y-62176D01*
X77835Y-62185D01*
X77767Y-62185D01*
X77972Y-62166D02*
X77955Y-62157D01*
X77947Y-62147D01*
X77938Y-62128D01*
X77938Y-62119D01*
X77947Y-62100D01*
X77955Y-62090D01*
X77972Y-62080D01*
X78007Y-62080D01*
X78024Y-62090D01*
X78032Y-62100D01*
X78041Y-62119D01*
X78041Y-62128D01*
X78032Y-62147D01*
X78024Y-62157D01*
X78007Y-62166D01*
X77972Y-62166D01*
X77955Y-62176D01*
X77947Y-62185D01*
X77938Y-62204D01*
X77938Y-62242D01*
X77947Y-62261D01*
X77955Y-62271D01*
X77972Y-62280D01*
X78007Y-62280D01*
X78024Y-62271D01*
X78032Y-62261D01*
X78041Y-62242D01*
X78041Y-62204D01*
X78032Y-62185D01*
X78024Y-62176D01*
X78007Y-62166D01*
X79284Y-66580D02*
X79224Y-66485D01*
X79181Y-66580D02*
X79181Y-66380D01*
X79250Y-66380D01*
X79267Y-66390D01*
X79275Y-66400D01*
X79284Y-66419D01*
X79284Y-66447D01*
X79275Y-66466D01*
X79267Y-66476D01*
X79250Y-66485D01*
X79181Y-66485D01*
X79455Y-66580D02*
X79352Y-66580D01*
X79404Y-66580D02*
X79404Y-66380D01*
X79387Y-66409D01*
X79370Y-66428D01*
X79352Y-66438D01*
X79610Y-66380D02*
X79575Y-66380D01*
X79558Y-66390D01*
X79550Y-66400D01*
X79532Y-66428D01*
X79524Y-66466D01*
X79524Y-66542D01*
X79532Y-66561D01*
X79541Y-66571D01*
X79558Y-66580D01*
X79592Y-66580D01*
X79610Y-66571D01*
X79618Y-66561D01*
X79627Y-66542D01*
X79627Y-66495D01*
X79618Y-66476D01*
X79610Y-66466D01*
X79592Y-66457D01*
X79558Y-66457D01*
X79541Y-66466D01*
X79532Y-66476D01*
X79524Y-66495D01*
X76284Y-70980D02*
X76224Y-70885D01*
X76181Y-70980D02*
X76181Y-70780D01*
X76250Y-70780D01*
X76267Y-70790D01*
X76275Y-70800D01*
X76284Y-70819D01*
X76284Y-70847D01*
X76275Y-70866D01*
X76267Y-70876D01*
X76250Y-70885D01*
X76181Y-70885D01*
X76455Y-70980D02*
X76352Y-70980D01*
X76404Y-70980D02*
X76404Y-70780D01*
X76387Y-70809D01*
X76370Y-70828D01*
X76352Y-70838D01*
X76558Y-70866D02*
X76541Y-70857D01*
X76532Y-70847D01*
X76524Y-70828D01*
X76524Y-70819D01*
X76532Y-70800D01*
X76541Y-70790D01*
X76558Y-70780D01*
X76592Y-70780D01*
X76610Y-70790D01*
X76618Y-70800D01*
X76627Y-70819D01*
X76627Y-70828D01*
X76618Y-70847D01*
X76610Y-70857D01*
X76592Y-70866D01*
X76558Y-70866D01*
X76541Y-70876D01*
X76532Y-70885D01*
X76524Y-70904D01*
X76524Y-70942D01*
X76532Y-70961D01*
X76541Y-70971D01*
X76558Y-70980D01*
X76592Y-70980D01*
X76610Y-70971D01*
X76618Y-70961D01*
X76627Y-70942D01*
X76627Y-70904D01*
X76618Y-70885D01*
X76610Y-70876D01*
X76592Y-70866D01*
X76370Y-71661D02*
X76361Y-71671D01*
X76335Y-71680D01*
X76318Y-71680D01*
X76292Y-71671D01*
X76275Y-71652D01*
X76267Y-71633D01*
X76258Y-71595D01*
X76258Y-71566D01*
X76267Y-71528D01*
X76275Y-71509D01*
X76292Y-71490D01*
X76318Y-71480D01*
X76335Y-71480D01*
X76361Y-71490D01*
X76370Y-71500D01*
X76430Y-71480D02*
X76550Y-71480D01*
X76472Y-71680D01*
X79284Y-67580D02*
X79224Y-67485D01*
X79181Y-67580D02*
X79181Y-67380D01*
X79250Y-67380D01*
X79267Y-67390D01*
X79275Y-67400D01*
X79284Y-67419D01*
X79284Y-67447D01*
X79275Y-67466D01*
X79267Y-67476D01*
X79250Y-67485D01*
X79181Y-67485D01*
X79352Y-67400D02*
X79361Y-67390D01*
X79378Y-67380D01*
X79421Y-67380D01*
X79438Y-67390D01*
X79447Y-67400D01*
X79455Y-67419D01*
X79455Y-67438D01*
X79447Y-67466D01*
X79344Y-67580D01*
X79455Y-67580D01*
X79610Y-67380D02*
X79575Y-67380D01*
X79558Y-67390D01*
X79550Y-67400D01*
X79532Y-67428D01*
X79524Y-67466D01*
X79524Y-67542D01*
X79532Y-67561D01*
X79541Y-67571D01*
X79558Y-67580D01*
X79592Y-67580D01*
X79610Y-67571D01*
X79618Y-67561D01*
X79627Y-67542D01*
X79627Y-67495D01*
X79618Y-67476D01*
X79610Y-67466D01*
X79592Y-67457D01*
X79558Y-67457D01*
X79541Y-67466D01*
X79532Y-67476D01*
X79524Y-67495D01*
X77784Y-72480D02*
X77724Y-72385D01*
X77681Y-72480D02*
X77681Y-72280D01*
X77750Y-72280D01*
X77767Y-72290D01*
X77775Y-72300D01*
X77784Y-72319D01*
X77784Y-72347D01*
X77775Y-72366D01*
X77767Y-72376D01*
X77750Y-72385D01*
X77681Y-72385D01*
X77852Y-72300D02*
X77861Y-72290D01*
X77878Y-72280D01*
X77921Y-72280D01*
X77938Y-72290D01*
X77947Y-72300D01*
X77955Y-72319D01*
X77955Y-72338D01*
X77947Y-72366D01*
X77844Y-72480D01*
X77955Y-72480D01*
X78024Y-72300D02*
X78032Y-72290D01*
X78050Y-72280D01*
X78092Y-72280D01*
X78110Y-72290D01*
X78118Y-72300D01*
X78127Y-72319D01*
X78127Y-72338D01*
X78118Y-72366D01*
X78015Y-72480D01*
X78127Y-72480D01*
X77784Y-71780D02*
X77724Y-71685D01*
X77681Y-71780D02*
X77681Y-71580D01*
X77750Y-71580D01*
X77767Y-71590D01*
X77775Y-71600D01*
X77784Y-71619D01*
X77784Y-71647D01*
X77775Y-71666D01*
X77767Y-71676D01*
X77750Y-71685D01*
X77681Y-71685D01*
X77852Y-71600D02*
X77861Y-71590D01*
X77878Y-71580D01*
X77921Y-71580D01*
X77938Y-71590D01*
X77947Y-71600D01*
X77955Y-71619D01*
X77955Y-71638D01*
X77947Y-71666D01*
X77844Y-71780D01*
X77955Y-71780D01*
X78015Y-71580D02*
X78127Y-71580D01*
X78067Y-71657D01*
X78092Y-71657D01*
X78110Y-71666D01*
X78118Y-71676D01*
X78127Y-71695D01*
X78127Y-71742D01*
X78118Y-71761D01*
X78110Y-71771D01*
X78092Y-71780D01*
X78041Y-71780D01*
X78024Y-71771D01*
X78015Y-71761D01*
X77784Y-71080D02*
X77724Y-70985D01*
X77681Y-71080D02*
X77681Y-70880D01*
X77750Y-70880D01*
X77767Y-70890D01*
X77775Y-70900D01*
X77784Y-70919D01*
X77784Y-70947D01*
X77775Y-70966D01*
X77767Y-70976D01*
X77750Y-70985D01*
X77681Y-70985D01*
X77852Y-70900D02*
X77861Y-70890D01*
X77878Y-70880D01*
X77921Y-70880D01*
X77938Y-70890D01*
X77947Y-70900D01*
X77955Y-70919D01*
X77955Y-70938D01*
X77947Y-70966D01*
X77844Y-71080D01*
X77955Y-71080D01*
X78110Y-70947D02*
X78110Y-71080D01*
X78067Y-70871D02*
X78024Y-71014D01*
X78135Y-71014D01*
X74970Y-60861D02*
X74961Y-60871D01*
X74935Y-60880D01*
X74918Y-60880D01*
X74892Y-60871D01*
X74875Y-60852D01*
X74867Y-60833D01*
X74858Y-60795D01*
X74858Y-60766D01*
X74867Y-60728D01*
X74875Y-60709D01*
X74892Y-60690D01*
X74918Y-60680D01*
X74935Y-60680D01*
X74961Y-60690D01*
X74970Y-60700D01*
X75141Y-60880D02*
X75038Y-60880D01*
X75090Y-60880D02*
X75090Y-60680D01*
X75072Y-60709D01*
X75055Y-60728D01*
X75038Y-60738D01*
X79284Y-58780D02*
X79224Y-58685D01*
X79181Y-58780D02*
X79181Y-58580D01*
X79250Y-58580D01*
X79267Y-58590D01*
X79275Y-58600D01*
X79284Y-58619D01*
X79284Y-58647D01*
X79275Y-58666D01*
X79267Y-58676D01*
X79250Y-58685D01*
X79181Y-58685D01*
X79455Y-58780D02*
X79352Y-58780D01*
X79404Y-58780D02*
X79404Y-58580D01*
X79387Y-58609D01*
X79370Y-58628D01*
X79352Y-58638D01*
X79524Y-58600D02*
X79532Y-58590D01*
X79550Y-58580D01*
X79592Y-58580D01*
X79610Y-58590D01*
X79618Y-58600D01*
X79627Y-58619D01*
X79627Y-58638D01*
X79618Y-58666D01*
X79515Y-58780D01*
X79627Y-58780D01*
X76370Y-62861D02*
X76361Y-62871D01*
X76335Y-62880D01*
X76318Y-62880D01*
X76292Y-62871D01*
X76275Y-62852D01*
X76267Y-62833D01*
X76258Y-62795D01*
X76258Y-62766D01*
X76267Y-62728D01*
X76275Y-62709D01*
X76292Y-62690D01*
X76318Y-62680D01*
X76335Y-62680D01*
X76361Y-62690D01*
X76370Y-62700D01*
X76524Y-62747D02*
X76524Y-62880D01*
X76481Y-62671D02*
X76438Y-62814D01*
X76550Y-62814D01*
X76370Y-62180D02*
X76310Y-62085D01*
X76267Y-62180D02*
X76267Y-61980D01*
X76335Y-61980D01*
X76352Y-61990D01*
X76361Y-62000D01*
X76370Y-62019D01*
X76370Y-62047D01*
X76361Y-62066D01*
X76352Y-62076D01*
X76335Y-62085D01*
X76267Y-62085D01*
X76524Y-62047D02*
X76524Y-62180D01*
X76481Y-61971D02*
X76438Y-62114D01*
X76550Y-62114D01*
X79370Y-57780D02*
X79310Y-57685D01*
X79267Y-57780D02*
X79267Y-57580D01*
X79335Y-57580D01*
X79352Y-57590D01*
X79361Y-57600D01*
X79370Y-57619D01*
X79370Y-57647D01*
X79361Y-57666D01*
X79352Y-57676D01*
X79335Y-57685D01*
X79267Y-57685D01*
X79438Y-57600D02*
X79447Y-57590D01*
X79464Y-57580D01*
X79507Y-57580D01*
X79524Y-57590D01*
X79532Y-57600D01*
X79541Y-57619D01*
X79541Y-57638D01*
X79532Y-57666D01*
X79430Y-57780D01*
X79541Y-57780D01*
X77870Y-58080D02*
X77810Y-57985D01*
X77767Y-58080D02*
X77767Y-57880D01*
X77835Y-57880D01*
X77852Y-57890D01*
X77861Y-57900D01*
X77870Y-57919D01*
X77870Y-57947D01*
X77861Y-57966D01*
X77852Y-57976D01*
X77835Y-57985D01*
X77767Y-57985D01*
X78032Y-57880D02*
X77947Y-57880D01*
X77938Y-57976D01*
X77947Y-57966D01*
X77964Y-57957D01*
X78007Y-57957D01*
X78024Y-57966D01*
X78032Y-57976D01*
X78041Y-57995D01*
X78041Y-58042D01*
X78032Y-58061D01*
X78024Y-58071D01*
X78007Y-58080D01*
X77964Y-58080D01*
X77947Y-58071D01*
X77938Y-58061D01*
X77870Y-58780D02*
X77810Y-58685D01*
X77767Y-58780D02*
X77767Y-58580D01*
X77835Y-58580D01*
X77852Y-58590D01*
X77861Y-58600D01*
X77870Y-58619D01*
X77870Y-58647D01*
X77861Y-58666D01*
X77852Y-58676D01*
X77835Y-58685D01*
X77767Y-58685D01*
X78024Y-58580D02*
X77990Y-58580D01*
X77972Y-58590D01*
X77964Y-58600D01*
X77947Y-58628D01*
X77938Y-58666D01*
X77938Y-58742D01*
X77947Y-58761D01*
X77955Y-58771D01*
X77972Y-58780D01*
X78007Y-58780D01*
X78024Y-58771D01*
X78032Y-58761D01*
X78041Y-58742D01*
X78041Y-58695D01*
X78032Y-58676D01*
X78024Y-58666D01*
X78007Y-58657D01*
X77972Y-58657D01*
X77955Y-58666D01*
X77947Y-58676D01*
X77938Y-58695D01*
X77870Y-59480D02*
X77810Y-59385D01*
X77767Y-59480D02*
X77767Y-59280D01*
X77835Y-59280D01*
X77852Y-59290D01*
X77861Y-59300D01*
X77870Y-59319D01*
X77870Y-59347D01*
X77861Y-59366D01*
X77852Y-59376D01*
X77835Y-59385D01*
X77767Y-59385D01*
X77930Y-59280D02*
X78050Y-59280D01*
X77972Y-59480D01*
X74784Y-57780D02*
X74724Y-57685D01*
X74681Y-57780D02*
X74681Y-57580D01*
X74750Y-57580D01*
X74767Y-57590D01*
X74775Y-57600D01*
X74784Y-57619D01*
X74784Y-57647D01*
X74775Y-57666D01*
X74767Y-57676D01*
X74750Y-57685D01*
X74681Y-57685D01*
X74955Y-57780D02*
X74852Y-57780D01*
X74904Y-57780D02*
X74904Y-57580D01*
X74887Y-57609D01*
X74870Y-57628D01*
X74852Y-57638D01*
X75127Y-57780D02*
X75024Y-57780D01*
X75075Y-57780D02*
X75075Y-57580D01*
X75058Y-57609D01*
X75041Y-57628D01*
X75024Y-57638D01*
X76370Y-58861D02*
X76361Y-58871D01*
X76335Y-58880D01*
X76318Y-58880D01*
X76292Y-58871D01*
X76275Y-58852D01*
X76267Y-58833D01*
X76258Y-58795D01*
X76258Y-58766D01*
X76267Y-58728D01*
X76275Y-58709D01*
X76292Y-58690D01*
X76318Y-58680D01*
X76335Y-58680D01*
X76361Y-58690D01*
X76370Y-58700D01*
X76430Y-58680D02*
X76541Y-58680D01*
X76481Y-58757D01*
X76507Y-58757D01*
X76524Y-58766D01*
X76532Y-58776D01*
X76541Y-58795D01*
X76541Y-58842D01*
X76532Y-58861D01*
X76524Y-58871D01*
X76507Y-58880D01*
X76455Y-58880D01*
X76438Y-58871D01*
X76430Y-58861D01*
X76370Y-59580D02*
X76310Y-59485D01*
X76267Y-59580D02*
X76267Y-59380D01*
X76335Y-59380D01*
X76352Y-59390D01*
X76361Y-59400D01*
X76370Y-59419D01*
X76370Y-59447D01*
X76361Y-59466D01*
X76352Y-59476D01*
X76335Y-59485D01*
X76267Y-59485D01*
X76430Y-59380D02*
X76541Y-59380D01*
X76481Y-59457D01*
X76507Y-59457D01*
X76524Y-59466D01*
X76532Y-59476D01*
X76541Y-59495D01*
X76541Y-59542D01*
X76532Y-59561D01*
X76524Y-59571D01*
X76507Y-59580D01*
X76455Y-59580D01*
X76438Y-59571D01*
X76430Y-59561D01*
X74870Y-58780D02*
X74810Y-58685D01*
X74767Y-58780D02*
X74767Y-58580D01*
X74835Y-58580D01*
X74852Y-58590D01*
X74861Y-58600D01*
X74870Y-58619D01*
X74870Y-58647D01*
X74861Y-58666D01*
X74852Y-58676D01*
X74835Y-58685D01*
X74767Y-58685D01*
X75041Y-58780D02*
X74938Y-58780D01*
X74990Y-58780D02*
X74990Y-58580D01*
X74972Y-58609D01*
X74955Y-58628D01*
X74938Y-58638D01*
X79580Y-73915D02*
X79485Y-73975D01*
X79580Y-74018D02*
X79380Y-74018D01*
X79380Y-73950D01*
X79390Y-73932D01*
X79400Y-73924D01*
X79419Y-73915D01*
X79447Y-73915D01*
X79466Y-73924D01*
X79476Y-73932D01*
X79485Y-73950D01*
X79485Y-74018D01*
X79580Y-73744D02*
X79580Y-73847D01*
X79580Y-73795D02*
X79380Y-73795D01*
X79409Y-73812D01*
X79428Y-73830D01*
X79438Y-73847D01*
X79447Y-73590D02*
X79580Y-73590D01*
X79371Y-73632D02*
X79514Y-73675D01*
X79514Y-73564D01*
X77561Y-73830D02*
X77571Y-73838D01*
X77580Y-73864D01*
X77580Y-73881D01*
X77571Y-73907D01*
X77552Y-73924D01*
X77533Y-73932D01*
X77495Y-73941D01*
X77466Y-73941D01*
X77428Y-73932D01*
X77409Y-73924D01*
X77390Y-73907D01*
X77380Y-73881D01*
X77380Y-73864D01*
X77390Y-73838D01*
X77400Y-73830D01*
X77380Y-73667D02*
X77380Y-73752D01*
X77476Y-73761D01*
X77466Y-73752D01*
X77457Y-73735D01*
X77457Y-73692D01*
X77466Y-73675D01*
X77476Y-73667D01*
X77495Y-73658D01*
X77542Y-73658D01*
X77561Y-73667D01*
X77571Y-73675D01*
X77580Y-73692D01*
X77580Y-73735D01*
X77571Y-73752D01*
X77561Y-73761D01*
X78580Y-73915D02*
X78485Y-73975D01*
X78580Y-74018D02*
X78380Y-74018D01*
X78380Y-73950D01*
X78390Y-73932D01*
X78400Y-73924D01*
X78419Y-73915D01*
X78447Y-73915D01*
X78466Y-73924D01*
X78476Y-73932D01*
X78485Y-73950D01*
X78485Y-74018D01*
X78580Y-73744D02*
X78580Y-73847D01*
X78580Y-73795D02*
X78380Y-73795D01*
X78409Y-73812D01*
X78428Y-73830D01*
X78438Y-73847D01*
X78380Y-73684D02*
X78380Y-73572D01*
X78457Y-73632D01*
X78457Y-73607D01*
X78466Y-73590D01*
X78476Y-73581D01*
X78495Y-73572D01*
X78542Y-73572D01*
X78561Y-73581D01*
X78571Y-73590D01*
X78580Y-73607D01*
X78580Y-73658D01*
X78571Y-73675D01*
X78561Y-73684D01*
X74970Y-69661D02*
X74961Y-69671D01*
X74935Y-69680D01*
X74918Y-69680D01*
X74892Y-69671D01*
X74875Y-69652D01*
X74867Y-69633D01*
X74858Y-69595D01*
X74858Y-69566D01*
X74867Y-69528D01*
X74875Y-69509D01*
X74892Y-69490D01*
X74918Y-69480D01*
X74935Y-69480D01*
X74961Y-69490D01*
X74970Y-69500D01*
X75038Y-69500D02*
X75047Y-69490D01*
X75064Y-69480D01*
X75107Y-69480D01*
X75124Y-69490D01*
X75132Y-69500D01*
X75141Y-69519D01*
X75141Y-69538D01*
X75132Y-69566D01*
X75030Y-69680D01*
X75141Y-69680D01*
X90380Y-66331D02*
X90380Y-66228D01*
X90580Y-66280D02*
X90380Y-66280D01*
X90580Y-66168D02*
X90380Y-66168D01*
X90476Y-66168D02*
X90476Y-66065D01*
X90580Y-66065D02*
X90380Y-66065D01*
X90580Y-65885D02*
X90580Y-65988D01*
X90580Y-65937D02*
X90380Y-65937D01*
X90409Y-65954D01*
X90428Y-65971D01*
X90438Y-65988D01*
X90580Y-65015D02*
X90485Y-65075D01*
X90580Y-65118D02*
X90380Y-65118D01*
X90380Y-65050D01*
X90390Y-65032D01*
X90400Y-65024D01*
X90419Y-65015D01*
X90447Y-65015D01*
X90466Y-65024D01*
X90476Y-65032D01*
X90485Y-65050D01*
X90485Y-65118D01*
X90400Y-64947D02*
X90390Y-64938D01*
X90380Y-64921D01*
X90380Y-64878D01*
X90390Y-64861D01*
X90400Y-64852D01*
X90419Y-64844D01*
X90438Y-64844D01*
X90466Y-64852D01*
X90580Y-64955D01*
X90580Y-64844D01*
X90380Y-64784D02*
X90380Y-64664D01*
X90580Y-64741D01*
G54D16*
X77535Y-60979D02*
X77759Y-60979D01*
X77785Y-60968D01*
X77798Y-60957D01*
X77811Y-60934D01*
X77811Y-60889D01*
X77798Y-60867D01*
X77785Y-60856D01*
X77759Y-60844D01*
X77535Y-60844D01*
X77535Y-60620D02*
X77535Y-60732D01*
X77667Y-60743D01*
X77654Y-60732D01*
X77640Y-60710D01*
X77640Y-60653D01*
X77654Y-60631D01*
X77667Y-60620D01*
X77693Y-60608D01*
X77759Y-60608D01*
X77785Y-60620D01*
X77798Y-60631D01*
X77811Y-60653D01*
X77811Y-60710D01*
X77798Y-60732D01*
X77785Y-60743D01*
X78509Y-62075D02*
X78115Y-62075D01*
X78396Y-61944D01*
X78115Y-61813D01*
X78509Y-61813D01*
X78471Y-61400D02*
X78490Y-61419D01*
X78509Y-61475D01*
X78509Y-61512D01*
X78490Y-61569D01*
X78453Y-61606D01*
X78415Y-61625D01*
X78340Y-61644D01*
X78284Y-61644D01*
X78209Y-61625D01*
X78171Y-61606D01*
X78134Y-61569D01*
X78115Y-61512D01*
X78115Y-61475D01*
X78134Y-61419D01*
X78153Y-61400D01*
X78509Y-61231D02*
X78115Y-61231D01*
X78115Y-61081D01*
X78134Y-61043D01*
X78153Y-61025D01*
X78190Y-61006D01*
X78246Y-61006D01*
X78284Y-61025D01*
X78303Y-61043D01*
X78321Y-61081D01*
X78321Y-61231D01*
X78115Y-60668D02*
X78115Y-60743D01*
X78134Y-60781D01*
X78153Y-60800D01*
X78209Y-60837D01*
X78284Y-60856D01*
X78434Y-60856D01*
X78471Y-60837D01*
X78490Y-60818D01*
X78509Y-60781D01*
X78509Y-60706D01*
X78490Y-60668D01*
X78471Y-60649D01*
X78434Y-60631D01*
X78340Y-60631D01*
X78303Y-60649D01*
X78284Y-60668D01*
X78265Y-60706D01*
X78265Y-60781D01*
X78284Y-60818D01*
X78303Y-60837D01*
X78340Y-60856D01*
X78115Y-60387D02*
X78115Y-60349D01*
X78134Y-60312D01*
X78153Y-60293D01*
X78190Y-60274D01*
X78265Y-60255D01*
X78359Y-60255D01*
X78434Y-60274D01*
X78471Y-60293D01*
X78490Y-60312D01*
X78509Y-60349D01*
X78509Y-60387D01*
X78490Y-60424D01*
X78471Y-60443D01*
X78434Y-60462D01*
X78359Y-60481D01*
X78265Y-60481D01*
X78190Y-60462D01*
X78153Y-60443D01*
X78134Y-60424D01*
X78115Y-60387D01*
X78115Y-60012D02*
X78115Y-59974D01*
X78134Y-59936D01*
X78153Y-59918D01*
X78190Y-59899D01*
X78265Y-59880D01*
X78359Y-59880D01*
X78434Y-59899D01*
X78471Y-59918D01*
X78490Y-59936D01*
X78509Y-59974D01*
X78509Y-60012D01*
X78490Y-60049D01*
X78471Y-60068D01*
X78434Y-60087D01*
X78359Y-60105D01*
X78265Y-60105D01*
X78190Y-60087D01*
X78153Y-60068D01*
X78134Y-60049D01*
X78115Y-60012D01*
X78246Y-59542D02*
X78509Y-59542D01*
X78096Y-59636D02*
X78378Y-59730D01*
X78378Y-59486D01*
X77535Y-69779D02*
X77759Y-69779D01*
X77785Y-69768D01*
X77798Y-69757D01*
X77811Y-69734D01*
X77811Y-69689D01*
X77798Y-69667D01*
X77785Y-69656D01*
X77759Y-69644D01*
X77535Y-69644D01*
X77535Y-69431D02*
X77535Y-69476D01*
X77548Y-69498D01*
X77562Y-69510D01*
X77601Y-69532D01*
X77654Y-69543D01*
X77759Y-69543D01*
X77785Y-69532D01*
X77798Y-69521D01*
X77811Y-69498D01*
X77811Y-69453D01*
X77798Y-69431D01*
X77785Y-69420D01*
X77759Y-69408D01*
X77693Y-69408D01*
X77667Y-69420D01*
X77654Y-69431D01*
X77640Y-69453D01*
X77640Y-69498D01*
X77654Y-69521D01*
X77667Y-69532D01*
X77693Y-69543D01*
X78509Y-70875D02*
X78115Y-70875D01*
X78396Y-70744D01*
X78115Y-70613D01*
X78509Y-70613D01*
X78471Y-70200D02*
X78490Y-70219D01*
X78509Y-70275D01*
X78509Y-70312D01*
X78490Y-70369D01*
X78453Y-70406D01*
X78415Y-70425D01*
X78340Y-70444D01*
X78284Y-70444D01*
X78209Y-70425D01*
X78171Y-70406D01*
X78134Y-70369D01*
X78115Y-70312D01*
X78115Y-70275D01*
X78134Y-70219D01*
X78153Y-70200D01*
X78509Y-70031D02*
X78115Y-70031D01*
X78115Y-69881D01*
X78134Y-69843D01*
X78153Y-69825D01*
X78190Y-69806D01*
X78246Y-69806D01*
X78284Y-69825D01*
X78303Y-69843D01*
X78321Y-69881D01*
X78321Y-70031D01*
X78115Y-69468D02*
X78115Y-69543D01*
X78134Y-69581D01*
X78153Y-69600D01*
X78209Y-69637D01*
X78284Y-69656D01*
X78434Y-69656D01*
X78471Y-69637D01*
X78490Y-69618D01*
X78509Y-69581D01*
X78509Y-69506D01*
X78490Y-69468D01*
X78471Y-69449D01*
X78434Y-69431D01*
X78340Y-69431D01*
X78303Y-69449D01*
X78284Y-69468D01*
X78265Y-69506D01*
X78265Y-69581D01*
X78284Y-69618D01*
X78303Y-69637D01*
X78340Y-69656D01*
X78115Y-69187D02*
X78115Y-69149D01*
X78134Y-69112D01*
X78153Y-69093D01*
X78190Y-69074D01*
X78265Y-69055D01*
X78359Y-69055D01*
X78434Y-69074D01*
X78471Y-69093D01*
X78490Y-69112D01*
X78509Y-69149D01*
X78509Y-69187D01*
X78490Y-69224D01*
X78471Y-69243D01*
X78434Y-69262D01*
X78359Y-69281D01*
X78265Y-69281D01*
X78190Y-69262D01*
X78153Y-69243D01*
X78134Y-69224D01*
X78115Y-69187D01*
X78115Y-68812D02*
X78115Y-68774D01*
X78134Y-68736D01*
X78153Y-68718D01*
X78190Y-68699D01*
X78265Y-68680D01*
X78359Y-68680D01*
X78434Y-68699D01*
X78471Y-68718D01*
X78490Y-68736D01*
X78509Y-68774D01*
X78509Y-68812D01*
X78490Y-68849D01*
X78471Y-68868D01*
X78434Y-68887D01*
X78359Y-68905D01*
X78265Y-68905D01*
X78190Y-68887D01*
X78153Y-68868D01*
X78134Y-68849D01*
X78115Y-68812D01*
X78246Y-68342D02*
X78509Y-68342D01*
X78096Y-68436D02*
X78378Y-68530D01*
X78378Y-68286D01*
X77535Y-65379D02*
X77759Y-65379D01*
X77785Y-65368D01*
X77798Y-65357D01*
X77811Y-65334D01*
X77811Y-65289D01*
X77798Y-65267D01*
X77785Y-65256D01*
X77759Y-65244D01*
X77535Y-65244D01*
X77535Y-65155D02*
X77535Y-64997D01*
X77811Y-65098D01*
X78509Y-66475D02*
X78115Y-66475D01*
X78396Y-66344D01*
X78115Y-66213D01*
X78509Y-66213D01*
X78471Y-65800D02*
X78490Y-65819D01*
X78509Y-65875D01*
X78509Y-65912D01*
X78490Y-65969D01*
X78453Y-66006D01*
X78415Y-66025D01*
X78340Y-66044D01*
X78284Y-66044D01*
X78209Y-66025D01*
X78171Y-66006D01*
X78134Y-65969D01*
X78115Y-65912D01*
X78115Y-65875D01*
X78134Y-65819D01*
X78153Y-65800D01*
X78509Y-65631D02*
X78115Y-65631D01*
X78115Y-65481D01*
X78134Y-65443D01*
X78153Y-65425D01*
X78190Y-65406D01*
X78246Y-65406D01*
X78284Y-65425D01*
X78303Y-65443D01*
X78321Y-65481D01*
X78321Y-65631D01*
X78115Y-65068D02*
X78115Y-65143D01*
X78134Y-65181D01*
X78153Y-65200D01*
X78209Y-65237D01*
X78284Y-65256D01*
X78434Y-65256D01*
X78471Y-65237D01*
X78490Y-65218D01*
X78509Y-65181D01*
X78509Y-65106D01*
X78490Y-65068D01*
X78471Y-65049D01*
X78434Y-65031D01*
X78340Y-65031D01*
X78303Y-65049D01*
X78284Y-65068D01*
X78265Y-65106D01*
X78265Y-65181D01*
X78284Y-65218D01*
X78303Y-65237D01*
X78340Y-65256D01*
X78115Y-64787D02*
X78115Y-64749D01*
X78134Y-64712D01*
X78153Y-64693D01*
X78190Y-64674D01*
X78265Y-64655D01*
X78359Y-64655D01*
X78434Y-64674D01*
X78471Y-64693D01*
X78490Y-64712D01*
X78509Y-64749D01*
X78509Y-64787D01*
X78490Y-64824D01*
X78471Y-64843D01*
X78434Y-64862D01*
X78359Y-64881D01*
X78265Y-64881D01*
X78190Y-64862D01*
X78153Y-64843D01*
X78134Y-64824D01*
X78115Y-64787D01*
X78115Y-64412D02*
X78115Y-64374D01*
X78134Y-64336D01*
X78153Y-64318D01*
X78190Y-64299D01*
X78265Y-64280D01*
X78359Y-64280D01*
X78434Y-64299D01*
X78471Y-64318D01*
X78490Y-64336D01*
X78509Y-64374D01*
X78509Y-64412D01*
X78490Y-64449D01*
X78471Y-64468D01*
X78434Y-64487D01*
X78359Y-64505D01*
X78265Y-64505D01*
X78190Y-64487D01*
X78153Y-64468D01*
X78134Y-64449D01*
X78115Y-64412D01*
X78246Y-63942D02*
X78509Y-63942D01*
X78096Y-64036D02*
X78378Y-64130D01*
X78378Y-63886D01*
G54D15*
X74970Y-65261D02*
X74961Y-65271D01*
X74935Y-65280D01*
X74918Y-65280D01*
X74892Y-65271D01*
X74875Y-65252D01*
X74867Y-65233D01*
X74858Y-65195D01*
X74858Y-65166D01*
X74867Y-65128D01*
X74875Y-65109D01*
X74892Y-65090D01*
X74918Y-65080D01*
X74935Y-65080D01*
X74961Y-65090D01*
X74970Y-65100D01*
X75072Y-65166D02*
X75055Y-65157D01*
X75047Y-65147D01*
X75038Y-65128D01*
X75038Y-65119D01*
X75047Y-65100D01*
X75055Y-65090D01*
X75072Y-65080D01*
X75107Y-65080D01*
X75124Y-65090D01*
X75132Y-65100D01*
X75141Y-65119D01*
X75141Y-65128D01*
X75132Y-65147D01*
X75124Y-65157D01*
X75107Y-65166D01*
X75072Y-65166D01*
X75055Y-65176D01*
X75047Y-65185D01*
X75038Y-65204D01*
X75038Y-65242D01*
X75047Y-65261D01*
X75055Y-65271D01*
X75072Y-65280D01*
X75107Y-65280D01*
X75124Y-65271D01*
X75132Y-65261D01*
X75141Y-65242D01*
X75141Y-65204D01*
X75132Y-65185D01*
X75124Y-65176D01*
X75107Y-65166D01*
G54D17*
X63771Y-53714D02*
X63857Y-53742D01*
X64000Y-53742D01*
X64057Y-53714D01*
X64085Y-53685D01*
X64114Y-53628D01*
X64114Y-53571D01*
X64085Y-53514D01*
X64057Y-53485D01*
X64000Y-53457D01*
X63885Y-53428D01*
X63828Y-53400D01*
X63800Y-53371D01*
X63771Y-53314D01*
X63771Y-53257D01*
X63800Y-53200D01*
X63828Y-53171D01*
X63885Y-53142D01*
X64028Y-53142D01*
X64114Y-53171D01*
X64371Y-53742D02*
X64371Y-53142D01*
X64371Y-53428D02*
X64714Y-53428D01*
X64714Y-53742D02*
X64714Y-53142D01*
X65000Y-53742D02*
X65000Y-53142D01*
X65285Y-53428D02*
X65485Y-53428D01*
X65571Y-53742D02*
X65285Y-53742D01*
X65285Y-53142D01*
X65571Y-53142D01*
X66114Y-53742D02*
X65828Y-53742D01*
X65828Y-53142D01*
X66314Y-53742D02*
X66314Y-53142D01*
X66457Y-53142D01*
X66542Y-53171D01*
X66599Y-53228D01*
X66628Y-53285D01*
X66657Y-53400D01*
X66657Y-53485D01*
X66628Y-53600D01*
X66599Y-53657D01*
X66542Y-53714D01*
X66457Y-53742D01*
X66314Y-53742D01*
X67228Y-53742D02*
X66885Y-53742D01*
X67057Y-53742D02*
X67057Y-53142D01*
X66999Y-53228D01*
X66942Y-53285D01*
X66885Y-53314D01*
M02*
