G04 (created by PCBNEW (2013-07-07 BZR 4022)-stable) date 11/3/2017 9:35:14 AM*
%MOIN*%
G04 Gerber Fmt 3.4, Leading zero omitted, Abs format*
%FSLAX34Y34*%
G01*
G70*
G90*
G04 APERTURE LIST*
%ADD10C,0.00590551*%
%ADD11C,0.625*%
%ADD12C,0.04*%
%ADD13C,0.0590551*%
%ADD14R,0.06X0.06*%
%ADD15C,0.06*%
%ADD16O,0.06X0.1*%
%ADD17C,0.155*%
%ADD18C,0.035*%
%ADD19C,0.01*%
G04 APERTURE END LIST*
G54D10*
G54D11*
X85500Y-70000D03*
G54D12*
X82500Y-67000D03*
X82500Y-73000D03*
X82000Y-67500D03*
X83000Y-67500D03*
X83000Y-66500D03*
X82000Y-66500D03*
X82500Y-67500D03*
X82000Y-67000D03*
X82500Y-66500D03*
X83000Y-67000D03*
X82000Y-72500D03*
X82500Y-72500D03*
X83000Y-72500D03*
X83000Y-73000D03*
X83000Y-73500D03*
X82500Y-73500D03*
X82000Y-73500D03*
X82000Y-73000D03*
X88000Y-72500D03*
X88500Y-72500D03*
X89000Y-72500D03*
X89000Y-73000D03*
X88500Y-73000D03*
X88000Y-73000D03*
X88000Y-73500D03*
X88500Y-73500D03*
X89000Y-73500D03*
X88000Y-67500D03*
X88000Y-67000D03*
X88000Y-66500D03*
X88500Y-66500D03*
X88500Y-67000D03*
X88500Y-67500D03*
X89000Y-67500D03*
X89000Y-67000D03*
X89000Y-66500D03*
G54D13*
X85105Y-73500D03*
X85895Y-73500D03*
X82000Y-69605D03*
X82000Y-70395D03*
X89000Y-70395D03*
X89000Y-69605D03*
G54D11*
X70500Y-61200D03*
G54D12*
X67500Y-58200D03*
X67500Y-64200D03*
X67000Y-58700D03*
X68000Y-58700D03*
X68000Y-57700D03*
X67000Y-57700D03*
X67500Y-58700D03*
X67000Y-58200D03*
X67500Y-57700D03*
X68000Y-58200D03*
X67000Y-63700D03*
X67500Y-63700D03*
X68000Y-63700D03*
X68000Y-64200D03*
X68000Y-64700D03*
X67500Y-64700D03*
X67000Y-64700D03*
X67000Y-64200D03*
X73000Y-63700D03*
X73500Y-63700D03*
X74000Y-63700D03*
X74000Y-64200D03*
X73500Y-64200D03*
X73000Y-64200D03*
X73000Y-64700D03*
X73500Y-64700D03*
X74000Y-64700D03*
X73000Y-58700D03*
X73000Y-58200D03*
X73000Y-57700D03*
X73500Y-57700D03*
X73500Y-58200D03*
X73500Y-58700D03*
X74000Y-58700D03*
X74000Y-58200D03*
X74000Y-57700D03*
G54D13*
X70105Y-64700D03*
X70895Y-64700D03*
X67000Y-60805D03*
X67000Y-61595D03*
X74000Y-61595D03*
X74000Y-60805D03*
G54D11*
X85500Y-61200D03*
G54D12*
X82500Y-58200D03*
X82500Y-64200D03*
X82000Y-58700D03*
X83000Y-58700D03*
X83000Y-57700D03*
X82000Y-57700D03*
X82500Y-58700D03*
X82000Y-58200D03*
X82500Y-57700D03*
X83000Y-58200D03*
X82000Y-63700D03*
X82500Y-63700D03*
X83000Y-63700D03*
X83000Y-64200D03*
X83000Y-64700D03*
X82500Y-64700D03*
X82000Y-64700D03*
X82000Y-64200D03*
X88000Y-63700D03*
X88500Y-63700D03*
X89000Y-63700D03*
X89000Y-64200D03*
X88500Y-64200D03*
X88000Y-64200D03*
X88000Y-64700D03*
X88500Y-64700D03*
X89000Y-64700D03*
X88000Y-58700D03*
X88000Y-58200D03*
X88000Y-57700D03*
X88500Y-57700D03*
X88500Y-58200D03*
X88500Y-58700D03*
X89000Y-58700D03*
X89000Y-58200D03*
X89000Y-57700D03*
G54D13*
X85105Y-64700D03*
X85895Y-64700D03*
X82000Y-60805D03*
X82000Y-61595D03*
X89000Y-61595D03*
X89000Y-60805D03*
G54D11*
X70500Y-70000D03*
G54D12*
X67500Y-67000D03*
X67500Y-73000D03*
X67000Y-67500D03*
X68000Y-67500D03*
X68000Y-66500D03*
X67000Y-66500D03*
X67500Y-67500D03*
X67000Y-67000D03*
X67500Y-66500D03*
X68000Y-67000D03*
X67000Y-72500D03*
X67500Y-72500D03*
X68000Y-72500D03*
X68000Y-73000D03*
X68000Y-73500D03*
X67500Y-73500D03*
X67000Y-73500D03*
X67000Y-73000D03*
X73000Y-72500D03*
X73500Y-72500D03*
X74000Y-72500D03*
X74000Y-73000D03*
X73500Y-73000D03*
X73000Y-73000D03*
X73000Y-73500D03*
X73500Y-73500D03*
X74000Y-73500D03*
X73000Y-67500D03*
X73000Y-67000D03*
X73000Y-66500D03*
X73500Y-66500D03*
X73500Y-67000D03*
X73500Y-67500D03*
X74000Y-67500D03*
X74000Y-67000D03*
X74000Y-66500D03*
G54D13*
X70105Y-73500D03*
X70895Y-73500D03*
X67000Y-69605D03*
X67000Y-70395D03*
X74000Y-70395D03*
X74000Y-69605D03*
G54D14*
X80500Y-66500D03*
G54D15*
X80500Y-67500D03*
G54D14*
X80500Y-72500D03*
G54D15*
X80500Y-73500D03*
G54D14*
X80500Y-69500D03*
G54D15*
X80500Y-70500D03*
G54D14*
X65500Y-69500D03*
G54D15*
X65500Y-70500D03*
G54D14*
X65500Y-66500D03*
G54D15*
X65500Y-67500D03*
G54D14*
X65500Y-72500D03*
G54D15*
X65500Y-73500D03*
G54D14*
X80500Y-60700D03*
G54D15*
X80500Y-61700D03*
G54D14*
X80500Y-57700D03*
G54D15*
X80500Y-58700D03*
G54D14*
X80500Y-63700D03*
G54D15*
X80500Y-64700D03*
G54D14*
X65500Y-60700D03*
G54D15*
X65500Y-61700D03*
G54D14*
X65500Y-57700D03*
G54D15*
X65500Y-58700D03*
G54D14*
X65500Y-63700D03*
G54D15*
X65500Y-64700D03*
G54D16*
X89500Y-75000D03*
X88500Y-75000D03*
X87500Y-75000D03*
X84500Y-75000D03*
X85500Y-75000D03*
X86500Y-75000D03*
X82500Y-75000D03*
X81500Y-75000D03*
X80500Y-75000D03*
X78500Y-75000D03*
X77500Y-75000D03*
X89500Y-56000D03*
X88500Y-56000D03*
X87500Y-56000D03*
X86500Y-56000D03*
X85500Y-56000D03*
X84500Y-56000D03*
X83500Y-56000D03*
X82500Y-56000D03*
X80900Y-56000D03*
X79900Y-56000D03*
X78900Y-56000D03*
X77900Y-56000D03*
X76900Y-56000D03*
X75900Y-56000D03*
X74900Y-56000D03*
X73900Y-56000D03*
X79500Y-75000D03*
G54D17*
X90500Y-73000D03*
X90500Y-62000D03*
X70500Y-56000D03*
X70000Y-75000D03*
G54D16*
X72900Y-56000D03*
X71900Y-56000D03*
G54D18*
X80157Y-65369D03*
X74700Y-69098D03*
X78079Y-69476D03*
X79103Y-68347D03*
X77193Y-66614D03*
X78610Y-68468D03*
X77908Y-65325D03*
X76578Y-67093D03*
X88759Y-65758D03*
X81989Y-74175D03*
X75642Y-64445D03*
X78436Y-64687D03*
X77366Y-65882D03*
X79336Y-59456D03*
X77196Y-57785D03*
X78359Y-60287D03*
X78245Y-66195D03*
X77186Y-71206D03*
X75654Y-61610D03*
X76343Y-57621D03*
X77564Y-69144D03*
X78691Y-67256D03*
G54D19*
X74900Y-56000D02*
X74900Y-56650D01*
X78686Y-59740D02*
X78686Y-63898D01*
X76668Y-57722D02*
X78686Y-59740D01*
X76668Y-57486D02*
X76668Y-57722D01*
X75832Y-56650D02*
X76668Y-57486D01*
X74900Y-56650D02*
X75832Y-56650D01*
X78686Y-63898D02*
X80157Y-65369D01*
X74700Y-64904D02*
X74700Y-69098D01*
X75706Y-63898D02*
X74700Y-64904D01*
X78686Y-63898D02*
X75706Y-63898D01*
X75077Y-69476D02*
X74700Y-69098D01*
X78079Y-69476D02*
X75077Y-69476D01*
X79103Y-67200D02*
X79103Y-68347D01*
X78516Y-66614D02*
X79103Y-67200D01*
X77193Y-66614D02*
X78516Y-66614D01*
X65500Y-70500D02*
X65500Y-72500D01*
X67000Y-73000D02*
X67000Y-72500D01*
X67000Y-73500D02*
X67000Y-73000D01*
X67500Y-73500D02*
X67500Y-73000D01*
X68000Y-73500D02*
X68000Y-73000D01*
X68000Y-73000D02*
X68000Y-72500D01*
X78610Y-69410D02*
X78610Y-68468D01*
X77676Y-70344D02*
X78610Y-69410D01*
X77574Y-70344D02*
X77676Y-70344D01*
X75187Y-72732D02*
X77574Y-70344D01*
X75187Y-72817D02*
X75187Y-72732D01*
X74059Y-73945D02*
X75187Y-72817D01*
X68445Y-73945D02*
X74059Y-73945D01*
X68000Y-73500D02*
X68445Y-73945D01*
X89000Y-69605D02*
X89000Y-67500D01*
X89000Y-66500D02*
X89000Y-67000D01*
X89000Y-67000D02*
X89000Y-67500D01*
X89000Y-69605D02*
X89000Y-70395D01*
X89000Y-70395D02*
X89000Y-72500D01*
X88000Y-73500D02*
X88000Y-73000D01*
X88000Y-73000D02*
X88000Y-72500D01*
X88500Y-73500D02*
X88500Y-73000D01*
X88500Y-73000D02*
X88500Y-72500D01*
X89000Y-73500D02*
X89000Y-73000D01*
X89000Y-73000D02*
X89000Y-72500D01*
X74000Y-66500D02*
X74000Y-67000D01*
X73000Y-73500D02*
X73000Y-73000D01*
X73000Y-73000D02*
X73000Y-72500D01*
X73500Y-73500D02*
X73500Y-73000D01*
X73500Y-73000D02*
X73500Y-72500D01*
X74000Y-73500D02*
X74000Y-73000D01*
X74000Y-73000D02*
X74000Y-72500D01*
X65387Y-66950D02*
X65500Y-66950D01*
X65049Y-67287D02*
X65387Y-66950D01*
X65049Y-73049D02*
X65049Y-67287D01*
X65500Y-73500D02*
X65049Y-73049D01*
X65500Y-66500D02*
X65500Y-66950D01*
X66315Y-66134D02*
X65950Y-66500D01*
X72634Y-66134D02*
X66315Y-66134D01*
X73000Y-66500D02*
X72634Y-66134D01*
X65500Y-66500D02*
X65950Y-66500D01*
X74000Y-69605D02*
X74000Y-70395D01*
X74000Y-70395D02*
X74000Y-72500D01*
X74000Y-67000D02*
X74000Y-67500D01*
X74000Y-67500D02*
X74000Y-69605D01*
X82000Y-73500D02*
X82000Y-73000D01*
X82000Y-73000D02*
X82000Y-72500D01*
X82500Y-73500D02*
X82500Y-73000D01*
X83000Y-73500D02*
X83000Y-73000D01*
X83000Y-73000D02*
X83000Y-72500D01*
X82500Y-72500D02*
X82500Y-73000D01*
X76578Y-66210D02*
X76578Y-67093D01*
X77463Y-65325D02*
X76578Y-66210D01*
X77908Y-65325D02*
X77463Y-65325D01*
X89458Y-66457D02*
X88759Y-65758D01*
X89458Y-73553D02*
X89458Y-66457D01*
X88662Y-74349D02*
X89458Y-73553D01*
X88500Y-74349D02*
X88662Y-74349D01*
X88500Y-75000D02*
X88500Y-74349D01*
X82500Y-66500D02*
X82500Y-67000D01*
X83000Y-66500D02*
X83000Y-67000D01*
X83000Y-67500D02*
X83000Y-67000D01*
X82000Y-67000D02*
X82000Y-67500D01*
X80500Y-69500D02*
X80950Y-69500D01*
X82000Y-69500D02*
X80950Y-69500D01*
X82000Y-67500D02*
X82000Y-69500D01*
X82000Y-69500D02*
X82000Y-69605D01*
X77497Y-64445D02*
X75642Y-64445D01*
X79847Y-66795D02*
X77497Y-64445D01*
X79847Y-70804D02*
X79847Y-66795D01*
X80799Y-71757D02*
X79847Y-70804D01*
X80891Y-71757D02*
X80799Y-71757D01*
X81270Y-72136D02*
X80891Y-71757D01*
X81270Y-73553D02*
X81270Y-72136D01*
X81893Y-74175D02*
X81270Y-73553D01*
X81989Y-74175D02*
X81893Y-74175D01*
X87500Y-75000D02*
X87500Y-74349D01*
X80047Y-66298D02*
X78436Y-64687D01*
X80047Y-70711D02*
X80047Y-66298D01*
X80749Y-71414D02*
X80047Y-70711D01*
X80830Y-71414D02*
X80749Y-71414D01*
X81570Y-72153D02*
X80830Y-71414D01*
X81570Y-73566D02*
X81570Y-72153D01*
X81855Y-73850D02*
X81570Y-73566D01*
X82124Y-73850D02*
X81855Y-73850D01*
X82297Y-74023D02*
X82124Y-73850D01*
X87173Y-74023D02*
X82297Y-74023D01*
X87500Y-74349D02*
X87173Y-74023D01*
X86500Y-75000D02*
X86500Y-74349D01*
X77378Y-65870D02*
X77366Y-65882D01*
X78379Y-65870D02*
X77378Y-65870D01*
X79632Y-67123D02*
X78379Y-65870D01*
X79632Y-70878D02*
X79632Y-67123D01*
X80804Y-72049D02*
X79632Y-70878D01*
X80862Y-72049D02*
X80804Y-72049D01*
X81010Y-72198D02*
X80862Y-72049D01*
X81010Y-73665D02*
X81010Y-72198D01*
X81859Y-74514D02*
X81010Y-73665D01*
X82149Y-74514D02*
X81859Y-74514D01*
X82313Y-74349D02*
X82149Y-74514D01*
X86500Y-74349D02*
X82313Y-74349D01*
X77664Y-57785D02*
X79336Y-59456D01*
X77196Y-57785D02*
X77664Y-57785D01*
X77196Y-57785D02*
X77196Y-57785D01*
X65387Y-58150D02*
X65500Y-58150D01*
X65049Y-58487D02*
X65387Y-58150D01*
X65049Y-64249D02*
X65049Y-58487D01*
X65500Y-64700D02*
X65049Y-64249D01*
X65500Y-57700D02*
X65500Y-58150D01*
X74000Y-60805D02*
X74000Y-61595D01*
X74000Y-61595D02*
X74000Y-63700D01*
X74000Y-57700D02*
X74000Y-58200D01*
X74000Y-58200D02*
X74000Y-58700D01*
X74000Y-58700D02*
X74000Y-60805D01*
X73000Y-64700D02*
X73000Y-64200D01*
X73000Y-64200D02*
X73000Y-63700D01*
X73500Y-64700D02*
X73500Y-64200D01*
X73500Y-64200D02*
X73500Y-63700D01*
X74000Y-64700D02*
X74000Y-64200D01*
X74000Y-64200D02*
X74000Y-63700D01*
X66308Y-57341D02*
X65950Y-57700D01*
X72641Y-57341D02*
X66308Y-57341D01*
X73000Y-57700D02*
X72641Y-57341D01*
X65500Y-57700D02*
X65950Y-57700D01*
X65500Y-61700D02*
X65500Y-63700D01*
X67000Y-64700D02*
X67000Y-64200D01*
X67500Y-64700D02*
X67500Y-64200D01*
X68000Y-64200D02*
X68000Y-63700D01*
X67000Y-64200D02*
X67000Y-63700D01*
X65500Y-63700D02*
X65950Y-63700D01*
X67000Y-63700D02*
X65950Y-63700D01*
X68000Y-64700D02*
X68000Y-64200D01*
X68445Y-65145D02*
X68000Y-64700D01*
X74058Y-65145D02*
X68445Y-65145D01*
X78359Y-60844D02*
X74058Y-65145D01*
X78359Y-60287D02*
X78359Y-60844D01*
X65500Y-60700D02*
X65500Y-58700D01*
X68000Y-57700D02*
X68000Y-58200D01*
X68000Y-58700D02*
X68000Y-58200D01*
X67000Y-58700D02*
X67000Y-58200D01*
X65500Y-69500D02*
X65500Y-67500D01*
X67500Y-66500D02*
X67500Y-67000D01*
X67500Y-67500D02*
X67500Y-67000D01*
X67000Y-66500D02*
X67000Y-67000D01*
X67000Y-67000D02*
X67000Y-67500D01*
X68000Y-66500D02*
X68000Y-67000D01*
X68000Y-67000D02*
X68000Y-67500D01*
X82000Y-57700D02*
X82000Y-58200D01*
X83000Y-58700D02*
X83000Y-58200D01*
X82000Y-58700D02*
X82000Y-58200D01*
X80500Y-60700D02*
X80950Y-60700D01*
X82000Y-60700D02*
X80950Y-60700D01*
X82000Y-60805D02*
X82000Y-60700D01*
X82000Y-60700D02*
X82000Y-58700D01*
X82000Y-64700D02*
X82000Y-64200D01*
X82000Y-64200D02*
X82000Y-63700D01*
X82500Y-64700D02*
X82500Y-64200D01*
X83000Y-64700D02*
X83000Y-64200D01*
X83000Y-64200D02*
X83000Y-63700D01*
X80500Y-63700D02*
X80500Y-61700D01*
X81895Y-61700D02*
X82000Y-61595D01*
X80500Y-61700D02*
X81895Y-61700D01*
X79432Y-68959D02*
X77186Y-71206D01*
X79432Y-67235D02*
X79432Y-68959D01*
X78392Y-66195D02*
X79432Y-67235D01*
X78245Y-66195D02*
X78392Y-66195D01*
X89000Y-60805D02*
X89000Y-58700D01*
X89000Y-57700D02*
X89000Y-58200D01*
X89000Y-58200D02*
X89000Y-58700D01*
X89000Y-60805D02*
X89000Y-61595D01*
X89000Y-61595D02*
X89000Y-63700D01*
X88000Y-64200D02*
X88000Y-63700D01*
X88500Y-64700D02*
X88500Y-64200D01*
X88500Y-64200D02*
X88500Y-63700D01*
X89000Y-64700D02*
X89000Y-64200D01*
X89000Y-64200D02*
X89000Y-63700D01*
X80500Y-57700D02*
X80500Y-58150D01*
X88000Y-64700D02*
X88000Y-64200D01*
X80049Y-64249D02*
X80500Y-64700D01*
X80049Y-58487D02*
X80049Y-64249D01*
X80387Y-58150D02*
X80049Y-58487D01*
X80500Y-58150D02*
X80387Y-58150D01*
X87554Y-65145D02*
X88000Y-64700D01*
X80945Y-65145D02*
X87554Y-65145D01*
X80500Y-64700D02*
X80945Y-65145D01*
X76343Y-60921D02*
X75654Y-61610D01*
X76343Y-57621D02*
X76343Y-60921D01*
X77564Y-68382D02*
X77564Y-69144D01*
X78691Y-67256D02*
X77564Y-68382D01*
G54D10*
G36*
X91280Y-72401D02*
X91053Y-72173D01*
X90694Y-72025D01*
X90306Y-72024D01*
X89948Y-72172D01*
X89708Y-72412D01*
X89708Y-66457D01*
X89689Y-66362D01*
X89689Y-66362D01*
X89635Y-66281D01*
X89495Y-66141D01*
X89495Y-61496D01*
X89420Y-61314D01*
X89305Y-61199D01*
X89419Y-61085D01*
X89495Y-60903D01*
X89495Y-60706D01*
X89420Y-60524D01*
X89280Y-60385D01*
X89250Y-60372D01*
X89250Y-59015D01*
X89338Y-58926D01*
X89399Y-58779D01*
X89400Y-58620D01*
X89339Y-58473D01*
X89315Y-58450D01*
X89338Y-58426D01*
X89399Y-58279D01*
X89400Y-58120D01*
X89339Y-57973D01*
X89315Y-57950D01*
X89338Y-57926D01*
X89399Y-57779D01*
X89400Y-57620D01*
X89339Y-57473D01*
X89226Y-57361D01*
X89079Y-57300D01*
X88920Y-57299D01*
X88773Y-57360D01*
X88750Y-57384D01*
X88726Y-57361D01*
X88579Y-57300D01*
X88420Y-57299D01*
X88273Y-57360D01*
X88250Y-57384D01*
X88226Y-57361D01*
X88079Y-57300D01*
X87920Y-57299D01*
X87773Y-57360D01*
X87661Y-57473D01*
X87600Y-57620D01*
X87599Y-57779D01*
X87660Y-57926D01*
X87684Y-57949D01*
X87661Y-57973D01*
X87600Y-58120D01*
X87599Y-58279D01*
X87660Y-58426D01*
X87684Y-58449D01*
X87661Y-58473D01*
X87606Y-58604D01*
X87385Y-58382D01*
X86164Y-57875D01*
X84841Y-57874D01*
X83618Y-58379D01*
X83393Y-58604D01*
X83339Y-58473D01*
X83315Y-58450D01*
X83338Y-58426D01*
X83399Y-58279D01*
X83400Y-58120D01*
X83339Y-57973D01*
X83315Y-57950D01*
X83338Y-57926D01*
X83399Y-57779D01*
X83400Y-57620D01*
X83339Y-57473D01*
X83226Y-57361D01*
X83079Y-57300D01*
X82920Y-57299D01*
X82773Y-57360D01*
X82750Y-57384D01*
X82726Y-57361D01*
X82579Y-57300D01*
X82420Y-57299D01*
X82273Y-57360D01*
X82250Y-57384D01*
X82226Y-57361D01*
X82079Y-57300D01*
X81920Y-57299D01*
X81773Y-57360D01*
X81661Y-57473D01*
X81600Y-57620D01*
X81599Y-57779D01*
X81660Y-57926D01*
X81684Y-57949D01*
X81661Y-57973D01*
X81600Y-58120D01*
X81599Y-58279D01*
X81660Y-58426D01*
X81684Y-58449D01*
X81661Y-58473D01*
X81600Y-58620D01*
X81599Y-58779D01*
X81660Y-58926D01*
X81750Y-59015D01*
X81750Y-60372D01*
X81719Y-60384D01*
X81654Y-60450D01*
X81400Y-60450D01*
X81400Y-56213D01*
X81400Y-55786D01*
X81361Y-55594D01*
X81253Y-55432D01*
X81091Y-55324D01*
X80900Y-55286D01*
X80708Y-55324D01*
X80546Y-55432D01*
X80438Y-55594D01*
X80400Y-55786D01*
X80361Y-55594D01*
X80253Y-55432D01*
X80091Y-55324D01*
X79900Y-55286D01*
X79708Y-55324D01*
X79546Y-55432D01*
X79438Y-55594D01*
X79400Y-55786D01*
X79361Y-55594D01*
X79253Y-55432D01*
X79091Y-55324D01*
X78900Y-55286D01*
X78708Y-55324D01*
X78546Y-55432D01*
X78438Y-55594D01*
X78400Y-55786D01*
X78361Y-55594D01*
X78253Y-55432D01*
X78091Y-55324D01*
X77900Y-55286D01*
X77708Y-55324D01*
X77546Y-55432D01*
X77438Y-55594D01*
X77400Y-55786D01*
X77361Y-55594D01*
X77253Y-55432D01*
X77091Y-55324D01*
X76900Y-55286D01*
X76708Y-55324D01*
X76546Y-55432D01*
X76438Y-55594D01*
X76400Y-55786D01*
X76361Y-55594D01*
X76253Y-55432D01*
X76091Y-55324D01*
X75900Y-55286D01*
X75708Y-55324D01*
X75546Y-55432D01*
X75438Y-55594D01*
X75424Y-55663D01*
X75388Y-55543D01*
X75253Y-55375D01*
X75064Y-55272D01*
X75035Y-55266D01*
X74950Y-55315D01*
X74950Y-55950D01*
X74957Y-55950D01*
X74957Y-56050D01*
X74950Y-56050D01*
X74950Y-56684D01*
X75035Y-56733D01*
X75064Y-56727D01*
X75253Y-56624D01*
X75388Y-56456D01*
X75424Y-56336D01*
X75438Y-56405D01*
X75546Y-56567D01*
X75708Y-56675D01*
X75900Y-56713D01*
X76091Y-56675D01*
X76253Y-56567D01*
X76361Y-56405D01*
X76400Y-56213D01*
X76438Y-56405D01*
X76546Y-56567D01*
X76708Y-56675D01*
X76900Y-56713D01*
X77091Y-56675D01*
X77253Y-56567D01*
X77361Y-56405D01*
X77400Y-56213D01*
X77438Y-56405D01*
X77546Y-56567D01*
X77708Y-56675D01*
X77900Y-56713D01*
X78091Y-56675D01*
X78253Y-56567D01*
X78361Y-56405D01*
X78400Y-56213D01*
X78438Y-56405D01*
X78546Y-56567D01*
X78708Y-56675D01*
X78900Y-56713D01*
X79091Y-56675D01*
X79253Y-56567D01*
X79361Y-56405D01*
X79400Y-56213D01*
X79438Y-56405D01*
X79546Y-56567D01*
X79708Y-56675D01*
X79900Y-56713D01*
X80091Y-56675D01*
X80253Y-56567D01*
X80361Y-56405D01*
X80400Y-56213D01*
X80438Y-56405D01*
X80546Y-56567D01*
X80708Y-56675D01*
X80900Y-56713D01*
X81091Y-56675D01*
X81253Y-56567D01*
X81361Y-56405D01*
X81400Y-56213D01*
X81400Y-60450D01*
X81000Y-60450D01*
X81000Y-60360D01*
X80969Y-60286D01*
X80913Y-60230D01*
X80839Y-60200D01*
X80760Y-60199D01*
X80299Y-60199D01*
X80299Y-59158D01*
X80400Y-59199D01*
X80599Y-59200D01*
X80782Y-59124D01*
X80923Y-58983D01*
X80999Y-58799D01*
X81000Y-58600D01*
X80924Y-58417D01*
X80783Y-58276D01*
X80726Y-58252D01*
X80730Y-58245D01*
X80740Y-58200D01*
X80839Y-58200D01*
X80913Y-58169D01*
X80969Y-58113D01*
X80999Y-58039D01*
X81000Y-57960D01*
X81000Y-57360D01*
X80969Y-57286D01*
X80913Y-57230D01*
X80839Y-57200D01*
X80760Y-57199D01*
X80160Y-57199D01*
X80086Y-57230D01*
X80030Y-57286D01*
X80000Y-57360D01*
X79999Y-57439D01*
X79999Y-58039D01*
X80030Y-58113D01*
X80050Y-58133D01*
X79873Y-58310D01*
X79818Y-58392D01*
X79799Y-58487D01*
X79799Y-64249D01*
X79818Y-64345D01*
X79873Y-64426D01*
X80013Y-64567D01*
X80000Y-64600D01*
X79999Y-64799D01*
X80075Y-64982D01*
X80216Y-65123D01*
X80400Y-65199D01*
X80599Y-65200D01*
X80632Y-65186D01*
X80768Y-65322D01*
X80768Y-65322D01*
X80817Y-65354D01*
X80849Y-65376D01*
X80849Y-65376D01*
X80945Y-65395D01*
X87554Y-65395D01*
X87650Y-65376D01*
X87731Y-65322D01*
X87953Y-65099D01*
X88079Y-65100D01*
X88226Y-65039D01*
X88249Y-65015D01*
X88273Y-65038D01*
X88420Y-65099D01*
X88579Y-65100D01*
X88726Y-65039D01*
X88749Y-65015D01*
X88773Y-65038D01*
X88920Y-65099D01*
X89079Y-65100D01*
X89226Y-65039D01*
X89338Y-64926D01*
X89399Y-64779D01*
X89400Y-64620D01*
X89339Y-64473D01*
X89315Y-64450D01*
X89338Y-64426D01*
X89399Y-64279D01*
X89400Y-64120D01*
X89339Y-63973D01*
X89315Y-63950D01*
X89338Y-63926D01*
X89399Y-63779D01*
X89400Y-63620D01*
X89339Y-63473D01*
X89250Y-63384D01*
X89250Y-62027D01*
X89280Y-62015D01*
X89419Y-61875D01*
X89495Y-61693D01*
X89495Y-61496D01*
X89495Y-66141D01*
X89134Y-65779D01*
X89134Y-65684D01*
X89077Y-65546D01*
X88971Y-65440D01*
X88834Y-65383D01*
X88685Y-65383D01*
X88547Y-65440D01*
X88441Y-65545D01*
X88384Y-65683D01*
X88384Y-65832D01*
X88441Y-65970D01*
X88546Y-66076D01*
X88684Y-66133D01*
X88780Y-66133D01*
X88797Y-66150D01*
X88773Y-66160D01*
X88750Y-66184D01*
X88726Y-66161D01*
X88579Y-66100D01*
X88420Y-66099D01*
X88273Y-66160D01*
X88250Y-66184D01*
X88226Y-66161D01*
X88079Y-66100D01*
X87920Y-66099D01*
X87773Y-66160D01*
X87661Y-66273D01*
X87600Y-66420D01*
X87599Y-66579D01*
X87660Y-66726D01*
X87684Y-66749D01*
X87661Y-66773D01*
X87600Y-66920D01*
X87599Y-67079D01*
X87660Y-67226D01*
X87684Y-67249D01*
X87661Y-67273D01*
X87606Y-67404D01*
X87385Y-67182D01*
X86164Y-66675D01*
X84841Y-66674D01*
X83618Y-67179D01*
X83393Y-67404D01*
X83339Y-67273D01*
X83315Y-67250D01*
X83338Y-67226D01*
X83399Y-67079D01*
X83400Y-66920D01*
X83339Y-66773D01*
X83315Y-66750D01*
X83338Y-66726D01*
X83399Y-66579D01*
X83400Y-66420D01*
X83339Y-66273D01*
X83226Y-66161D01*
X83079Y-66100D01*
X82920Y-66099D01*
X82773Y-66160D01*
X82750Y-66184D01*
X82726Y-66161D01*
X82579Y-66100D01*
X82420Y-66099D01*
X82273Y-66160D01*
X82250Y-66184D01*
X82226Y-66161D01*
X82079Y-66100D01*
X81920Y-66099D01*
X81773Y-66160D01*
X81661Y-66273D01*
X81600Y-66420D01*
X81599Y-66579D01*
X81660Y-66726D01*
X81684Y-66749D01*
X81661Y-66773D01*
X81600Y-66920D01*
X81599Y-67079D01*
X81660Y-67226D01*
X81684Y-67249D01*
X81661Y-67273D01*
X81600Y-67420D01*
X81599Y-67579D01*
X81660Y-67726D01*
X81750Y-67815D01*
X81750Y-69172D01*
X81719Y-69184D01*
X81654Y-69250D01*
X81000Y-69250D01*
X81000Y-69160D01*
X80969Y-69086D01*
X80913Y-69030D01*
X80839Y-69000D01*
X80760Y-68999D01*
X80297Y-68999D01*
X80297Y-67957D01*
X80400Y-67999D01*
X80599Y-68000D01*
X80782Y-67924D01*
X80923Y-67783D01*
X80999Y-67599D01*
X81000Y-67400D01*
X80924Y-67217D01*
X80783Y-67076D01*
X80599Y-67000D01*
X80539Y-67000D01*
X80839Y-67000D01*
X80913Y-66969D01*
X80969Y-66913D01*
X80999Y-66839D01*
X81000Y-66760D01*
X81000Y-66160D01*
X80969Y-66086D01*
X80913Y-66030D01*
X80839Y-66000D01*
X80760Y-65999D01*
X80160Y-65999D01*
X80119Y-66016D01*
X79711Y-65609D01*
X79711Y-59382D01*
X79654Y-59244D01*
X79549Y-59139D01*
X79411Y-59081D01*
X79315Y-59081D01*
X77841Y-57608D01*
X77760Y-57554D01*
X77664Y-57535D01*
X77476Y-57535D01*
X77409Y-57467D01*
X77271Y-57410D01*
X77122Y-57409D01*
X76984Y-57466D01*
X76878Y-57572D01*
X76821Y-57710D01*
X76821Y-57859D01*
X76878Y-57997D01*
X76983Y-58102D01*
X77121Y-58159D01*
X77270Y-58160D01*
X77408Y-58103D01*
X77476Y-58035D01*
X77561Y-58035D01*
X78961Y-59435D01*
X78961Y-59531D01*
X79018Y-59669D01*
X79124Y-59774D01*
X79261Y-59831D01*
X79411Y-59831D01*
X79548Y-59775D01*
X79654Y-59669D01*
X79711Y-59531D01*
X79711Y-59382D01*
X79711Y-65609D01*
X78811Y-64709D01*
X78811Y-64613D01*
X78754Y-64475D01*
X78734Y-64455D01*
X78734Y-60213D01*
X78677Y-60075D01*
X78571Y-59970D01*
X78434Y-59913D01*
X78284Y-59912D01*
X78146Y-59969D01*
X78041Y-60075D01*
X77984Y-60213D01*
X77984Y-60362D01*
X78041Y-60500D01*
X78109Y-60568D01*
X78109Y-60741D01*
X76718Y-62131D01*
X76718Y-57546D01*
X76661Y-57409D01*
X76556Y-57303D01*
X76418Y-57246D01*
X76269Y-57246D01*
X76131Y-57303D01*
X76025Y-57408D01*
X75968Y-57546D01*
X75968Y-57695D01*
X76025Y-57833D01*
X76093Y-57901D01*
X76093Y-60818D01*
X75675Y-61235D01*
X75580Y-61235D01*
X75442Y-61292D01*
X75336Y-61398D01*
X75279Y-61536D01*
X75279Y-61685D01*
X75336Y-61823D01*
X75441Y-61928D01*
X75579Y-61985D01*
X75728Y-61986D01*
X75866Y-61929D01*
X75972Y-61823D01*
X76029Y-61685D01*
X76029Y-61589D01*
X76520Y-61098D01*
X76520Y-61098D01*
X76520Y-61098D01*
X76574Y-61017D01*
X76574Y-61017D01*
X76593Y-60921D01*
X76593Y-57901D01*
X76661Y-57833D01*
X76718Y-57696D01*
X76718Y-57546D01*
X76718Y-62131D01*
X74350Y-64499D01*
X74339Y-64473D01*
X74315Y-64450D01*
X74338Y-64426D01*
X74399Y-64279D01*
X74400Y-64120D01*
X74339Y-63973D01*
X74315Y-63950D01*
X74338Y-63926D01*
X74399Y-63779D01*
X74400Y-63620D01*
X74339Y-63473D01*
X74250Y-63384D01*
X74250Y-62027D01*
X74280Y-62015D01*
X74419Y-61875D01*
X74495Y-61693D01*
X74495Y-61496D01*
X74420Y-61314D01*
X74305Y-61199D01*
X74419Y-61085D01*
X74495Y-60903D01*
X74495Y-60706D01*
X74420Y-60524D01*
X74280Y-60385D01*
X74250Y-60372D01*
X74250Y-59015D01*
X74338Y-58926D01*
X74399Y-58779D01*
X74400Y-58620D01*
X74339Y-58473D01*
X74315Y-58450D01*
X74338Y-58426D01*
X74399Y-58279D01*
X74400Y-58120D01*
X74339Y-57973D01*
X74315Y-57950D01*
X74338Y-57926D01*
X74399Y-57779D01*
X74400Y-57620D01*
X74339Y-57473D01*
X74226Y-57361D01*
X74079Y-57300D01*
X73920Y-57299D01*
X73773Y-57360D01*
X73750Y-57384D01*
X73726Y-57361D01*
X73579Y-57300D01*
X73420Y-57299D01*
X73273Y-57360D01*
X73250Y-57384D01*
X73226Y-57361D01*
X73079Y-57300D01*
X72953Y-57299D01*
X72818Y-57164D01*
X72737Y-57110D01*
X72641Y-57091D01*
X66308Y-57091D01*
X66308Y-57091D01*
X66289Y-57095D01*
X66212Y-57110D01*
X66131Y-57164D01*
X66131Y-57164D01*
X65981Y-57315D01*
X65969Y-57286D01*
X65913Y-57230D01*
X65839Y-57200D01*
X65760Y-57199D01*
X65160Y-57199D01*
X65086Y-57230D01*
X65030Y-57286D01*
X65000Y-57360D01*
X64999Y-57439D01*
X64999Y-58039D01*
X65030Y-58113D01*
X65050Y-58133D01*
X64873Y-58310D01*
X64818Y-58392D01*
X64799Y-58487D01*
X64799Y-64249D01*
X64818Y-64345D01*
X64873Y-64426D01*
X65013Y-64567D01*
X65000Y-64600D01*
X64999Y-64799D01*
X65075Y-64982D01*
X65216Y-65123D01*
X65400Y-65199D01*
X65599Y-65200D01*
X65782Y-65124D01*
X65923Y-64983D01*
X65999Y-64799D01*
X66000Y-64600D01*
X65924Y-64417D01*
X65783Y-64276D01*
X65599Y-64200D01*
X65539Y-64200D01*
X65839Y-64200D01*
X65913Y-64169D01*
X65969Y-64113D01*
X65999Y-64039D01*
X66000Y-63960D01*
X66000Y-63950D01*
X66684Y-63950D01*
X66661Y-63973D01*
X66600Y-64120D01*
X66599Y-64279D01*
X66660Y-64426D01*
X66684Y-64449D01*
X66661Y-64473D01*
X66600Y-64620D01*
X66599Y-64779D01*
X66660Y-64926D01*
X66773Y-65038D01*
X66920Y-65099D01*
X67079Y-65100D01*
X67226Y-65039D01*
X67249Y-65015D01*
X67273Y-65038D01*
X67420Y-65099D01*
X67579Y-65100D01*
X67726Y-65039D01*
X67749Y-65015D01*
X67773Y-65038D01*
X67920Y-65099D01*
X68046Y-65100D01*
X68268Y-65322D01*
X68268Y-65322D01*
X68349Y-65376D01*
X68349Y-65376D01*
X68426Y-65391D01*
X68445Y-65395D01*
X68445Y-65395D01*
X68445Y-65395D01*
X74058Y-65395D01*
X74153Y-65376D01*
X74234Y-65322D01*
X78535Y-61021D01*
X78590Y-60940D01*
X78590Y-60940D01*
X78609Y-60844D01*
X78609Y-60568D01*
X78676Y-60500D01*
X78734Y-60362D01*
X78734Y-60213D01*
X78734Y-64455D01*
X78649Y-64370D01*
X78511Y-64313D01*
X78362Y-64312D01*
X78224Y-64369D01*
X78118Y-64475D01*
X78061Y-64613D01*
X78061Y-64655D01*
X77674Y-64268D01*
X77593Y-64214D01*
X77497Y-64195D01*
X75922Y-64195D01*
X75854Y-64127D01*
X75717Y-64070D01*
X75567Y-64070D01*
X75430Y-64127D01*
X75324Y-64232D01*
X75267Y-64370D01*
X75267Y-64519D01*
X75324Y-64657D01*
X75429Y-64763D01*
X75567Y-64820D01*
X75716Y-64820D01*
X75854Y-64763D01*
X75922Y-64695D01*
X77394Y-64695D01*
X77702Y-65004D01*
X77696Y-65006D01*
X77627Y-65075D01*
X77463Y-65075D01*
X77367Y-65094D01*
X77286Y-65148D01*
X76401Y-66033D01*
X76347Y-66114D01*
X76328Y-66210D01*
X76328Y-66812D01*
X76260Y-66880D01*
X76203Y-67018D01*
X76203Y-67167D01*
X76259Y-67305D01*
X76365Y-67410D01*
X76503Y-67468D01*
X76652Y-67468D01*
X76790Y-67411D01*
X76895Y-67305D01*
X76953Y-67167D01*
X76953Y-67018D01*
X76896Y-66880D01*
X76828Y-66812D01*
X76828Y-66712D01*
X76875Y-66826D01*
X76980Y-66932D01*
X77118Y-66989D01*
X77267Y-66989D01*
X77405Y-66932D01*
X77473Y-66864D01*
X78413Y-66864D01*
X78484Y-66935D01*
X78479Y-66937D01*
X78373Y-67043D01*
X78316Y-67181D01*
X78316Y-67277D01*
X77387Y-68206D01*
X77333Y-68287D01*
X77314Y-68382D01*
X77314Y-68864D01*
X77246Y-68932D01*
X77189Y-69070D01*
X77189Y-69219D01*
X77246Y-69357D01*
X77351Y-69462D01*
X77489Y-69519D01*
X77638Y-69520D01*
X77776Y-69463D01*
X77882Y-69357D01*
X77939Y-69219D01*
X77939Y-69070D01*
X77882Y-68932D01*
X77814Y-68864D01*
X77814Y-68486D01*
X78670Y-67631D01*
X78765Y-67631D01*
X78853Y-67595D01*
X78853Y-68066D01*
X78785Y-68134D01*
X78785Y-68134D01*
X78685Y-68093D01*
X78536Y-68093D01*
X78398Y-68149D01*
X78292Y-68255D01*
X78235Y-68393D01*
X78235Y-68542D01*
X78292Y-68680D01*
X78360Y-68748D01*
X78360Y-69306D01*
X77572Y-70095D01*
X77555Y-70098D01*
X77478Y-70113D01*
X77397Y-70168D01*
X77397Y-70168D01*
X75010Y-72555D01*
X74956Y-72636D01*
X74941Y-72709D01*
X74350Y-73300D01*
X74339Y-73273D01*
X74315Y-73250D01*
X74338Y-73226D01*
X74399Y-73079D01*
X74400Y-72920D01*
X74339Y-72773D01*
X74315Y-72750D01*
X74338Y-72726D01*
X74399Y-72579D01*
X74400Y-72420D01*
X74339Y-72273D01*
X74250Y-72184D01*
X74250Y-70827D01*
X74280Y-70815D01*
X74419Y-70675D01*
X74495Y-70493D01*
X74495Y-70296D01*
X74420Y-70114D01*
X74305Y-69999D01*
X74419Y-69885D01*
X74495Y-69703D01*
X74495Y-69506D01*
X74420Y-69324D01*
X74280Y-69185D01*
X74250Y-69172D01*
X74250Y-67815D01*
X74338Y-67726D01*
X74399Y-67579D01*
X74400Y-67420D01*
X74339Y-67273D01*
X74315Y-67250D01*
X74338Y-67226D01*
X74399Y-67079D01*
X74400Y-66920D01*
X74339Y-66773D01*
X74315Y-66750D01*
X74338Y-66726D01*
X74399Y-66579D01*
X74400Y-66420D01*
X74339Y-66273D01*
X74226Y-66161D01*
X74079Y-66100D01*
X73920Y-66099D01*
X73773Y-66160D01*
X73750Y-66184D01*
X73726Y-66161D01*
X73579Y-66100D01*
X73420Y-66099D01*
X73273Y-66160D01*
X73250Y-66184D01*
X73226Y-66161D01*
X73079Y-66100D01*
X72953Y-66099D01*
X72811Y-65957D01*
X72730Y-65903D01*
X72634Y-65884D01*
X66315Y-65884D01*
X66220Y-65903D01*
X66138Y-65957D01*
X65981Y-66115D01*
X65969Y-66086D01*
X65913Y-66030D01*
X65839Y-66000D01*
X65760Y-65999D01*
X65160Y-65999D01*
X65086Y-66030D01*
X65030Y-66086D01*
X65000Y-66160D01*
X64999Y-66239D01*
X64999Y-66839D01*
X65030Y-66913D01*
X65050Y-66933D01*
X64873Y-67110D01*
X64818Y-67192D01*
X64799Y-67287D01*
X64799Y-73049D01*
X64818Y-73145D01*
X64873Y-73226D01*
X65013Y-73367D01*
X65000Y-73400D01*
X64999Y-73599D01*
X65075Y-73782D01*
X65216Y-73923D01*
X65400Y-73999D01*
X65599Y-74000D01*
X65782Y-73924D01*
X65923Y-73783D01*
X65999Y-73599D01*
X66000Y-73400D01*
X65924Y-73217D01*
X65783Y-73076D01*
X65599Y-73000D01*
X65539Y-73000D01*
X65839Y-73000D01*
X65913Y-72969D01*
X65969Y-72913D01*
X65999Y-72839D01*
X66000Y-72760D01*
X66000Y-72160D01*
X65969Y-72086D01*
X65913Y-72030D01*
X65839Y-72000D01*
X65760Y-71999D01*
X65750Y-71999D01*
X65750Y-70937D01*
X65782Y-70924D01*
X65923Y-70783D01*
X65999Y-70599D01*
X66000Y-70400D01*
X65924Y-70217D01*
X65783Y-70076D01*
X65599Y-70000D01*
X65539Y-70000D01*
X65839Y-70000D01*
X65913Y-69969D01*
X65969Y-69913D01*
X65999Y-69839D01*
X66000Y-69760D01*
X66000Y-69160D01*
X65969Y-69086D01*
X65913Y-69030D01*
X65839Y-69000D01*
X65760Y-68999D01*
X65750Y-68999D01*
X65750Y-67937D01*
X65782Y-67924D01*
X65923Y-67783D01*
X65999Y-67599D01*
X66000Y-67400D01*
X65924Y-67217D01*
X65783Y-67076D01*
X65726Y-67052D01*
X65730Y-67045D01*
X65740Y-67000D01*
X65839Y-67000D01*
X65913Y-66969D01*
X65969Y-66913D01*
X65999Y-66839D01*
X66000Y-66760D01*
X66000Y-66740D01*
X66045Y-66730D01*
X66126Y-66676D01*
X66419Y-66384D01*
X66614Y-66384D01*
X66600Y-66420D01*
X66599Y-66579D01*
X66660Y-66726D01*
X66684Y-66749D01*
X66661Y-66773D01*
X66600Y-66920D01*
X66599Y-67079D01*
X66660Y-67226D01*
X66684Y-67249D01*
X66661Y-67273D01*
X66600Y-67420D01*
X66599Y-67579D01*
X66660Y-67726D01*
X66773Y-67838D01*
X66920Y-67899D01*
X67079Y-67900D01*
X67226Y-67839D01*
X67249Y-67815D01*
X67273Y-67838D01*
X67420Y-67899D01*
X67579Y-67900D01*
X67726Y-67839D01*
X67749Y-67815D01*
X67773Y-67838D01*
X67904Y-67893D01*
X67682Y-68114D01*
X67244Y-69170D01*
X67098Y-69109D01*
X66901Y-69109D01*
X66719Y-69184D01*
X66580Y-69324D01*
X66504Y-69506D01*
X66504Y-69703D01*
X66579Y-69885D01*
X66694Y-70000D01*
X66580Y-70114D01*
X66504Y-70296D01*
X66504Y-70493D01*
X66579Y-70675D01*
X66719Y-70814D01*
X66901Y-70890D01*
X67098Y-70890D01*
X67245Y-70829D01*
X67679Y-71881D01*
X67904Y-72106D01*
X67773Y-72160D01*
X67750Y-72184D01*
X67726Y-72161D01*
X67579Y-72100D01*
X67420Y-72099D01*
X67273Y-72160D01*
X67250Y-72184D01*
X67226Y-72161D01*
X67079Y-72100D01*
X66920Y-72099D01*
X66773Y-72160D01*
X66661Y-72273D01*
X66600Y-72420D01*
X66599Y-72579D01*
X66660Y-72726D01*
X66684Y-72749D01*
X66661Y-72773D01*
X66600Y-72920D01*
X66599Y-73079D01*
X66660Y-73226D01*
X66684Y-73249D01*
X66661Y-73273D01*
X66600Y-73420D01*
X66599Y-73579D01*
X66660Y-73726D01*
X66773Y-73838D01*
X66920Y-73899D01*
X67079Y-73900D01*
X67226Y-73839D01*
X67249Y-73815D01*
X67273Y-73838D01*
X67420Y-73899D01*
X67579Y-73900D01*
X67726Y-73839D01*
X67749Y-73815D01*
X67773Y-73838D01*
X67920Y-73899D01*
X68046Y-73900D01*
X68268Y-74122D01*
X68349Y-74176D01*
X68445Y-74195D01*
X69425Y-74195D01*
X69173Y-74446D01*
X69025Y-74805D01*
X69024Y-75193D01*
X69172Y-75551D01*
X69401Y-75780D01*
X64719Y-75780D01*
X64719Y-55219D01*
X69901Y-55219D01*
X69673Y-55446D01*
X69525Y-55805D01*
X69524Y-56193D01*
X69672Y-56551D01*
X69946Y-56826D01*
X70305Y-56974D01*
X70693Y-56975D01*
X71051Y-56827D01*
X71326Y-56553D01*
X71421Y-56322D01*
X71438Y-56405D01*
X71546Y-56567D01*
X71708Y-56675D01*
X71900Y-56713D01*
X72091Y-56675D01*
X72253Y-56567D01*
X72361Y-56405D01*
X72400Y-56213D01*
X72438Y-56405D01*
X72546Y-56567D01*
X72708Y-56675D01*
X72900Y-56713D01*
X73091Y-56675D01*
X73253Y-56567D01*
X73361Y-56405D01*
X73400Y-56213D01*
X73438Y-56405D01*
X73546Y-56567D01*
X73708Y-56675D01*
X73900Y-56713D01*
X74091Y-56675D01*
X74253Y-56567D01*
X74361Y-56405D01*
X74375Y-56336D01*
X74411Y-56456D01*
X74546Y-56624D01*
X74735Y-56727D01*
X74764Y-56733D01*
X74850Y-56684D01*
X74850Y-56050D01*
X74842Y-56050D01*
X74842Y-55950D01*
X74850Y-55950D01*
X74850Y-55315D01*
X74764Y-55266D01*
X74735Y-55272D01*
X74546Y-55375D01*
X74411Y-55543D01*
X74375Y-55663D01*
X74361Y-55594D01*
X74253Y-55432D01*
X74091Y-55324D01*
X73900Y-55286D01*
X73708Y-55324D01*
X73546Y-55432D01*
X73438Y-55594D01*
X73400Y-55786D01*
X73361Y-55594D01*
X73253Y-55432D01*
X73091Y-55324D01*
X72900Y-55286D01*
X72708Y-55324D01*
X72546Y-55432D01*
X72438Y-55594D01*
X72400Y-55786D01*
X72361Y-55594D01*
X72253Y-55432D01*
X72091Y-55324D01*
X71900Y-55286D01*
X71708Y-55324D01*
X71546Y-55432D01*
X71438Y-55594D01*
X71421Y-55677D01*
X71327Y-55448D01*
X71098Y-55219D01*
X91280Y-55219D01*
X91280Y-61401D01*
X91053Y-61173D01*
X90694Y-61025D01*
X90306Y-61024D01*
X90000Y-61151D01*
X90000Y-56213D01*
X90000Y-55786D01*
X89961Y-55594D01*
X89853Y-55432D01*
X89691Y-55324D01*
X89500Y-55286D01*
X89308Y-55324D01*
X89146Y-55432D01*
X89038Y-55594D01*
X89000Y-55786D01*
X88961Y-55594D01*
X88853Y-55432D01*
X88691Y-55324D01*
X88500Y-55286D01*
X88308Y-55324D01*
X88146Y-55432D01*
X88038Y-55594D01*
X88000Y-55786D01*
X87961Y-55594D01*
X87853Y-55432D01*
X87691Y-55324D01*
X87500Y-55286D01*
X87308Y-55324D01*
X87146Y-55432D01*
X87038Y-55594D01*
X87000Y-55786D01*
X86961Y-55594D01*
X86853Y-55432D01*
X86691Y-55324D01*
X86500Y-55286D01*
X86308Y-55324D01*
X86146Y-55432D01*
X86038Y-55594D01*
X86000Y-55786D01*
X85961Y-55594D01*
X85853Y-55432D01*
X85691Y-55324D01*
X85500Y-55286D01*
X85308Y-55324D01*
X85146Y-55432D01*
X85038Y-55594D01*
X85000Y-55786D01*
X84961Y-55594D01*
X84853Y-55432D01*
X84691Y-55324D01*
X84500Y-55286D01*
X84308Y-55324D01*
X84146Y-55432D01*
X84038Y-55594D01*
X84000Y-55786D01*
X83961Y-55594D01*
X83853Y-55432D01*
X83691Y-55324D01*
X83500Y-55286D01*
X83308Y-55324D01*
X83146Y-55432D01*
X83038Y-55594D01*
X83000Y-55786D01*
X82961Y-55594D01*
X82853Y-55432D01*
X82691Y-55324D01*
X82500Y-55286D01*
X82308Y-55324D01*
X82146Y-55432D01*
X82038Y-55594D01*
X82000Y-55786D01*
X82000Y-56213D01*
X82038Y-56405D01*
X82146Y-56567D01*
X82308Y-56675D01*
X82500Y-56713D01*
X82691Y-56675D01*
X82853Y-56567D01*
X82961Y-56405D01*
X83000Y-56213D01*
X83038Y-56405D01*
X83146Y-56567D01*
X83308Y-56675D01*
X83500Y-56713D01*
X83691Y-56675D01*
X83853Y-56567D01*
X83961Y-56405D01*
X84000Y-56213D01*
X84038Y-56405D01*
X84146Y-56567D01*
X84308Y-56675D01*
X84500Y-56713D01*
X84691Y-56675D01*
X84853Y-56567D01*
X84961Y-56405D01*
X85000Y-56213D01*
X85038Y-56405D01*
X85146Y-56567D01*
X85308Y-56675D01*
X85500Y-56713D01*
X85691Y-56675D01*
X85853Y-56567D01*
X85961Y-56405D01*
X86000Y-56213D01*
X86038Y-56405D01*
X86146Y-56567D01*
X86308Y-56675D01*
X86500Y-56713D01*
X86691Y-56675D01*
X86853Y-56567D01*
X86961Y-56405D01*
X87000Y-56213D01*
X87038Y-56405D01*
X87146Y-56567D01*
X87308Y-56675D01*
X87500Y-56713D01*
X87691Y-56675D01*
X87853Y-56567D01*
X87961Y-56405D01*
X88000Y-56213D01*
X88038Y-56405D01*
X88146Y-56567D01*
X88308Y-56675D01*
X88500Y-56713D01*
X88691Y-56675D01*
X88853Y-56567D01*
X88961Y-56405D01*
X89000Y-56213D01*
X89038Y-56405D01*
X89146Y-56567D01*
X89308Y-56675D01*
X89500Y-56713D01*
X89691Y-56675D01*
X89853Y-56567D01*
X89961Y-56405D01*
X90000Y-56213D01*
X90000Y-61151D01*
X89948Y-61172D01*
X89673Y-61446D01*
X89525Y-61805D01*
X89524Y-62193D01*
X89672Y-62551D01*
X89946Y-62826D01*
X90305Y-62974D01*
X90693Y-62975D01*
X91051Y-62827D01*
X91280Y-62598D01*
X91280Y-72401D01*
X91280Y-72401D01*
G37*
G54D19*
X91280Y-72401D02*
X91053Y-72173D01*
X90694Y-72025D01*
X90306Y-72024D01*
X89948Y-72172D01*
X89708Y-72412D01*
X89708Y-66457D01*
X89689Y-66362D01*
X89689Y-66362D01*
X89635Y-66281D01*
X89495Y-66141D01*
X89495Y-61496D01*
X89420Y-61314D01*
X89305Y-61199D01*
X89419Y-61085D01*
X89495Y-60903D01*
X89495Y-60706D01*
X89420Y-60524D01*
X89280Y-60385D01*
X89250Y-60372D01*
X89250Y-59015D01*
X89338Y-58926D01*
X89399Y-58779D01*
X89400Y-58620D01*
X89339Y-58473D01*
X89315Y-58450D01*
X89338Y-58426D01*
X89399Y-58279D01*
X89400Y-58120D01*
X89339Y-57973D01*
X89315Y-57950D01*
X89338Y-57926D01*
X89399Y-57779D01*
X89400Y-57620D01*
X89339Y-57473D01*
X89226Y-57361D01*
X89079Y-57300D01*
X88920Y-57299D01*
X88773Y-57360D01*
X88750Y-57384D01*
X88726Y-57361D01*
X88579Y-57300D01*
X88420Y-57299D01*
X88273Y-57360D01*
X88250Y-57384D01*
X88226Y-57361D01*
X88079Y-57300D01*
X87920Y-57299D01*
X87773Y-57360D01*
X87661Y-57473D01*
X87600Y-57620D01*
X87599Y-57779D01*
X87660Y-57926D01*
X87684Y-57949D01*
X87661Y-57973D01*
X87600Y-58120D01*
X87599Y-58279D01*
X87660Y-58426D01*
X87684Y-58449D01*
X87661Y-58473D01*
X87606Y-58604D01*
X87385Y-58382D01*
X86164Y-57875D01*
X84841Y-57874D01*
X83618Y-58379D01*
X83393Y-58604D01*
X83339Y-58473D01*
X83315Y-58450D01*
X83338Y-58426D01*
X83399Y-58279D01*
X83400Y-58120D01*
X83339Y-57973D01*
X83315Y-57950D01*
X83338Y-57926D01*
X83399Y-57779D01*
X83400Y-57620D01*
X83339Y-57473D01*
X83226Y-57361D01*
X83079Y-57300D01*
X82920Y-57299D01*
X82773Y-57360D01*
X82750Y-57384D01*
X82726Y-57361D01*
X82579Y-57300D01*
X82420Y-57299D01*
X82273Y-57360D01*
X82250Y-57384D01*
X82226Y-57361D01*
X82079Y-57300D01*
X81920Y-57299D01*
X81773Y-57360D01*
X81661Y-57473D01*
X81600Y-57620D01*
X81599Y-57779D01*
X81660Y-57926D01*
X81684Y-57949D01*
X81661Y-57973D01*
X81600Y-58120D01*
X81599Y-58279D01*
X81660Y-58426D01*
X81684Y-58449D01*
X81661Y-58473D01*
X81600Y-58620D01*
X81599Y-58779D01*
X81660Y-58926D01*
X81750Y-59015D01*
X81750Y-60372D01*
X81719Y-60384D01*
X81654Y-60450D01*
X81400Y-60450D01*
X81400Y-56213D01*
X81400Y-55786D01*
X81361Y-55594D01*
X81253Y-55432D01*
X81091Y-55324D01*
X80900Y-55286D01*
X80708Y-55324D01*
X80546Y-55432D01*
X80438Y-55594D01*
X80400Y-55786D01*
X80361Y-55594D01*
X80253Y-55432D01*
X80091Y-55324D01*
X79900Y-55286D01*
X79708Y-55324D01*
X79546Y-55432D01*
X79438Y-55594D01*
X79400Y-55786D01*
X79361Y-55594D01*
X79253Y-55432D01*
X79091Y-55324D01*
X78900Y-55286D01*
X78708Y-55324D01*
X78546Y-55432D01*
X78438Y-55594D01*
X78400Y-55786D01*
X78361Y-55594D01*
X78253Y-55432D01*
X78091Y-55324D01*
X77900Y-55286D01*
X77708Y-55324D01*
X77546Y-55432D01*
X77438Y-55594D01*
X77400Y-55786D01*
X77361Y-55594D01*
X77253Y-55432D01*
X77091Y-55324D01*
X76900Y-55286D01*
X76708Y-55324D01*
X76546Y-55432D01*
X76438Y-55594D01*
X76400Y-55786D01*
X76361Y-55594D01*
X76253Y-55432D01*
X76091Y-55324D01*
X75900Y-55286D01*
X75708Y-55324D01*
X75546Y-55432D01*
X75438Y-55594D01*
X75424Y-55663D01*
X75388Y-55543D01*
X75253Y-55375D01*
X75064Y-55272D01*
X75035Y-55266D01*
X74950Y-55315D01*
X74950Y-55950D01*
X74957Y-55950D01*
X74957Y-56050D01*
X74950Y-56050D01*
X74950Y-56684D01*
X75035Y-56733D01*
X75064Y-56727D01*
X75253Y-56624D01*
X75388Y-56456D01*
X75424Y-56336D01*
X75438Y-56405D01*
X75546Y-56567D01*
X75708Y-56675D01*
X75900Y-56713D01*
X76091Y-56675D01*
X76253Y-56567D01*
X76361Y-56405D01*
X76400Y-56213D01*
X76438Y-56405D01*
X76546Y-56567D01*
X76708Y-56675D01*
X76900Y-56713D01*
X77091Y-56675D01*
X77253Y-56567D01*
X77361Y-56405D01*
X77400Y-56213D01*
X77438Y-56405D01*
X77546Y-56567D01*
X77708Y-56675D01*
X77900Y-56713D01*
X78091Y-56675D01*
X78253Y-56567D01*
X78361Y-56405D01*
X78400Y-56213D01*
X78438Y-56405D01*
X78546Y-56567D01*
X78708Y-56675D01*
X78900Y-56713D01*
X79091Y-56675D01*
X79253Y-56567D01*
X79361Y-56405D01*
X79400Y-56213D01*
X79438Y-56405D01*
X79546Y-56567D01*
X79708Y-56675D01*
X79900Y-56713D01*
X80091Y-56675D01*
X80253Y-56567D01*
X80361Y-56405D01*
X80400Y-56213D01*
X80438Y-56405D01*
X80546Y-56567D01*
X80708Y-56675D01*
X80900Y-56713D01*
X81091Y-56675D01*
X81253Y-56567D01*
X81361Y-56405D01*
X81400Y-56213D01*
X81400Y-60450D01*
X81000Y-60450D01*
X81000Y-60360D01*
X80969Y-60286D01*
X80913Y-60230D01*
X80839Y-60200D01*
X80760Y-60199D01*
X80299Y-60199D01*
X80299Y-59158D01*
X80400Y-59199D01*
X80599Y-59200D01*
X80782Y-59124D01*
X80923Y-58983D01*
X80999Y-58799D01*
X81000Y-58600D01*
X80924Y-58417D01*
X80783Y-58276D01*
X80726Y-58252D01*
X80730Y-58245D01*
X80740Y-58200D01*
X80839Y-58200D01*
X80913Y-58169D01*
X80969Y-58113D01*
X80999Y-58039D01*
X81000Y-57960D01*
X81000Y-57360D01*
X80969Y-57286D01*
X80913Y-57230D01*
X80839Y-57200D01*
X80760Y-57199D01*
X80160Y-57199D01*
X80086Y-57230D01*
X80030Y-57286D01*
X80000Y-57360D01*
X79999Y-57439D01*
X79999Y-58039D01*
X80030Y-58113D01*
X80050Y-58133D01*
X79873Y-58310D01*
X79818Y-58392D01*
X79799Y-58487D01*
X79799Y-64249D01*
X79818Y-64345D01*
X79873Y-64426D01*
X80013Y-64567D01*
X80000Y-64600D01*
X79999Y-64799D01*
X80075Y-64982D01*
X80216Y-65123D01*
X80400Y-65199D01*
X80599Y-65200D01*
X80632Y-65186D01*
X80768Y-65322D01*
X80768Y-65322D01*
X80817Y-65354D01*
X80849Y-65376D01*
X80849Y-65376D01*
X80945Y-65395D01*
X87554Y-65395D01*
X87650Y-65376D01*
X87731Y-65322D01*
X87953Y-65099D01*
X88079Y-65100D01*
X88226Y-65039D01*
X88249Y-65015D01*
X88273Y-65038D01*
X88420Y-65099D01*
X88579Y-65100D01*
X88726Y-65039D01*
X88749Y-65015D01*
X88773Y-65038D01*
X88920Y-65099D01*
X89079Y-65100D01*
X89226Y-65039D01*
X89338Y-64926D01*
X89399Y-64779D01*
X89400Y-64620D01*
X89339Y-64473D01*
X89315Y-64450D01*
X89338Y-64426D01*
X89399Y-64279D01*
X89400Y-64120D01*
X89339Y-63973D01*
X89315Y-63950D01*
X89338Y-63926D01*
X89399Y-63779D01*
X89400Y-63620D01*
X89339Y-63473D01*
X89250Y-63384D01*
X89250Y-62027D01*
X89280Y-62015D01*
X89419Y-61875D01*
X89495Y-61693D01*
X89495Y-61496D01*
X89495Y-66141D01*
X89134Y-65779D01*
X89134Y-65684D01*
X89077Y-65546D01*
X88971Y-65440D01*
X88834Y-65383D01*
X88685Y-65383D01*
X88547Y-65440D01*
X88441Y-65545D01*
X88384Y-65683D01*
X88384Y-65832D01*
X88441Y-65970D01*
X88546Y-66076D01*
X88684Y-66133D01*
X88780Y-66133D01*
X88797Y-66150D01*
X88773Y-66160D01*
X88750Y-66184D01*
X88726Y-66161D01*
X88579Y-66100D01*
X88420Y-66099D01*
X88273Y-66160D01*
X88250Y-66184D01*
X88226Y-66161D01*
X88079Y-66100D01*
X87920Y-66099D01*
X87773Y-66160D01*
X87661Y-66273D01*
X87600Y-66420D01*
X87599Y-66579D01*
X87660Y-66726D01*
X87684Y-66749D01*
X87661Y-66773D01*
X87600Y-66920D01*
X87599Y-67079D01*
X87660Y-67226D01*
X87684Y-67249D01*
X87661Y-67273D01*
X87606Y-67404D01*
X87385Y-67182D01*
X86164Y-66675D01*
X84841Y-66674D01*
X83618Y-67179D01*
X83393Y-67404D01*
X83339Y-67273D01*
X83315Y-67250D01*
X83338Y-67226D01*
X83399Y-67079D01*
X83400Y-66920D01*
X83339Y-66773D01*
X83315Y-66750D01*
X83338Y-66726D01*
X83399Y-66579D01*
X83400Y-66420D01*
X83339Y-66273D01*
X83226Y-66161D01*
X83079Y-66100D01*
X82920Y-66099D01*
X82773Y-66160D01*
X82750Y-66184D01*
X82726Y-66161D01*
X82579Y-66100D01*
X82420Y-66099D01*
X82273Y-66160D01*
X82250Y-66184D01*
X82226Y-66161D01*
X82079Y-66100D01*
X81920Y-66099D01*
X81773Y-66160D01*
X81661Y-66273D01*
X81600Y-66420D01*
X81599Y-66579D01*
X81660Y-66726D01*
X81684Y-66749D01*
X81661Y-66773D01*
X81600Y-66920D01*
X81599Y-67079D01*
X81660Y-67226D01*
X81684Y-67249D01*
X81661Y-67273D01*
X81600Y-67420D01*
X81599Y-67579D01*
X81660Y-67726D01*
X81750Y-67815D01*
X81750Y-69172D01*
X81719Y-69184D01*
X81654Y-69250D01*
X81000Y-69250D01*
X81000Y-69160D01*
X80969Y-69086D01*
X80913Y-69030D01*
X80839Y-69000D01*
X80760Y-68999D01*
X80297Y-68999D01*
X80297Y-67957D01*
X80400Y-67999D01*
X80599Y-68000D01*
X80782Y-67924D01*
X80923Y-67783D01*
X80999Y-67599D01*
X81000Y-67400D01*
X80924Y-67217D01*
X80783Y-67076D01*
X80599Y-67000D01*
X80539Y-67000D01*
X80839Y-67000D01*
X80913Y-66969D01*
X80969Y-66913D01*
X80999Y-66839D01*
X81000Y-66760D01*
X81000Y-66160D01*
X80969Y-66086D01*
X80913Y-66030D01*
X80839Y-66000D01*
X80760Y-65999D01*
X80160Y-65999D01*
X80119Y-66016D01*
X79711Y-65609D01*
X79711Y-59382D01*
X79654Y-59244D01*
X79549Y-59139D01*
X79411Y-59081D01*
X79315Y-59081D01*
X77841Y-57608D01*
X77760Y-57554D01*
X77664Y-57535D01*
X77476Y-57535D01*
X77409Y-57467D01*
X77271Y-57410D01*
X77122Y-57409D01*
X76984Y-57466D01*
X76878Y-57572D01*
X76821Y-57710D01*
X76821Y-57859D01*
X76878Y-57997D01*
X76983Y-58102D01*
X77121Y-58159D01*
X77270Y-58160D01*
X77408Y-58103D01*
X77476Y-58035D01*
X77561Y-58035D01*
X78961Y-59435D01*
X78961Y-59531D01*
X79018Y-59669D01*
X79124Y-59774D01*
X79261Y-59831D01*
X79411Y-59831D01*
X79548Y-59775D01*
X79654Y-59669D01*
X79711Y-59531D01*
X79711Y-59382D01*
X79711Y-65609D01*
X78811Y-64709D01*
X78811Y-64613D01*
X78754Y-64475D01*
X78734Y-64455D01*
X78734Y-60213D01*
X78677Y-60075D01*
X78571Y-59970D01*
X78434Y-59913D01*
X78284Y-59912D01*
X78146Y-59969D01*
X78041Y-60075D01*
X77984Y-60213D01*
X77984Y-60362D01*
X78041Y-60500D01*
X78109Y-60568D01*
X78109Y-60741D01*
X76718Y-62131D01*
X76718Y-57546D01*
X76661Y-57409D01*
X76556Y-57303D01*
X76418Y-57246D01*
X76269Y-57246D01*
X76131Y-57303D01*
X76025Y-57408D01*
X75968Y-57546D01*
X75968Y-57695D01*
X76025Y-57833D01*
X76093Y-57901D01*
X76093Y-60818D01*
X75675Y-61235D01*
X75580Y-61235D01*
X75442Y-61292D01*
X75336Y-61398D01*
X75279Y-61536D01*
X75279Y-61685D01*
X75336Y-61823D01*
X75441Y-61928D01*
X75579Y-61985D01*
X75728Y-61986D01*
X75866Y-61929D01*
X75972Y-61823D01*
X76029Y-61685D01*
X76029Y-61589D01*
X76520Y-61098D01*
X76520Y-61098D01*
X76520Y-61098D01*
X76574Y-61017D01*
X76574Y-61017D01*
X76593Y-60921D01*
X76593Y-57901D01*
X76661Y-57833D01*
X76718Y-57696D01*
X76718Y-57546D01*
X76718Y-62131D01*
X74350Y-64499D01*
X74339Y-64473D01*
X74315Y-64450D01*
X74338Y-64426D01*
X74399Y-64279D01*
X74400Y-64120D01*
X74339Y-63973D01*
X74315Y-63950D01*
X74338Y-63926D01*
X74399Y-63779D01*
X74400Y-63620D01*
X74339Y-63473D01*
X74250Y-63384D01*
X74250Y-62027D01*
X74280Y-62015D01*
X74419Y-61875D01*
X74495Y-61693D01*
X74495Y-61496D01*
X74420Y-61314D01*
X74305Y-61199D01*
X74419Y-61085D01*
X74495Y-60903D01*
X74495Y-60706D01*
X74420Y-60524D01*
X74280Y-60385D01*
X74250Y-60372D01*
X74250Y-59015D01*
X74338Y-58926D01*
X74399Y-58779D01*
X74400Y-58620D01*
X74339Y-58473D01*
X74315Y-58450D01*
X74338Y-58426D01*
X74399Y-58279D01*
X74400Y-58120D01*
X74339Y-57973D01*
X74315Y-57950D01*
X74338Y-57926D01*
X74399Y-57779D01*
X74400Y-57620D01*
X74339Y-57473D01*
X74226Y-57361D01*
X74079Y-57300D01*
X73920Y-57299D01*
X73773Y-57360D01*
X73750Y-57384D01*
X73726Y-57361D01*
X73579Y-57300D01*
X73420Y-57299D01*
X73273Y-57360D01*
X73250Y-57384D01*
X73226Y-57361D01*
X73079Y-57300D01*
X72953Y-57299D01*
X72818Y-57164D01*
X72737Y-57110D01*
X72641Y-57091D01*
X66308Y-57091D01*
X66308Y-57091D01*
X66289Y-57095D01*
X66212Y-57110D01*
X66131Y-57164D01*
X66131Y-57164D01*
X65981Y-57315D01*
X65969Y-57286D01*
X65913Y-57230D01*
X65839Y-57200D01*
X65760Y-57199D01*
X65160Y-57199D01*
X65086Y-57230D01*
X65030Y-57286D01*
X65000Y-57360D01*
X64999Y-57439D01*
X64999Y-58039D01*
X65030Y-58113D01*
X65050Y-58133D01*
X64873Y-58310D01*
X64818Y-58392D01*
X64799Y-58487D01*
X64799Y-64249D01*
X64818Y-64345D01*
X64873Y-64426D01*
X65013Y-64567D01*
X65000Y-64600D01*
X64999Y-64799D01*
X65075Y-64982D01*
X65216Y-65123D01*
X65400Y-65199D01*
X65599Y-65200D01*
X65782Y-65124D01*
X65923Y-64983D01*
X65999Y-64799D01*
X66000Y-64600D01*
X65924Y-64417D01*
X65783Y-64276D01*
X65599Y-64200D01*
X65539Y-64200D01*
X65839Y-64200D01*
X65913Y-64169D01*
X65969Y-64113D01*
X65999Y-64039D01*
X66000Y-63960D01*
X66000Y-63950D01*
X66684Y-63950D01*
X66661Y-63973D01*
X66600Y-64120D01*
X66599Y-64279D01*
X66660Y-64426D01*
X66684Y-64449D01*
X66661Y-64473D01*
X66600Y-64620D01*
X66599Y-64779D01*
X66660Y-64926D01*
X66773Y-65038D01*
X66920Y-65099D01*
X67079Y-65100D01*
X67226Y-65039D01*
X67249Y-65015D01*
X67273Y-65038D01*
X67420Y-65099D01*
X67579Y-65100D01*
X67726Y-65039D01*
X67749Y-65015D01*
X67773Y-65038D01*
X67920Y-65099D01*
X68046Y-65100D01*
X68268Y-65322D01*
X68268Y-65322D01*
X68349Y-65376D01*
X68349Y-65376D01*
X68426Y-65391D01*
X68445Y-65395D01*
X68445Y-65395D01*
X68445Y-65395D01*
X74058Y-65395D01*
X74153Y-65376D01*
X74234Y-65322D01*
X78535Y-61021D01*
X78590Y-60940D01*
X78590Y-60940D01*
X78609Y-60844D01*
X78609Y-60568D01*
X78676Y-60500D01*
X78734Y-60362D01*
X78734Y-60213D01*
X78734Y-64455D01*
X78649Y-64370D01*
X78511Y-64313D01*
X78362Y-64312D01*
X78224Y-64369D01*
X78118Y-64475D01*
X78061Y-64613D01*
X78061Y-64655D01*
X77674Y-64268D01*
X77593Y-64214D01*
X77497Y-64195D01*
X75922Y-64195D01*
X75854Y-64127D01*
X75717Y-64070D01*
X75567Y-64070D01*
X75430Y-64127D01*
X75324Y-64232D01*
X75267Y-64370D01*
X75267Y-64519D01*
X75324Y-64657D01*
X75429Y-64763D01*
X75567Y-64820D01*
X75716Y-64820D01*
X75854Y-64763D01*
X75922Y-64695D01*
X77394Y-64695D01*
X77702Y-65004D01*
X77696Y-65006D01*
X77627Y-65075D01*
X77463Y-65075D01*
X77367Y-65094D01*
X77286Y-65148D01*
X76401Y-66033D01*
X76347Y-66114D01*
X76328Y-66210D01*
X76328Y-66812D01*
X76260Y-66880D01*
X76203Y-67018D01*
X76203Y-67167D01*
X76259Y-67305D01*
X76365Y-67410D01*
X76503Y-67468D01*
X76652Y-67468D01*
X76790Y-67411D01*
X76895Y-67305D01*
X76953Y-67167D01*
X76953Y-67018D01*
X76896Y-66880D01*
X76828Y-66812D01*
X76828Y-66712D01*
X76875Y-66826D01*
X76980Y-66932D01*
X77118Y-66989D01*
X77267Y-66989D01*
X77405Y-66932D01*
X77473Y-66864D01*
X78413Y-66864D01*
X78484Y-66935D01*
X78479Y-66937D01*
X78373Y-67043D01*
X78316Y-67181D01*
X78316Y-67277D01*
X77387Y-68206D01*
X77333Y-68287D01*
X77314Y-68382D01*
X77314Y-68864D01*
X77246Y-68932D01*
X77189Y-69070D01*
X77189Y-69219D01*
X77246Y-69357D01*
X77351Y-69462D01*
X77489Y-69519D01*
X77638Y-69520D01*
X77776Y-69463D01*
X77882Y-69357D01*
X77939Y-69219D01*
X77939Y-69070D01*
X77882Y-68932D01*
X77814Y-68864D01*
X77814Y-68486D01*
X78670Y-67631D01*
X78765Y-67631D01*
X78853Y-67595D01*
X78853Y-68066D01*
X78785Y-68134D01*
X78785Y-68134D01*
X78685Y-68093D01*
X78536Y-68093D01*
X78398Y-68149D01*
X78292Y-68255D01*
X78235Y-68393D01*
X78235Y-68542D01*
X78292Y-68680D01*
X78360Y-68748D01*
X78360Y-69306D01*
X77572Y-70095D01*
X77555Y-70098D01*
X77478Y-70113D01*
X77397Y-70168D01*
X77397Y-70168D01*
X75010Y-72555D01*
X74956Y-72636D01*
X74941Y-72709D01*
X74350Y-73300D01*
X74339Y-73273D01*
X74315Y-73250D01*
X74338Y-73226D01*
X74399Y-73079D01*
X74400Y-72920D01*
X74339Y-72773D01*
X74315Y-72750D01*
X74338Y-72726D01*
X74399Y-72579D01*
X74400Y-72420D01*
X74339Y-72273D01*
X74250Y-72184D01*
X74250Y-70827D01*
X74280Y-70815D01*
X74419Y-70675D01*
X74495Y-70493D01*
X74495Y-70296D01*
X74420Y-70114D01*
X74305Y-69999D01*
X74419Y-69885D01*
X74495Y-69703D01*
X74495Y-69506D01*
X74420Y-69324D01*
X74280Y-69185D01*
X74250Y-69172D01*
X74250Y-67815D01*
X74338Y-67726D01*
X74399Y-67579D01*
X74400Y-67420D01*
X74339Y-67273D01*
X74315Y-67250D01*
X74338Y-67226D01*
X74399Y-67079D01*
X74400Y-66920D01*
X74339Y-66773D01*
X74315Y-66750D01*
X74338Y-66726D01*
X74399Y-66579D01*
X74400Y-66420D01*
X74339Y-66273D01*
X74226Y-66161D01*
X74079Y-66100D01*
X73920Y-66099D01*
X73773Y-66160D01*
X73750Y-66184D01*
X73726Y-66161D01*
X73579Y-66100D01*
X73420Y-66099D01*
X73273Y-66160D01*
X73250Y-66184D01*
X73226Y-66161D01*
X73079Y-66100D01*
X72953Y-66099D01*
X72811Y-65957D01*
X72730Y-65903D01*
X72634Y-65884D01*
X66315Y-65884D01*
X66220Y-65903D01*
X66138Y-65957D01*
X65981Y-66115D01*
X65969Y-66086D01*
X65913Y-66030D01*
X65839Y-66000D01*
X65760Y-65999D01*
X65160Y-65999D01*
X65086Y-66030D01*
X65030Y-66086D01*
X65000Y-66160D01*
X64999Y-66239D01*
X64999Y-66839D01*
X65030Y-66913D01*
X65050Y-66933D01*
X64873Y-67110D01*
X64818Y-67192D01*
X64799Y-67287D01*
X64799Y-73049D01*
X64818Y-73145D01*
X64873Y-73226D01*
X65013Y-73367D01*
X65000Y-73400D01*
X64999Y-73599D01*
X65075Y-73782D01*
X65216Y-73923D01*
X65400Y-73999D01*
X65599Y-74000D01*
X65782Y-73924D01*
X65923Y-73783D01*
X65999Y-73599D01*
X66000Y-73400D01*
X65924Y-73217D01*
X65783Y-73076D01*
X65599Y-73000D01*
X65539Y-73000D01*
X65839Y-73000D01*
X65913Y-72969D01*
X65969Y-72913D01*
X65999Y-72839D01*
X66000Y-72760D01*
X66000Y-72160D01*
X65969Y-72086D01*
X65913Y-72030D01*
X65839Y-72000D01*
X65760Y-71999D01*
X65750Y-71999D01*
X65750Y-70937D01*
X65782Y-70924D01*
X65923Y-70783D01*
X65999Y-70599D01*
X66000Y-70400D01*
X65924Y-70217D01*
X65783Y-70076D01*
X65599Y-70000D01*
X65539Y-70000D01*
X65839Y-70000D01*
X65913Y-69969D01*
X65969Y-69913D01*
X65999Y-69839D01*
X66000Y-69760D01*
X66000Y-69160D01*
X65969Y-69086D01*
X65913Y-69030D01*
X65839Y-69000D01*
X65760Y-68999D01*
X65750Y-68999D01*
X65750Y-67937D01*
X65782Y-67924D01*
X65923Y-67783D01*
X65999Y-67599D01*
X66000Y-67400D01*
X65924Y-67217D01*
X65783Y-67076D01*
X65726Y-67052D01*
X65730Y-67045D01*
X65740Y-67000D01*
X65839Y-67000D01*
X65913Y-66969D01*
X65969Y-66913D01*
X65999Y-66839D01*
X66000Y-66760D01*
X66000Y-66740D01*
X66045Y-66730D01*
X66126Y-66676D01*
X66419Y-66384D01*
X66614Y-66384D01*
X66600Y-66420D01*
X66599Y-66579D01*
X66660Y-66726D01*
X66684Y-66749D01*
X66661Y-66773D01*
X66600Y-66920D01*
X66599Y-67079D01*
X66660Y-67226D01*
X66684Y-67249D01*
X66661Y-67273D01*
X66600Y-67420D01*
X66599Y-67579D01*
X66660Y-67726D01*
X66773Y-67838D01*
X66920Y-67899D01*
X67079Y-67900D01*
X67226Y-67839D01*
X67249Y-67815D01*
X67273Y-67838D01*
X67420Y-67899D01*
X67579Y-67900D01*
X67726Y-67839D01*
X67749Y-67815D01*
X67773Y-67838D01*
X67904Y-67893D01*
X67682Y-68114D01*
X67244Y-69170D01*
X67098Y-69109D01*
X66901Y-69109D01*
X66719Y-69184D01*
X66580Y-69324D01*
X66504Y-69506D01*
X66504Y-69703D01*
X66579Y-69885D01*
X66694Y-70000D01*
X66580Y-70114D01*
X66504Y-70296D01*
X66504Y-70493D01*
X66579Y-70675D01*
X66719Y-70814D01*
X66901Y-70890D01*
X67098Y-70890D01*
X67245Y-70829D01*
X67679Y-71881D01*
X67904Y-72106D01*
X67773Y-72160D01*
X67750Y-72184D01*
X67726Y-72161D01*
X67579Y-72100D01*
X67420Y-72099D01*
X67273Y-72160D01*
X67250Y-72184D01*
X67226Y-72161D01*
X67079Y-72100D01*
X66920Y-72099D01*
X66773Y-72160D01*
X66661Y-72273D01*
X66600Y-72420D01*
X66599Y-72579D01*
X66660Y-72726D01*
X66684Y-72749D01*
X66661Y-72773D01*
X66600Y-72920D01*
X66599Y-73079D01*
X66660Y-73226D01*
X66684Y-73249D01*
X66661Y-73273D01*
X66600Y-73420D01*
X66599Y-73579D01*
X66660Y-73726D01*
X66773Y-73838D01*
X66920Y-73899D01*
X67079Y-73900D01*
X67226Y-73839D01*
X67249Y-73815D01*
X67273Y-73838D01*
X67420Y-73899D01*
X67579Y-73900D01*
X67726Y-73839D01*
X67749Y-73815D01*
X67773Y-73838D01*
X67920Y-73899D01*
X68046Y-73900D01*
X68268Y-74122D01*
X68349Y-74176D01*
X68445Y-74195D01*
X69425Y-74195D01*
X69173Y-74446D01*
X69025Y-74805D01*
X69024Y-75193D01*
X69172Y-75551D01*
X69401Y-75780D01*
X64719Y-75780D01*
X64719Y-55219D01*
X69901Y-55219D01*
X69673Y-55446D01*
X69525Y-55805D01*
X69524Y-56193D01*
X69672Y-56551D01*
X69946Y-56826D01*
X70305Y-56974D01*
X70693Y-56975D01*
X71051Y-56827D01*
X71326Y-56553D01*
X71421Y-56322D01*
X71438Y-56405D01*
X71546Y-56567D01*
X71708Y-56675D01*
X71900Y-56713D01*
X72091Y-56675D01*
X72253Y-56567D01*
X72361Y-56405D01*
X72400Y-56213D01*
X72438Y-56405D01*
X72546Y-56567D01*
X72708Y-56675D01*
X72900Y-56713D01*
X73091Y-56675D01*
X73253Y-56567D01*
X73361Y-56405D01*
X73400Y-56213D01*
X73438Y-56405D01*
X73546Y-56567D01*
X73708Y-56675D01*
X73900Y-56713D01*
X74091Y-56675D01*
X74253Y-56567D01*
X74361Y-56405D01*
X74375Y-56336D01*
X74411Y-56456D01*
X74546Y-56624D01*
X74735Y-56727D01*
X74764Y-56733D01*
X74850Y-56684D01*
X74850Y-56050D01*
X74842Y-56050D01*
X74842Y-55950D01*
X74850Y-55950D01*
X74850Y-55315D01*
X74764Y-55266D01*
X74735Y-55272D01*
X74546Y-55375D01*
X74411Y-55543D01*
X74375Y-55663D01*
X74361Y-55594D01*
X74253Y-55432D01*
X74091Y-55324D01*
X73900Y-55286D01*
X73708Y-55324D01*
X73546Y-55432D01*
X73438Y-55594D01*
X73400Y-55786D01*
X73361Y-55594D01*
X73253Y-55432D01*
X73091Y-55324D01*
X72900Y-55286D01*
X72708Y-55324D01*
X72546Y-55432D01*
X72438Y-55594D01*
X72400Y-55786D01*
X72361Y-55594D01*
X72253Y-55432D01*
X72091Y-55324D01*
X71900Y-55286D01*
X71708Y-55324D01*
X71546Y-55432D01*
X71438Y-55594D01*
X71421Y-55677D01*
X71327Y-55448D01*
X71098Y-55219D01*
X91280Y-55219D01*
X91280Y-61401D01*
X91053Y-61173D01*
X90694Y-61025D01*
X90306Y-61024D01*
X90000Y-61151D01*
X90000Y-56213D01*
X90000Y-55786D01*
X89961Y-55594D01*
X89853Y-55432D01*
X89691Y-55324D01*
X89500Y-55286D01*
X89308Y-55324D01*
X89146Y-55432D01*
X89038Y-55594D01*
X89000Y-55786D01*
X88961Y-55594D01*
X88853Y-55432D01*
X88691Y-55324D01*
X88500Y-55286D01*
X88308Y-55324D01*
X88146Y-55432D01*
X88038Y-55594D01*
X88000Y-55786D01*
X87961Y-55594D01*
X87853Y-55432D01*
X87691Y-55324D01*
X87500Y-55286D01*
X87308Y-55324D01*
X87146Y-55432D01*
X87038Y-55594D01*
X87000Y-55786D01*
X86961Y-55594D01*
X86853Y-55432D01*
X86691Y-55324D01*
X86500Y-55286D01*
X86308Y-55324D01*
X86146Y-55432D01*
X86038Y-55594D01*
X86000Y-55786D01*
X85961Y-55594D01*
X85853Y-55432D01*
X85691Y-55324D01*
X85500Y-55286D01*
X85308Y-55324D01*
X85146Y-55432D01*
X85038Y-55594D01*
X85000Y-55786D01*
X84961Y-55594D01*
X84853Y-55432D01*
X84691Y-55324D01*
X84500Y-55286D01*
X84308Y-55324D01*
X84146Y-55432D01*
X84038Y-55594D01*
X84000Y-55786D01*
X83961Y-55594D01*
X83853Y-55432D01*
X83691Y-55324D01*
X83500Y-55286D01*
X83308Y-55324D01*
X83146Y-55432D01*
X83038Y-55594D01*
X83000Y-55786D01*
X82961Y-55594D01*
X82853Y-55432D01*
X82691Y-55324D01*
X82500Y-55286D01*
X82308Y-55324D01*
X82146Y-55432D01*
X82038Y-55594D01*
X82000Y-55786D01*
X82000Y-56213D01*
X82038Y-56405D01*
X82146Y-56567D01*
X82308Y-56675D01*
X82500Y-56713D01*
X82691Y-56675D01*
X82853Y-56567D01*
X82961Y-56405D01*
X83000Y-56213D01*
X83038Y-56405D01*
X83146Y-56567D01*
X83308Y-56675D01*
X83500Y-56713D01*
X83691Y-56675D01*
X83853Y-56567D01*
X83961Y-56405D01*
X84000Y-56213D01*
X84038Y-56405D01*
X84146Y-56567D01*
X84308Y-56675D01*
X84500Y-56713D01*
X84691Y-56675D01*
X84853Y-56567D01*
X84961Y-56405D01*
X85000Y-56213D01*
X85038Y-56405D01*
X85146Y-56567D01*
X85308Y-56675D01*
X85500Y-56713D01*
X85691Y-56675D01*
X85853Y-56567D01*
X85961Y-56405D01*
X86000Y-56213D01*
X86038Y-56405D01*
X86146Y-56567D01*
X86308Y-56675D01*
X86500Y-56713D01*
X86691Y-56675D01*
X86853Y-56567D01*
X86961Y-56405D01*
X87000Y-56213D01*
X87038Y-56405D01*
X87146Y-56567D01*
X87308Y-56675D01*
X87500Y-56713D01*
X87691Y-56675D01*
X87853Y-56567D01*
X87961Y-56405D01*
X88000Y-56213D01*
X88038Y-56405D01*
X88146Y-56567D01*
X88308Y-56675D01*
X88500Y-56713D01*
X88691Y-56675D01*
X88853Y-56567D01*
X88961Y-56405D01*
X89000Y-56213D01*
X89038Y-56405D01*
X89146Y-56567D01*
X89308Y-56675D01*
X89500Y-56713D01*
X89691Y-56675D01*
X89853Y-56567D01*
X89961Y-56405D01*
X90000Y-56213D01*
X90000Y-61151D01*
X89948Y-61172D01*
X89673Y-61446D01*
X89525Y-61805D01*
X89524Y-62193D01*
X89672Y-62551D01*
X89946Y-62826D01*
X90305Y-62974D01*
X90693Y-62975D01*
X91051Y-62827D01*
X91280Y-62598D01*
X91280Y-72401D01*
G54D10*
G36*
X91280Y-75780D02*
X81450Y-75780D01*
X81450Y-75684D01*
X81450Y-75050D01*
X81050Y-75050D01*
X80950Y-75050D01*
X80550Y-75050D01*
X80550Y-75684D01*
X80635Y-75733D01*
X80664Y-75727D01*
X80853Y-75624D01*
X80988Y-75456D01*
X81000Y-75419D01*
X81011Y-75456D01*
X81146Y-75624D01*
X81335Y-75727D01*
X81364Y-75733D01*
X81450Y-75684D01*
X81450Y-75780D01*
X80450Y-75780D01*
X80450Y-75684D01*
X80450Y-75050D01*
X80442Y-75050D01*
X80442Y-74950D01*
X80450Y-74950D01*
X80450Y-74315D01*
X80364Y-74266D01*
X80335Y-74272D01*
X80146Y-74375D01*
X80011Y-74543D01*
X79975Y-74663D01*
X79961Y-74594D01*
X79853Y-74432D01*
X79691Y-74324D01*
X79500Y-74286D01*
X79308Y-74324D01*
X79146Y-74432D01*
X79038Y-74594D01*
X79000Y-74786D01*
X78961Y-74594D01*
X78853Y-74432D01*
X78691Y-74324D01*
X78500Y-74286D01*
X78308Y-74324D01*
X78146Y-74432D01*
X78038Y-74594D01*
X78000Y-74786D01*
X77961Y-74594D01*
X77853Y-74432D01*
X77691Y-74324D01*
X77500Y-74286D01*
X77308Y-74324D01*
X77146Y-74432D01*
X77038Y-74594D01*
X77000Y-74786D01*
X77000Y-75213D01*
X77038Y-75405D01*
X77146Y-75567D01*
X77308Y-75675D01*
X77500Y-75713D01*
X77691Y-75675D01*
X77853Y-75567D01*
X77961Y-75405D01*
X78000Y-75213D01*
X78038Y-75405D01*
X78146Y-75567D01*
X78308Y-75675D01*
X78500Y-75713D01*
X78691Y-75675D01*
X78853Y-75567D01*
X78961Y-75405D01*
X79000Y-75213D01*
X79038Y-75405D01*
X79146Y-75567D01*
X79308Y-75675D01*
X79500Y-75713D01*
X79691Y-75675D01*
X79853Y-75567D01*
X79961Y-75405D01*
X79975Y-75336D01*
X80011Y-75456D01*
X80146Y-75624D01*
X80335Y-75727D01*
X80364Y-75733D01*
X80450Y-75684D01*
X80450Y-75780D01*
X70598Y-75780D01*
X70826Y-75553D01*
X70974Y-75194D01*
X70975Y-74806D01*
X70827Y-74448D01*
X70574Y-74195D01*
X74059Y-74195D01*
X74154Y-74176D01*
X74235Y-74122D01*
X75363Y-72994D01*
X75363Y-72994D01*
X75363Y-72994D01*
X75418Y-72913D01*
X75418Y-72913D01*
X75432Y-72840D01*
X75432Y-72840D01*
X76864Y-71408D01*
X76868Y-71418D01*
X76973Y-71523D01*
X77111Y-71581D01*
X77260Y-71581D01*
X77398Y-71524D01*
X77503Y-71418D01*
X77561Y-71281D01*
X77561Y-71184D01*
X79382Y-69363D01*
X79382Y-70878D01*
X79402Y-70974D01*
X79456Y-71055D01*
X80400Y-71999D01*
X80160Y-71999D01*
X80086Y-72030D01*
X80030Y-72086D01*
X80000Y-72160D01*
X79999Y-72239D01*
X79999Y-72839D01*
X80030Y-72913D01*
X80086Y-72969D01*
X80160Y-72999D01*
X80239Y-73000D01*
X80400Y-73000D01*
X80217Y-73075D01*
X80076Y-73216D01*
X80000Y-73400D01*
X79999Y-73599D01*
X80075Y-73782D01*
X80216Y-73923D01*
X80400Y-73999D01*
X80599Y-74000D01*
X80782Y-73924D01*
X80849Y-73857D01*
X81289Y-74297D01*
X81146Y-74375D01*
X81011Y-74543D01*
X81000Y-74580D01*
X80988Y-74543D01*
X80853Y-74375D01*
X80664Y-74272D01*
X80635Y-74266D01*
X80550Y-74315D01*
X80550Y-74950D01*
X80950Y-74950D01*
X81050Y-74950D01*
X81450Y-74950D01*
X81450Y-74942D01*
X81550Y-74942D01*
X81550Y-74950D01*
X81557Y-74950D01*
X81557Y-75050D01*
X81550Y-75050D01*
X81550Y-75684D01*
X81635Y-75733D01*
X81664Y-75727D01*
X81853Y-75624D01*
X81988Y-75456D01*
X82024Y-75336D01*
X82038Y-75405D01*
X82146Y-75567D01*
X82308Y-75675D01*
X82500Y-75713D01*
X82691Y-75675D01*
X82853Y-75567D01*
X82961Y-75405D01*
X83000Y-75213D01*
X83000Y-74786D01*
X82962Y-74599D01*
X84037Y-74599D01*
X84000Y-74786D01*
X84000Y-75213D01*
X84038Y-75405D01*
X84146Y-75567D01*
X84308Y-75675D01*
X84500Y-75713D01*
X84691Y-75675D01*
X84853Y-75567D01*
X84961Y-75405D01*
X85000Y-75213D01*
X85038Y-75405D01*
X85146Y-75567D01*
X85308Y-75675D01*
X85500Y-75713D01*
X85691Y-75675D01*
X85853Y-75567D01*
X85961Y-75405D01*
X86000Y-75213D01*
X86038Y-75405D01*
X86146Y-75567D01*
X86308Y-75675D01*
X86500Y-75713D01*
X86691Y-75675D01*
X86853Y-75567D01*
X86961Y-75405D01*
X87000Y-75213D01*
X87038Y-75405D01*
X87146Y-75567D01*
X87308Y-75675D01*
X87500Y-75713D01*
X87691Y-75675D01*
X87853Y-75567D01*
X87961Y-75405D01*
X88000Y-75213D01*
X88038Y-75405D01*
X88146Y-75567D01*
X88308Y-75675D01*
X88500Y-75713D01*
X88691Y-75675D01*
X88853Y-75567D01*
X88961Y-75405D01*
X89000Y-75213D01*
X89038Y-75405D01*
X89146Y-75567D01*
X89308Y-75675D01*
X89500Y-75713D01*
X89691Y-75675D01*
X89853Y-75567D01*
X89961Y-75405D01*
X90000Y-75213D01*
X90000Y-74786D01*
X89961Y-74594D01*
X89853Y-74432D01*
X89691Y-74324D01*
X89500Y-74286D01*
X89308Y-74324D01*
X89146Y-74432D01*
X89038Y-74594D01*
X89000Y-74786D01*
X88961Y-74594D01*
X88885Y-74480D01*
X89635Y-73730D01*
X89689Y-73649D01*
X89703Y-73581D01*
X89946Y-73826D01*
X90305Y-73974D01*
X90693Y-73975D01*
X91051Y-73827D01*
X91280Y-73598D01*
X91280Y-75780D01*
X91280Y-75780D01*
G37*
G54D19*
X91280Y-75780D02*
X81450Y-75780D01*
X81450Y-75684D01*
X81450Y-75050D01*
X81050Y-75050D01*
X80950Y-75050D01*
X80550Y-75050D01*
X80550Y-75684D01*
X80635Y-75733D01*
X80664Y-75727D01*
X80853Y-75624D01*
X80988Y-75456D01*
X81000Y-75419D01*
X81011Y-75456D01*
X81146Y-75624D01*
X81335Y-75727D01*
X81364Y-75733D01*
X81450Y-75684D01*
X81450Y-75780D01*
X80450Y-75780D01*
X80450Y-75684D01*
X80450Y-75050D01*
X80442Y-75050D01*
X80442Y-74950D01*
X80450Y-74950D01*
X80450Y-74315D01*
X80364Y-74266D01*
X80335Y-74272D01*
X80146Y-74375D01*
X80011Y-74543D01*
X79975Y-74663D01*
X79961Y-74594D01*
X79853Y-74432D01*
X79691Y-74324D01*
X79500Y-74286D01*
X79308Y-74324D01*
X79146Y-74432D01*
X79038Y-74594D01*
X79000Y-74786D01*
X78961Y-74594D01*
X78853Y-74432D01*
X78691Y-74324D01*
X78500Y-74286D01*
X78308Y-74324D01*
X78146Y-74432D01*
X78038Y-74594D01*
X78000Y-74786D01*
X77961Y-74594D01*
X77853Y-74432D01*
X77691Y-74324D01*
X77500Y-74286D01*
X77308Y-74324D01*
X77146Y-74432D01*
X77038Y-74594D01*
X77000Y-74786D01*
X77000Y-75213D01*
X77038Y-75405D01*
X77146Y-75567D01*
X77308Y-75675D01*
X77500Y-75713D01*
X77691Y-75675D01*
X77853Y-75567D01*
X77961Y-75405D01*
X78000Y-75213D01*
X78038Y-75405D01*
X78146Y-75567D01*
X78308Y-75675D01*
X78500Y-75713D01*
X78691Y-75675D01*
X78853Y-75567D01*
X78961Y-75405D01*
X79000Y-75213D01*
X79038Y-75405D01*
X79146Y-75567D01*
X79308Y-75675D01*
X79500Y-75713D01*
X79691Y-75675D01*
X79853Y-75567D01*
X79961Y-75405D01*
X79975Y-75336D01*
X80011Y-75456D01*
X80146Y-75624D01*
X80335Y-75727D01*
X80364Y-75733D01*
X80450Y-75684D01*
X80450Y-75780D01*
X70598Y-75780D01*
X70826Y-75553D01*
X70974Y-75194D01*
X70975Y-74806D01*
X70827Y-74448D01*
X70574Y-74195D01*
X74059Y-74195D01*
X74154Y-74176D01*
X74235Y-74122D01*
X75363Y-72994D01*
X75363Y-72994D01*
X75363Y-72994D01*
X75418Y-72913D01*
X75418Y-72913D01*
X75432Y-72840D01*
X75432Y-72840D01*
X76864Y-71408D01*
X76868Y-71418D01*
X76973Y-71523D01*
X77111Y-71581D01*
X77260Y-71581D01*
X77398Y-71524D01*
X77503Y-71418D01*
X77561Y-71281D01*
X77561Y-71184D01*
X79382Y-69363D01*
X79382Y-70878D01*
X79402Y-70974D01*
X79456Y-71055D01*
X80400Y-71999D01*
X80160Y-71999D01*
X80086Y-72030D01*
X80030Y-72086D01*
X80000Y-72160D01*
X79999Y-72239D01*
X79999Y-72839D01*
X80030Y-72913D01*
X80086Y-72969D01*
X80160Y-72999D01*
X80239Y-73000D01*
X80400Y-73000D01*
X80217Y-73075D01*
X80076Y-73216D01*
X80000Y-73400D01*
X79999Y-73599D01*
X80075Y-73782D01*
X80216Y-73923D01*
X80400Y-73999D01*
X80599Y-74000D01*
X80782Y-73924D01*
X80849Y-73857D01*
X81289Y-74297D01*
X81146Y-74375D01*
X81011Y-74543D01*
X81000Y-74580D01*
X80988Y-74543D01*
X80853Y-74375D01*
X80664Y-74272D01*
X80635Y-74266D01*
X80550Y-74315D01*
X80550Y-74950D01*
X80950Y-74950D01*
X81050Y-74950D01*
X81450Y-74950D01*
X81450Y-74942D01*
X81550Y-74942D01*
X81550Y-74950D01*
X81557Y-74950D01*
X81557Y-75050D01*
X81550Y-75050D01*
X81550Y-75684D01*
X81635Y-75733D01*
X81664Y-75727D01*
X81853Y-75624D01*
X81988Y-75456D01*
X82024Y-75336D01*
X82038Y-75405D01*
X82146Y-75567D01*
X82308Y-75675D01*
X82500Y-75713D01*
X82691Y-75675D01*
X82853Y-75567D01*
X82961Y-75405D01*
X83000Y-75213D01*
X83000Y-74786D01*
X82962Y-74599D01*
X84037Y-74599D01*
X84000Y-74786D01*
X84000Y-75213D01*
X84038Y-75405D01*
X84146Y-75567D01*
X84308Y-75675D01*
X84500Y-75713D01*
X84691Y-75675D01*
X84853Y-75567D01*
X84961Y-75405D01*
X85000Y-75213D01*
X85038Y-75405D01*
X85146Y-75567D01*
X85308Y-75675D01*
X85500Y-75713D01*
X85691Y-75675D01*
X85853Y-75567D01*
X85961Y-75405D01*
X86000Y-75213D01*
X86038Y-75405D01*
X86146Y-75567D01*
X86308Y-75675D01*
X86500Y-75713D01*
X86691Y-75675D01*
X86853Y-75567D01*
X86961Y-75405D01*
X87000Y-75213D01*
X87038Y-75405D01*
X87146Y-75567D01*
X87308Y-75675D01*
X87500Y-75713D01*
X87691Y-75675D01*
X87853Y-75567D01*
X87961Y-75405D01*
X88000Y-75213D01*
X88038Y-75405D01*
X88146Y-75567D01*
X88308Y-75675D01*
X88500Y-75713D01*
X88691Y-75675D01*
X88853Y-75567D01*
X88961Y-75405D01*
X89000Y-75213D01*
X89038Y-75405D01*
X89146Y-75567D01*
X89308Y-75675D01*
X89500Y-75713D01*
X89691Y-75675D01*
X89853Y-75567D01*
X89961Y-75405D01*
X90000Y-75213D01*
X90000Y-74786D01*
X89961Y-74594D01*
X89853Y-74432D01*
X89691Y-74324D01*
X89500Y-74286D01*
X89308Y-74324D01*
X89146Y-74432D01*
X89038Y-74594D01*
X89000Y-74786D01*
X88961Y-74594D01*
X88885Y-74480D01*
X89635Y-73730D01*
X89689Y-73649D01*
X89703Y-73581D01*
X89946Y-73826D01*
X90305Y-73974D01*
X90693Y-73975D01*
X91051Y-73827D01*
X91280Y-73598D01*
X91280Y-75780D01*
M02*
