G04 (created by PCBNEW (2013-07-07 BZR 4022)-stable) date 11/3/2017 9:35:14 AM*
%MOIN*%
G04 Gerber Fmt 3.4, Leading zero omitted, Abs format*
%FSLAX34Y34*%
G01*
G70*
G90*
G04 APERTURE LIST*
%ADD10C,0.00590551*%
%ADD11C,0.625*%
%ADD12C,0.04*%
%ADD13C,0.0590551*%
%ADD14R,0.06X0.06*%
%ADD15C,0.06*%
%ADD16O,0.06X0.1*%
%ADD17C,0.155*%
G04 APERTURE END LIST*
G54D10*
G54D11*
X85500Y-70000D03*
G54D12*
X82500Y-67000D03*
X82500Y-73000D03*
X82000Y-67500D03*
X83000Y-67500D03*
X83000Y-66500D03*
X82000Y-66500D03*
X82500Y-67500D03*
X82000Y-67000D03*
X82500Y-66500D03*
X83000Y-67000D03*
X82000Y-72500D03*
X82500Y-72500D03*
X83000Y-72500D03*
X83000Y-73000D03*
X83000Y-73500D03*
X82500Y-73500D03*
X82000Y-73500D03*
X82000Y-73000D03*
X88000Y-72500D03*
X88500Y-72500D03*
X89000Y-72500D03*
X89000Y-73000D03*
X88500Y-73000D03*
X88000Y-73000D03*
X88000Y-73500D03*
X88500Y-73500D03*
X89000Y-73500D03*
X88000Y-67500D03*
X88000Y-67000D03*
X88000Y-66500D03*
X88500Y-66500D03*
X88500Y-67000D03*
X88500Y-67500D03*
X89000Y-67500D03*
X89000Y-67000D03*
X89000Y-66500D03*
G54D13*
X85105Y-73500D03*
X85895Y-73500D03*
X82000Y-69605D03*
X82000Y-70395D03*
X89000Y-70395D03*
X89000Y-69605D03*
G54D11*
X70500Y-61200D03*
G54D12*
X67500Y-58200D03*
X67500Y-64200D03*
X67000Y-58700D03*
X68000Y-58700D03*
X68000Y-57700D03*
X67000Y-57700D03*
X67500Y-58700D03*
X67000Y-58200D03*
X67500Y-57700D03*
X68000Y-58200D03*
X67000Y-63700D03*
X67500Y-63700D03*
X68000Y-63700D03*
X68000Y-64200D03*
X68000Y-64700D03*
X67500Y-64700D03*
X67000Y-64700D03*
X67000Y-64200D03*
X73000Y-63700D03*
X73500Y-63700D03*
X74000Y-63700D03*
X74000Y-64200D03*
X73500Y-64200D03*
X73000Y-64200D03*
X73000Y-64700D03*
X73500Y-64700D03*
X74000Y-64700D03*
X73000Y-58700D03*
X73000Y-58200D03*
X73000Y-57700D03*
X73500Y-57700D03*
X73500Y-58200D03*
X73500Y-58700D03*
X74000Y-58700D03*
X74000Y-58200D03*
X74000Y-57700D03*
G54D13*
X70105Y-64700D03*
X70895Y-64700D03*
X67000Y-60805D03*
X67000Y-61595D03*
X74000Y-61595D03*
X74000Y-60805D03*
G54D11*
X85500Y-61200D03*
G54D12*
X82500Y-58200D03*
X82500Y-64200D03*
X82000Y-58700D03*
X83000Y-58700D03*
X83000Y-57700D03*
X82000Y-57700D03*
X82500Y-58700D03*
X82000Y-58200D03*
X82500Y-57700D03*
X83000Y-58200D03*
X82000Y-63700D03*
X82500Y-63700D03*
X83000Y-63700D03*
X83000Y-64200D03*
X83000Y-64700D03*
X82500Y-64700D03*
X82000Y-64700D03*
X82000Y-64200D03*
X88000Y-63700D03*
X88500Y-63700D03*
X89000Y-63700D03*
X89000Y-64200D03*
X88500Y-64200D03*
X88000Y-64200D03*
X88000Y-64700D03*
X88500Y-64700D03*
X89000Y-64700D03*
X88000Y-58700D03*
X88000Y-58200D03*
X88000Y-57700D03*
X88500Y-57700D03*
X88500Y-58200D03*
X88500Y-58700D03*
X89000Y-58700D03*
X89000Y-58200D03*
X89000Y-57700D03*
G54D13*
X85105Y-64700D03*
X85895Y-64700D03*
X82000Y-60805D03*
X82000Y-61595D03*
X89000Y-61595D03*
X89000Y-60805D03*
G54D11*
X70500Y-70000D03*
G54D12*
X67500Y-67000D03*
X67500Y-73000D03*
X67000Y-67500D03*
X68000Y-67500D03*
X68000Y-66500D03*
X67000Y-66500D03*
X67500Y-67500D03*
X67000Y-67000D03*
X67500Y-66500D03*
X68000Y-67000D03*
X67000Y-72500D03*
X67500Y-72500D03*
X68000Y-72500D03*
X68000Y-73000D03*
X68000Y-73500D03*
X67500Y-73500D03*
X67000Y-73500D03*
X67000Y-73000D03*
X73000Y-72500D03*
X73500Y-72500D03*
X74000Y-72500D03*
X74000Y-73000D03*
X73500Y-73000D03*
X73000Y-73000D03*
X73000Y-73500D03*
X73500Y-73500D03*
X74000Y-73500D03*
X73000Y-67500D03*
X73000Y-67000D03*
X73000Y-66500D03*
X73500Y-66500D03*
X73500Y-67000D03*
X73500Y-67500D03*
X74000Y-67500D03*
X74000Y-67000D03*
X74000Y-66500D03*
G54D13*
X70105Y-73500D03*
X70895Y-73500D03*
X67000Y-69605D03*
X67000Y-70395D03*
X74000Y-70395D03*
X74000Y-69605D03*
G54D14*
X80500Y-66500D03*
G54D15*
X80500Y-67500D03*
G54D14*
X80500Y-72500D03*
G54D15*
X80500Y-73500D03*
G54D14*
X80500Y-69500D03*
G54D15*
X80500Y-70500D03*
G54D14*
X65500Y-69500D03*
G54D15*
X65500Y-70500D03*
G54D14*
X65500Y-66500D03*
G54D15*
X65500Y-67500D03*
G54D14*
X65500Y-72500D03*
G54D15*
X65500Y-73500D03*
G54D14*
X80500Y-60700D03*
G54D15*
X80500Y-61700D03*
G54D14*
X80500Y-57700D03*
G54D15*
X80500Y-58700D03*
G54D14*
X80500Y-63700D03*
G54D15*
X80500Y-64700D03*
G54D14*
X65500Y-60700D03*
G54D15*
X65500Y-61700D03*
G54D14*
X65500Y-57700D03*
G54D15*
X65500Y-58700D03*
G54D14*
X65500Y-63700D03*
G54D15*
X65500Y-64700D03*
G54D16*
X89500Y-75000D03*
X88500Y-75000D03*
X87500Y-75000D03*
X84500Y-75000D03*
X85500Y-75000D03*
X86500Y-75000D03*
X82500Y-75000D03*
X81500Y-75000D03*
X80500Y-75000D03*
X78500Y-75000D03*
X77500Y-75000D03*
X89500Y-56000D03*
X88500Y-56000D03*
X87500Y-56000D03*
X86500Y-56000D03*
X85500Y-56000D03*
X84500Y-56000D03*
X83500Y-56000D03*
X82500Y-56000D03*
X80900Y-56000D03*
X79900Y-56000D03*
X78900Y-56000D03*
X77900Y-56000D03*
X76900Y-56000D03*
X75900Y-56000D03*
X74900Y-56000D03*
X73900Y-56000D03*
X79500Y-75000D03*
G54D17*
X90500Y-73000D03*
X90500Y-62000D03*
X70500Y-56000D03*
X70000Y-75000D03*
G54D16*
X72900Y-56000D03*
X71900Y-56000D03*
M02*
